<svg id="automoveis" xmlns="http://www.w3.org/2000/svg" width="108.675" height="73.016" viewBox="0 0 108.675 73.016">
  <path id="Caminho_13" data-name="Caminho 13" d="M99.312,145.338H29.877a16.243,16.243,0,0,1-16.224-16.224V118.465a8.8,8.8,0,0,1,8.784-8.785h84.314a8.8,8.8,0,0,1,8.784,8.785v10.649a16.241,16.241,0,0,1-16.222,16.224ZM22.437,113.075a5.4,5.4,0,0,0-5.388,5.39v10.649a12.842,12.842,0,0,0,12.827,12.828H99.312a12.842,12.842,0,0,0,12.827-12.828V118.465a5.4,5.4,0,0,0-5.389-5.39Zm0,0" transform="translate(-10.257 -82.511)" fill="#f8da1b"/>
  <path id="Caminho_14" data-name="Caminho 14" d="M189.31,147.208H165.538a1.7,1.7,0,1,1,0-3.4H189.31a1.7,1.7,0,1,1,0,3.4Zm0,0" transform="translate(-123.087 -108.154)" fill="#f8da1b"/>
  <path id="Caminho_15" data-name="Caminho 15" d="M189.31,167.689H165.538a1.7,1.7,0,1,1,0-3.4H189.31a1.7,1.7,0,1,1,0,3.4Zm0,0" transform="translate(-123.087 -123.54)" fill="#f8da1b"/>
  <path id="Caminho_16" data-name="Caminho 16" d="M189.31,188.169H165.538a1.7,1.7,0,1,1,0-3.4H189.31a1.7,1.7,0,1,1,0,3.4Zm0,0" transform="translate(-123.087 -138.926)" fill="#f8da1b"/>
  <path id="Caminho_17" data-name="Caminho 17" d="M189.31,242.783H165.538a1.7,1.7,0,1,1,0-3.4H189.31a1.7,1.7,0,1,1,0,3.4Zm0,0" transform="translate(-123.087 -179.955)" fill="#f8da1b"/>
  <path id="Caminho_18" data-name="Caminho 18" d="M49.451,153.969a8.49,8.49,0,1,1,8.49-8.49,8.5,8.5,0,0,1-8.49,8.49Zm0-13.584a5.094,5.094,0,1,0,5.094,5.094A5.1,5.1,0,0,0,49.451,140.384Zm0,0" transform="translate(-30.772 -103.027)" fill="#f8da1b"/>
  <path id="Caminho_19" data-name="Caminho 19" d="M336.17,153.969a8.49,8.49,0,1,1,8.49-8.49A8.5,8.5,0,0,1,336.17,153.969Zm0-13.584a5.094,5.094,0,1,0,5.094,5.094A5.1,5.1,0,0,0,336.17,140.384Zm0,0" transform="translate(-246.174 -103.027)" fill="#f8da1b"/>
  <path id="Caminho_20" data-name="Caminho 20" d="M69.9,252.971H56.312a1.7,1.7,0,0,1-1.7-1.7V241.085a1.7,1.7,0,0,1,1.7-1.7H69.9a1.7,1.7,0,0,1,1.7,1.7v10.188A1.7,1.7,0,0,1,69.9,252.971Zm-11.887-3.4H68.2v-6.793H58.009Zm0,0" transform="translate(-41.029 -179.955)" fill="#f8da1b"/>
  <path id="Caminho_21" data-name="Caminho 21" d="M329.309,252.971H315.725a1.7,1.7,0,0,1-1.7-1.7V241.085a1.7,1.7,0,0,1,1.7-1.7h13.584a1.7,1.7,0,0,1,1.7,1.7v10.188A1.7,1.7,0,0,1,329.309,252.971Zm-11.886-3.4h10.189v-6.793H317.423Zm0,0" transform="translate(-235.917 -179.955)" fill="#f8da1b"/>
  <path id="Caminho_22" data-name="Caminho 22" d="M134.421,31.018H56.312a1.7,1.7,0,0,1-1.661-2.056l4.76-22.107A6.986,6.986,0,0,1,66.36.453h58.014a6.986,6.986,0,0,1,6.948,6.4l4.76,22.107a1.7,1.7,0,0,1-1.661,2.056Zm-76.007-3.4h73.9L127.976,7.455a1.714,1.714,0,0,1-.034-.253,3.582,3.582,0,0,0-3.569-3.353H66.36A3.582,3.582,0,0,0,62.792,7.2a1.716,1.716,0,0,1-.035.253Zm0,0" transform="translate(-41.029 -0.453)" fill="#f8da1b"/>
  <path id="Caminho_23" data-name="Caminho 23" d="M186.984,75.869c-4.066,0-7.8-1.433-9.979-3.834a1.7,1.7,0,0,1,2.514-2.284c1.526,1.679,4.387,2.723,7.465,2.723,3.045,0,5.888-1.027,7.422-2.679a1.7,1.7,0,0,1,2.489,2.312c-2.189,2.357-5.894,3.763-9.912,3.763Zm0,0" transform="translate(-132.647 -52.096)" fill="#f8da1b"/>
  <path id="Caminho_24" data-name="Caminho 24" d="M150.152,31.158a3.4,3.4,0,1,1-3.4-3.4A3.4,3.4,0,0,1,150.152,31.158Zm0,0" transform="translate(-107.701 -20.969)" fill="#f8da1b"/>
  <path id="Caminho_25" data-name="Caminho 25" d="M273.031,31.158a3.4,3.4,0,1,1-3.4-3.4A3.4,3.4,0,0,1,273.031,31.158Zm0,0" transform="translate(-200.015 -20.969)" fill="#f8da1b"/>
  <path id="Caminho_26" data-name="Caminho 26" d="M389.049,73.781H377.163a1.7,1.7,0,0,1-1.7-1.7v-8.49a1.7,1.7,0,0,1,1.7-1.7h3.4a10.2,10.2,0,0,1,10.189,10.188,1.7,1.7,0,0,1-1.7,1.7Zm-10.188-3.4h8.275a6.8,6.8,0,0,0-6.578-5.094h-1.7Zm0,0" transform="translate(-282.073 -46.612)" fill="#f8da1b"/>
  <path id="Caminho_27" data-name="Caminho 27" d="M377.163,102.819a1.7,1.7,0,0,1-1.7-1.7v-3.4a1.7,1.7,0,0,1,3.4,0v3.4A1.7,1.7,0,0,1,377.163,102.819Zm0,0" transform="translate(-282.073 -72.254)" fill="#f8da1b"/>
  <path id="Caminho_28" data-name="Caminho 28" d="M13.584,73.781H1.7a1.7,1.7,0,0,1-1.7-1.7A10.2,10.2,0,0,1,10.188,61.895h3.4a1.7,1.7,0,0,1,1.7,1.7v8.49a1.7,1.7,0,0,1-1.7,1.7Zm-9.974-3.4h8.275V65.291h-1.7a6.8,6.8,0,0,0-6.578,5.094Zm0,0" transform="translate(0 -46.612)" fill="#f8da1b"/>
  <path id="Caminho_29" data-name="Caminho 29" d="M49.484,102.819a1.7,1.7,0,0,1-1.7-1.7v-3.4a1.7,1.7,0,0,1,3.4,0v3.4A1.7,1.7,0,0,1,49.484,102.819Zm0,0" transform="translate(-35.899 -72.254)" fill="#f8da1b"/>
  <path id="Caminho_30" data-name="Caminho 30" d="M120.7,215.475H29.005a1.7,1.7,0,0,1,0-3.4H120.7a1.7,1.7,0,1,1,0,3.4Zm0,0" transform="translate(-20.515 -159.439)" fill="#f8da1b"/>
</svg>
