<svg id="experiencias" xmlns="http://www.w3.org/2000/svg" width="108.675" height="101.883" viewBox="0 0 108.675 101.883">
  <path id="Caminho_81" data-name="Caminho 81" d="M307.847,63.556H296.2a1.7,1.7,0,1,1,0-3.4h10.426l.566-1.7H298.3a1.7,1.7,0,1,1,0-3.4h11.246a1.7,1.7,0,0,1,1.612,2.235l-1.7,5.094a1.7,1.7,0,0,1-1.611,1.161Zm0,0" transform="translate(-221.247 -41.482)" fill="#f8da1b"/>
  <path id="Caminho_82" data-name="Caminho 82" d="M15.612,63.556H3.4A1.7,1.7,0,0,1,1.785,62.4L.086,57.3A1.7,1.7,0,0,1,1.7,55.066H13.146a1.7,1.7,0,1,1,0,3.4H4.053l.566,1.7H15.612a1.7,1.7,0,1,1,0,3.4Zm0,0" transform="translate(0 -41.482)" fill="#f8da1b"/>
  <path id="Caminho_83" data-name="Caminho 83" d="M155.846,241.616H138.23a1.7,1.7,0,0,1-1.7-1.7V212.409a1.7,1.7,0,0,1,3.4,0v25.81h15.917a1.7,1.7,0,1,1,0,3.4Zm0,0" transform="translate(-102.571 -158.412)" fill="#f8da1b"/>
  <path id="Caminho_84" data-name="Caminho 84" d="M163.772,17.433H151.885a1.7,1.7,0,0,1-1.7-1.7V8.094a7.641,7.641,0,1,1,15.282,0v7.642a1.7,1.7,0,0,1-1.7,1.7Zm-10.188-3.4h8.49V8.094a4.245,4.245,0,1,0-8.49,0Zm0,0" transform="translate(-112.83 -0.453)" fill="#f8da1b"/>
  <path id="Caminho_85" data-name="Caminho 85" d="M90.841,103.89a1.718,1.718,0,0,1-.609-.113l-20.98-8.069a1.7,1.7,0,0,1-1.088-1.586V68.652H54.579a1.7,1.7,0,0,1-1.519-.939L47.966,57.524a1.7,1.7,0,0,1,1.519-2.457h62.827a1.7,1.7,0,0,1,1.519,2.457l-5.094,10.188a1.7,1.7,0,0,1-1.519.939H93.634v32.265a1.7,1.7,0,0,1-1.125,1.6,1.694,1.694,0,0,1-1.667,1.375ZM71.559,92.957l18.679,7.183V66.953a1.7,1.7,0,0,1,1.7-1.7h14.232l3.4-6.793H52.233l3.4,6.793H69.861a1.7,1.7,0,0,1,1.7,1.7Zm0,0" transform="translate(-35.9 -41.483)" fill="#f8da1b"/>
  <path id="Caminho_86" data-name="Caminho 86" d="M163.84,259.867h3.4v16.98h-3.4Zm0,0" transform="translate(-123.087 -195.341)" fill="#f8da1b"/>
  <path id="Caminho_87" data-name="Caminho 87" d="M184.32,259.867h3.4v16.98h-3.4Zm0,0" transform="translate(-138.473 -195.341)" fill="#f8da1b"/>
  <path id="Caminho_88" data-name="Caminho 88" d="M143.059,329.8H117.752a1.7,1.7,0,0,1-1.7-1.7V323a1.7,1.7,0,0,1,1.7-1.7h22.71a1.7,1.7,0,1,1,0,3.4H119.451v1.7h23.609a1.7,1.7,0,1,1,0,3.4Zm0,0" transform="translate(-87.188 -241.497)" fill="#f8da1b"/>
  <path id="Caminho_89" data-name="Caminho 89" d="M136.327,358.767H97.271a1.7,1.7,0,0,1-1.7-1.7V343.484a1.7,1.7,0,0,1,1.7-1.7h30.4a1.7,1.7,0,1,1,0,3.4H98.97V355.37h35.659V353.1a1.7,1.7,0,0,1,3.4,0v3.965a1.7,1.7,0,0,1-1.7,1.7Zm0,0" transform="translate(-71.801 -256.883)" fill="#f8da1b"/>
  <path id="Caminho_90" data-name="Caminho 90" d="M233.667,235.679a28.867,28.867,0,1,1,28.867-28.867A28.9,28.9,0,0,1,233.667,235.679Zm0-54.337a25.47,25.47,0,1,0,25.471,25.47A25.5,25.5,0,0,0,233.667,181.342Zm0,0" transform="translate(-153.859 -133.796)" fill="#f8da1b"/>
  <path id="Caminho_91" data-name="Caminho 91" d="M289.383,314.8c-4.065,0-7.8-1.433-9.979-3.834a1.7,1.7,0,0,1,2.514-2.284c1.526,1.679,4.387,2.722,7.465,2.722,3.045,0,5.889-1.026,7.422-2.678a1.7,1.7,0,0,1,2.489,2.311c-2.189,2.357-5.893,3.763-9.912,3.763Zm0,0" transform="translate(-209.575 -231.598)" fill="#f8da1b"/>
  <path id="Caminho_92" data-name="Caminho 92" d="M252.55,235.956a3.4,3.4,0,1,1-3.4-3.4A3.4,3.4,0,0,1,252.55,235.956Zm0,0" transform="translate(-184.628 -174.825)" fill="#f8da1b"/>
  <path id="Caminho_93" data-name="Caminho 93" d="M375.432,235.956a3.4,3.4,0,1,1-3.4-3.4A3.4,3.4,0,0,1,375.432,235.956Zm0,0" transform="translate(-276.946 -174.825)" fill="#f8da1b"/>
  <path id="Caminho_94" data-name="Caminho 94" d="M108.882,399.8H42.658a1.7,1.7,0,0,1,0-3.4h66.224a1.7,1.7,0,0,1,0,3.4Zm0,0" transform="translate(-30.772 -297.912)" fill="#f8da1b"/>
</svg>
