<svg xmlns="http://www.w3.org/2000/svg" width="678" height="678" viewBox="0 0 678 678">
  <g id="Agrupar_10" data-name="Agrupar 10" transform="translate(4322 4387)">
    <g id="Elipse_1" data-name="Elipse 1" transform="translate(-4322 -4387)" fill="#fff" stroke="#707070" stroke-width="1">
      <circle cx="339" cy="339" r="339" stroke="none"/>
      <circle cx="339" cy="339" r="338.5" fill="none"/>
    </g>
    <g id="_035-christ-the-redeemer" data-name="035-christ-the-redeemer" transform="translate(-4201 -4253.453)">
      <path id="Caminho_81" data-name="Caminho 81" d="M348.16,89.2H301.328a6.826,6.826,0,1,1,0-13.652h41.914l2.277-6.828H309.773a6.826,6.826,0,1,1,0-13.652h45.211a6.827,6.827,0,0,1,6.48,8.984l-6.828,20.48A6.823,6.823,0,0,1,348.16,89.2Zm0,0" fill="#f8da1b"/>
      <path id="Caminho_82" data-name="Caminho 82" d="M62.766,89.2H13.652a6.824,6.824,0,0,1-6.477-4.664L.348,64.055a6.832,6.832,0,0,1,6.48-8.988H52.851a6.826,6.826,0,1,1,0,13.652H16.3l2.277,6.828H62.766a6.826,6.826,0,1,1,0,13.652Zm0,0" fill="#f8da1b"/>
      <path id="Caminho_83" data-name="Caminho 83" d="M214.18,334.961H143.36a6.828,6.828,0,0,1-6.828-6.828V217.539a6.828,6.828,0,0,1,13.656,0V321.3H214.18a6.828,6.828,0,1,1,0,13.656Zm0,0" fill="#f8da1b"/>
      <path id="Caminho_84" data-name="Caminho 84" d="M204.8,68.719H157.012a6.821,6.821,0,0,1-6.824-6.824V31.172a30.719,30.719,0,1,1,61.438,0V61.895a6.821,6.821,0,0,1-6.824,6.824ZM163.84,55.067h34.133V31.172a17.066,17.066,0,0,0-34.133,0Zm0,0" fill="#f8da1b"/>
      <path id="Caminho_85" data-name="Caminho 85" d="M220.879,251.348a6.909,6.909,0,0,1-2.449-.453l-84.348-32.441a6.824,6.824,0,0,1-4.375-6.375V109.68H75.094a6.821,6.821,0,0,1-6.105-3.773L48.508,64.946a6.828,6.828,0,0,1,6.105-9.879H307.2a6.828,6.828,0,0,1,6.105,9.879l-20.48,40.961a6.821,6.821,0,0,1-6.105,3.773H232.105V239.4a6.828,6.828,0,0,1-4.523,6.426,6.809,6.809,0,0,1-6.7,5.527Zm-77.52-43.953,75.094,28.879V102.852a6.822,6.822,0,0,1,6.828-6.824H282.5l13.652-27.309H65.661L79.313,96.028h57.219a6.822,6.822,0,0,1,6.828,6.824Zm0,0" fill="#f8da1b"/>
      <path id="Caminho_86" data-name="Caminho 86" d="M163.84,259.867h13.652v68.266H163.84Zm0,0" fill="#f8da1b"/>
      <path id="Caminho_87" data-name="Caminho 87" d="M184.32,259.867h13.652v68.266H184.32Zm0,0" fill="#f8da1b"/>
      <path id="Caminho_88" data-name="Caminho 88" d="M224.621,355.441H122.879a6.824,6.824,0,0,1-6.824-6.828v-20.48a6.824,6.824,0,0,1,6.824-6.828h91.3a6.828,6.828,0,0,1,0,13.656H129.707v6.824h94.914a6.828,6.828,0,0,1,0,13.656Zm0,0" fill="#f8da1b"/>
      <path id="Caminho_89" data-name="Caminho 89" d="M259.414,410.055H102.4a6.824,6.824,0,0,1-6.824-6.828V348.614a6.824,6.824,0,0,1,6.824-6.828H224.625a6.828,6.828,0,0,1,0,13.656h-115.4V396.4H252.586v-9.113a6.826,6.826,0,0,1,13.652,0v15.941a6.824,6.824,0,0,1-6.824,6.828Zm0,0" fill="#f8da1b"/>
      <path id="Caminho_90" data-name="Caminho 90" d="M320.852,410.055A116.055,116.055,0,1,1,436.907,294,116.184,116.184,0,0,1,320.852,410.055Zm0-218.453A102.4,102.4,0,1,0,423.254,294,102.511,102.511,0,0,0,320.852,191.6Zm0,0" fill="#f8da1b"/>
      <path id="Caminho_91" data-name="Caminho 91" d="M320.852,334.961c-16.344,0-31.34-5.762-40.117-15.414a6.827,6.827,0,0,1,10.105-9.184c6.137,6.75,17.637,10.941,30.012,10.941,12.242,0,23.676-4.125,29.84-10.766a6.829,6.829,0,0,1,10.008,9.293c-8.8,9.477-23.691,15.129-39.848,15.129Zm0,0" fill="#f8da1b"/>
      <path id="Caminho_92" data-name="Caminho 92" d="M273.066,246.215a13.654,13.654,0,1,1-13.652-13.656,13.653,13.653,0,0,1,13.652,13.656Zm0,0" fill="#f8da1b"/>
      <path id="Caminho_93" data-name="Caminho 93" d="M395.945,246.215a13.652,13.652,0,1,1-13.652-13.656,13.653,13.653,0,0,1,13.652,13.656Zm0,0" fill="#f8da1b"/>
      <path id="Caminho_94" data-name="Caminho 94" d="M314.027,410.055H47.785a6.828,6.828,0,0,1,0-13.656H314.027a6.828,6.828,0,0,1,0,13.656Zm0,0" fill="#f8da1b"/>
    </g>
  </g>
</svg>
