<svg id="hospedagem" xmlns="http://www.w3.org/2000/svg" width="108.675" height="105.279" viewBox="0 0 108.675 105.279">
  <path id="Caminho_63" data-name="Caminho 63" d="M131.265,271.045a28.867,28.867,0,0,1-19.561-50.1,1.7,1.7,0,1,1,2.3,2.5,25.471,25.471,0,1,0,42.729,18.732,25.242,25.242,0,0,0-7.953-18.491,1.7,1.7,0,0,1,2.337-2.464,28.608,28.608,0,0,1,9.013,20.955,28.9,28.9,0,0,1-28.867,28.867Zm0,0" transform="translate(-76.928 -165.766)" fill="#f8da1b"/>
  <path id="Caminho_64" data-name="Caminho 64" d="M178.18,304.684c0,5.144,4.523,9.314,10.1,9.314s10.1-4.17,10.1-9.314S178.18,299.538,178.18,304.684Zm10.1,6.329c-3.052,0-5.526-1.141-5.526-2.547s2.474-2.547,5.526-2.547,5.526,1.141,5.526,2.547S191.335,311.013,188.283,311.013Zm0,0" transform="translate(-133.86 -226.111)" fill="#f8da1b"/>
  <path id="Caminho_65" data-name="Caminho 65" d="M150.152,249.611a3.4,3.4,0,1,1-3.4-3.4A3.4,3.4,0,0,1,150.152,249.611Zm0,0" transform="translate(-107.701 -185.085)" fill="#f8da1b"/>
  <path id="Caminho_66" data-name="Caminho 66" d="M273.031,249.611a3.4,3.4,0,1,1-3.4-3.4A3.4,3.4,0,0,1,273.031,249.611Zm0,0" transform="translate(-200.015 -185.085)" fill="#f8da1b"/>
  <path id="Caminho_67" data-name="Caminho 67" d="M103.581,83.829H5.095A5.1,5.1,0,0,1,0,78.735V39.68a5.1,5.1,0,0,1,5.094-5.094H43.729a1.7,1.7,0,1,1,0,3.4H5.095a1.7,1.7,0,0,0-1.7,1.7V78.735a1.7,1.7,0,0,0,1.7,1.7h98.486a1.7,1.7,0,0,0,1.7-1.7V39.68a1.7,1.7,0,0,0-1.7-1.7H65.213a1.7,1.7,0,0,1,0-3.4h38.368a5.1,5.1,0,0,1,5.094,5.094V78.735A5.1,5.1,0,0,1,103.581,83.829Zm0,0" transform="translate(0 -26.096)" fill="#f8da1b"/>
  <path id="Caminho_68" data-name="Caminho 68" d="M120.7,97.553H29.005a1.7,1.7,0,0,1-1.7-1.7V63.592a1.7,1.7,0,0,1,1.7-1.7H63.655a1.7,1.7,0,1,1,0,3.4H30.7V94.158H119V65.29H85.728a1.7,1.7,0,0,1,0-3.4H120.7a1.7,1.7,0,0,1,1.7,1.7V95.855a1.7,1.7,0,0,1-1.7,1.7Zm0,0" transform="translate(-20.515 -46.612)" fill="#f8da1b"/>
  <path id="Caminho_69" data-name="Caminho 69" d="M189.347,29.32a5.1,5.1,0,0,1-5.094-5.094V19.132h-3.4v5.094a5.094,5.094,0,1,1-10.188,0V5.547a5.094,5.094,0,1,1,10.188,0v3.4h3.4v-3.4a5.094,5.094,0,1,1,10.188,0V24.226A5.1,5.1,0,0,1,189.347,29.32ZM179.158,15.736h6.792a1.7,1.7,0,0,1,1.7,1.7v6.793a1.7,1.7,0,0,0,3.4,0V5.547a1.7,1.7,0,1,0-3.4,0v5.094a1.7,1.7,0,0,1-1.7,1.7h-6.792a1.7,1.7,0,0,1-1.7-1.7V5.547a1.7,1.7,0,1,0-3.4,0V24.226a1.7,1.7,0,0,0,3.4,0V17.433a1.7,1.7,0,0,1,1.7-1.7Zm0,0" transform="translate(-128.217 -0.453)" fill="#f8da1b"/>
  <path id="Caminho_70" data-name="Caminho 70" d="M60.419,110.5l1.173,3.61a1.184,1.184,0,0,0,1.126.818h3.794a1.184,1.184,0,0,1,.7,2.142l-3.07,2.231a1.186,1.186,0,0,0-.43,1.324l1.173,3.609a1.184,1.184,0,0,1-1.823,1.324l-3.069-2.23a1.183,1.183,0,0,0-1.392,0l-3.069,2.23a1.185,1.185,0,0,1-1.824-1.324l1.173-3.609a1.184,1.184,0,0,0-.43-1.324l-3.069-2.231a1.184,1.184,0,0,1,.7-2.142h3.794a1.184,1.184,0,0,0,1.127-.818l1.173-3.61a1.185,1.185,0,0,1,2.253,0Zm0,0" transform="translate(-38.229 -82.51)" fill="#f8da1b"/>
  <path id="Caminho_71" data-name="Caminho 71" d="M152.628,119.6l1.006,3.095a1.015,1.015,0,0,0,.966.7h3.254a1.016,1.016,0,0,1,.6,1.838l-2.632,1.912a1.015,1.015,0,0,0-.369,1.136l1.006,3.095a1.016,1.016,0,0,1-1.563,1.136L152.26,130.6a1.016,1.016,0,0,0-1.194,0l-2.632,1.913a1.016,1.016,0,0,1-1.563-1.136l1.006-3.095a1.015,1.015,0,0,0-.369-1.136l-2.632-1.912a1.016,1.016,0,0,1,.6-1.838h3.254a1.016,1.016,0,0,0,.966-.7L150.7,119.6a1.015,1.015,0,0,1,1.931,0Zm0,0" transform="translate(-108.523 -89.439)" fill="#f8da1b"/>
  <path id="Caminho_72" data-name="Caminho 72" d="M241.375,119.6l1.006,3.095a1.015,1.015,0,0,0,.966.7H246.6a1.016,1.016,0,0,1,.6,1.838l-2.632,1.912a1.015,1.015,0,0,0-.369,1.136l1.006,3.095a1.016,1.016,0,0,1-1.563,1.136l-2.632-1.913a1.016,1.016,0,0,0-1.194,0l-2.632,1.913a1.016,1.016,0,0,1-1.563-1.136l1.006-3.095a1.016,1.016,0,0,0-.368-1.136l-2.633-1.912a1.016,1.016,0,0,1,.6-1.838h3.254a1.016,1.016,0,0,0,.966-.7l1.006-3.095a1.015,1.015,0,0,1,1.931,0Zm0,0" transform="translate(-175.195 -89.439)" fill="#f8da1b"/>
  <path id="Caminho_73" data-name="Caminho 73" d="M326.66,110.5l1.173,3.61a1.184,1.184,0,0,0,1.127.818h3.794a1.184,1.184,0,0,1,.7,2.142L330.38,119.3a1.186,1.186,0,0,0-.43,1.324l1.173,3.609a1.185,1.185,0,0,1-1.823,1.324l-3.07-2.23a1.183,1.183,0,0,0-1.392,0l-3.069,2.23a1.184,1.184,0,0,1-1.823-1.324l1.173-3.609a1.186,1.186,0,0,0-.43-1.324l-3.07-2.231a1.184,1.184,0,0,1,.7-2.142h3.794a1.184,1.184,0,0,0,1.126-.818l1.173-3.61a1.185,1.185,0,0,1,2.253,0Zm0,0" transform="translate(-238.246 -82.51)" fill="#f8da1b"/>
</svg>
