<svg id="ingressos" xmlns="http://www.w3.org/2000/svg" width="84.896" height="95.09" viewBox="0 0 84.896 95.09">
  <path id="Caminho_74" data-name="Caminho 74" d="M274.6,127.246a1.7,1.7,0,0,1-1.3-2.791,2.114,2.114,0,0,0,.465-.99l12.754-68.858A2.157,2.157,0,0,0,284.8,52.1l-10.376-1.922a1.7,1.7,0,0,1,.619-3.339l10.376,1.921a5.559,5.559,0,0,1,4.447,6.467l-12.754,68.859a5.533,5.533,0,0,1-1.207,2.558,1.7,1.7,0,0,1-1.3.605Zm0,0" transform="translate(-205.061 -35.162)" fill="#f8da1b"/>
  <path id="Caminho_75" data-name="Caminho 75" d="M65.916,95.09H5.7a5.555,5.555,0,0,1-5.55-5.55V5.55A5.556,5.556,0,0,1,5.7,0H65.916a5.556,5.556,0,0,1,5.55,5.55V89.54A5.556,5.556,0,0,1,65.916,95.09ZM5.7,3.4A2.156,2.156,0,0,0,3.544,5.55V89.54A2.156,2.156,0,0,0,5.7,91.694H65.916A2.156,2.156,0,0,0,68.07,89.54V5.55A2.156,2.156,0,0,0,65.916,3.4Zm0,0" transform="translate(-0.148)" fill="#f8da1b"/>
  <path id="Caminho_76" data-name="Caminho 76" d="M93.781,213.255H49.632a1.7,1.7,0,0,1-1.7-1.7v-5.529c0-4.747,5.251-8.056,9.964-8.056h5.639a1.7,1.7,0,1,1,0,3.4H57.9c-3.315,0-6.568,2.309-6.568,4.66v3.831H92.083V205.3c0-1.985-2.832-3.932-5.718-3.932H79.6a1.7,1.7,0,1,1,0-3.4h6.767c4.311,0,9.114,3.01,9.114,7.328v6.256a1.7,1.7,0,0,1-1.7,1.7Zm0,0" transform="translate(-36.048 -148.729)" fill="#f8da1b"/>
  <path id="Caminho_77" data-name="Caminho 77" d="M104.959,74.106q-.07,0-.14-.006a1.7,1.7,0,0,1-1.554-1.832l.849-10.364c-.006-5.85-4.531-10.722-10.091-10.722h-8.7c-5.562,0-10.086,4.872-10.086,10.861l.843,10.225a1.7,1.7,0,1,1-3.384.278l-.849-10.363c-.006-8,6.042-14.4,13.476-14.4h8.7c7.434,0,13.481,6.4,13.481,14.258l-.855,10.5a1.7,1.7,0,0,1-1.691,1.559Zm0,0" transform="translate(-54.016 -35.9)" fill="#f8da1b"/>
  <path id="Caminho_78" data-name="Caminho 78" d="M92.22,126.906c-4.9,0-9.345-1.813-11.895-4.85a21.776,21.776,0,0,1-5.086-13.05v-6.844c0-2.887.066-4.557,1.409-5.3,1.2-.67,2.332.05,3.331.676a11.481,11.481,0,0,0,6.611,2.1,39.375,39.375,0,0,0,8.9-1.59c4.971-1.264,9.261-2.351,11.855-.337a5.307,5.307,0,0,1,1.853,4.448v6.843a21.776,21.776,0,0,1-5.086,13.05c-2.549,3.037-7,4.85-11.894,4.85ZM78.654,100.717c-.011.38-.018.852-.018,1.444v6.844a18.462,18.462,0,0,0,4.292,10.868c1.883,2.243,5.443,3.637,9.293,3.637s7.409-1.393,9.292-3.637a18.463,18.463,0,0,0,4.293-10.868v-6.844a2.193,2.193,0,0,0-.542-1.765c-1.283-1-5.347.038-8.933.946a41.633,41.633,0,0,1-9.74,1.695,14.59,14.59,0,0,1-7.935-2.319Zm0,0" transform="translate(-56.561 -72.568)" fill="#f8da1b"/>
  <path id="Caminho_79" data-name="Caminho 79" d="M98.943,303.771H63.284a1.7,1.7,0,1,1,0-3.4H98.943a1.7,1.7,0,1,1,0,3.4Zm0,0" transform="translate(-46.304 -225.66)" fill="#f8da1b"/>
  <path id="Caminho_80" data-name="Caminho 80" d="M81.963,331.076H63.284a1.7,1.7,0,1,1,0-3.4H81.963a1.7,1.7,0,0,1,0,3.4Zm0,0" transform="translate(-46.304 -246.174)" fill="#f8da1b"/>
</svg>
