<svg id="passagens" xmlns="http://www.w3.org/2000/svg" width="98.487" height="105.196" viewBox="0 0 98.487 105.196">
  <path id="Caminho_52" data-name="Caminho 52" d="M167.646,209.089a1.8,1.8,0,0,1-.3-.025,1.7,1.7,0,0,1-1.379-1.967,29.081,29.081,0,0,1,17.491-21.7,1.7,1.7,0,1,1,1.288,3.14,25.664,25.664,0,0,0-15.434,19.148,1.7,1.7,0,0,1-1.671,1.4Zm0,0" transform="translate(-124.784 -139.184)" fill="#f8da1b"/>
  <path id="Caminho_53" data-name="Caminho 53" d="M193.543,234.911a28.737,28.737,0,0,1-28.735-26.089,1.7,1.7,0,0,1,1.528-1.85,1.671,1.671,0,0,1,1.853,1.529A25.471,25.471,0,1,0,194.06,180.58a1.7,1.7,0,1,1,.068-3.4,28.867,28.867,0,0,1-.585,57.727Zm0,0" transform="translate(-123.923 -133.112)" fill="#f8da1b"/>
  <path id="Caminho_54" data-name="Caminho 54" d="M53.1,79.726a1.677,1.677,0,0,1-.537-.087l-15.02-5.007H34.7l-15.02,5.007a1.7,1.7,0,0,1-2.235-1.61v-3.4a1.7,1.7,0,0,1,.873-1.484l9.316-5.175V46.629L3.647,50.821a2.624,2.624,0,0,1-2.14-.589A3,3,0,0,1,.461,47.919V44.5a2.958,2.958,0,0,1,1.455-2.6L27.63,27.294V16.368a9.017,9.017,0,0,1,.7-3.52L32.816,2.394a3.477,3.477,0,0,1,6.608,0l4.482,10.455a9.012,9.012,0,0,1,.7,3.519V27.294L70.323,41.9a2.962,2.962,0,0,1,1.454,2.6v3.42a3,3,0,0,1-1.046,2.312,2.613,2.613,0,0,1-2.138.589L44.61,46.629V67.973l9.315,5.175a1.7,1.7,0,0,1,.873,1.484v3.4a1.7,1.7,0,0,1-1.7,1.7Zm-18.679-8.49h3.4a1.692,1.692,0,0,1,.537.088L51.4,75.672v-.04l-9.315-5.176a1.7,1.7,0,0,1-.873-1.484V44.608A1.7,1.7,0,0,1,43.2,42.935l25.176,4.4V44.706L42.073,29.759a1.7,1.7,0,0,1-.859-1.476V16.368a5.583,5.583,0,0,0-.428-2.18L36.3,3.73a.926.926,0,0,0-.211-.324c.009.04-.076.138-.154.324L31.454,14.185a5.6,5.6,0,0,0-.428,2.182V28.283a1.7,1.7,0,0,1-.859,1.476L3.857,44.705v2.632l25.178-4.4a1.7,1.7,0,0,1,1.992,1.673V68.972a1.7,1.7,0,0,1-.873,1.484l-9.316,5.216,13.047-4.348a1.688,1.688,0,0,1,.537-.088ZM68.646,44.858h0Zm0,0h0Zm0,0" transform="translate(-0.461 0)" fill="#f8da1b"/>
  <path id="Caminho_55" data-name="Caminho 55" d="M248.884,314.017c-4.066,0-7.8-1.433-9.979-3.834a1.7,1.7,0,1,1,2.514-2.285c1.525,1.68,4.386,2.723,7.464,2.723,3.045,0,5.888-1.027,7.422-2.679a1.7,1.7,0,0,1,2.489,2.311c-2.189,2.356-5.893,3.763-9.911,3.763Zm0,0" transform="translate(-179.264 -230.895)" fill="#f8da1b"/>
  <path id="Caminho_56" data-name="Caminho 56" d="M212.053,235.17a3.4,3.4,0,1,1-3.4-3.4A3.4,3.4,0,0,1,212.053,235.17Zm0,0" transform="translate(-154.32 -174.123)" fill="#f8da1b"/>
  <path id="Caminho_57" data-name="Caminho 57" d="M334.932,235.17a3.4,3.4,0,1,1-3.4-3.4A3.4,3.4,0,0,1,334.932,235.17Zm0,0" transform="translate(-246.634 -174.123)" fill="#f8da1b"/>
  <path id="Caminho_58" data-name="Caminho 58" d="M90.905,344.363a1.7,1.7,0,0,1-1.7-1.7v-6.793a1.7,1.7,0,0,1,3.4,0v6.793A1.7,1.7,0,0,1,90.905,344.363Zm0,0" transform="translate(-67.133 -251.054)" fill="#f8da1b"/>
  <path id="Caminho_59" data-name="Caminho 59" d="M172.823,340.932a1.7,1.7,0,0,1-1.7-1.7V329.046a1.7,1.7,0,0,1,3.4,0v10.188A1.7,1.7,0,0,1,172.823,340.932Zm0,0" transform="translate(-128.674 -245.924)" fill="#f8da1b"/>
  <path id="Caminho_60" data-name="Caminho 60" d="M118.21,325.581a1.7,1.7,0,0,1-1.7-1.7v-8.49a1.7,1.7,0,0,1,3.4,0v8.49a1.7,1.7,0,0,1-1.7,1.7Zm0,0" transform="translate(-87.646 -235.667)" fill="#f8da1b"/>
  <path id="Caminho_61" data-name="Caminho 61" d="M118.21,381.925a1.7,1.7,0,0,1-1.7-1.7v-3.4a1.7,1.7,0,0,1,3.4,0v3.4a1.7,1.7,0,0,1-1.7,1.7Zm0,0" transform="translate(-87.646 -281.823)" fill="#f8da1b"/>
  <path id="Caminho_62" data-name="Caminho 62" d="M145.518,345.991a1.7,1.7,0,0,1-1.7-1.7V322.218a1.7,1.7,0,1,1,3.4,0v22.074A1.7,1.7,0,0,1,145.518,345.991Zm0,0" transform="translate(-108.161 -240.795)" fill="#f8da1b"/>
</svg>
