<svg height="430pt" viewBox="-65 0 430 430.08" width="430pt" xmlns="http://www.w3.org/2000/svg"><path d="m116.085938 368.640625c-3.058594 0-5.839844-2.066406-6.613282-5.171875l-13.652344-54.613281c-.921874-3.65625 1.308594-7.359375 4.964844-8.277344 3.640625-.933594 7.359375 1.308594 8.273438 4.96875l13.65625 54.613281c.917968 3.652344-1.308594 7.359375-4.96875 8.273438-.550782.140625-1.113282.207031-1.660156.207031zm0 0"/><path d="m184.367188 368.640625c-.546876 0-1.105469-.066406-1.660157-.207031-3.660156-.914063-5.886719-4.621094-4.96875-8.273438l13.65625-54.613281c.90625-3.660156 4.617188-5.90625 8.273438-4.96875 3.660156.914063 5.886719 4.621094 4.964843 8.277344l-13.652343 54.613281c-.773438 3.105469-3.554688 5.171875-6.613281 5.171875zm0 0"/><path d="m231.625 314.027344h-162.800781c-1.910157 0-3.734375-.800782-5.023438-2.207032-38.140625-41.519531-63.7617185-105.140624-63.7617185-158.300781 0-84.652343 67.3749995-153.519531 150.1874995-153.519531s150.1875 68.867188 150.1875 153.519531c0 53.160157-25.621093 116.78125-63.761718 158.300781-1.292969 1.40625-3.113282 2.207032-5.027344 2.207032zm-159.765625-13.652344h156.734375c34.351562-38.667969 58.167969-98.582031 58.167969-146.855469 0-77.117187-61.25-139.867187-136.535157-139.867187-75.285156 0-136.535156 62.75-136.535156 139.867187 0 48.273438 23.816406 108.1875 58.167969 146.855469zm0 0"/><path d="m192.867188 314.027344h-85.28125c-2.621094 0-5.015626-1.5-6.152344-3.867188-19.8125-41.1875-33.125-104.132812-33.125-156.640625 0-86.085937 35.984375-153.519531 81.917968-153.519531 45.933594 0 81.921876 67.433594 81.921876 153.519531 0 52.507813-13.316407 115.453125-33.128907 156.640625-1.140625 2.367188-3.53125 3.867188-6.152343 3.867188zm-80.933594-13.652344h76.585937c17.742188-39.046875 29.972657-98.628906 29.972657-146.855469 0-75.8125-31.257813-139.867187-68.265626-139.867187-37.007812 0-68.265624 64.054687-68.265624 139.867187 0 48.226563 12.234374 107.808594 29.972656 146.855469zm0 0"/><path d="m170.707031 225.28125c0-18.851562-9.167969-34.132812-20.480469-34.132812s-20.480468 15.28125-20.480468 34.132812 9.167968 34.132812 20.480468 34.132812 20.480469-15.28125 20.480469-34.132812zm0 0"/><path d="m54.652344 150.1875c0 7.539062-6.113282 13.652344-13.652344 13.652344s-13.652344-6.113282-13.652344-13.652344c0-7.542969 6.113282-13.652344 13.652344-13.652344s13.652344 6.109375 13.652344 13.652344zm0 0"/><path d="m273.105469 150.1875c0 7.539062-6.113281 13.652344-13.652344 13.652344s-13.652344-6.113282-13.652344-13.652344c0-7.542969 6.113281-13.652344 13.652344-13.652344s13.652344 6.109375 13.652344 13.652344zm0 0"/><path d="m184.359375 430.078125h-68.265625c-3.480469 0-6.402344-2.609375-6.789062-6.070313l-6.824219-61.441406c-.214844-1.925781.40625-3.859375 1.699219-5.304687 1.292968-1.449219 3.148437-2.273438 5.085937-2.273438h81.921875c1.941406 0 3.792969.824219 5.085938 2.273438 1.292968 1.445312 1.914062 3.378906 1.699218 5.304687l-6.828125 61.441406c-.382812 3.460938-3.304687 6.070313-6.785156 6.070313zm-62.152344-13.652344h56.039063l5.3125-47.785156h-66.664063zm0 0"/><path d="m204.839844 368.640625h-109.226563c-3.773437 0-6.828125-3.054687-6.828125-6.828125s3.054688-6.824219 6.828125-6.824219h109.226563c3.773437 0 6.828125 3.050781 6.828125 6.824219s-3.054688 6.828125-6.828125 6.828125zm0 0"/></svg>