<svg height="436pt" viewBox="0 -37 436.90667 436" width="436pt" xmlns="http://www.w3.org/2000/svg"><path d="m307.199219 68.71875h-273.066407c-18.820312 0-34.132812-15.3125-34.132812-34.132812v-6.824219h6.828125c16.507813 0 32.5-4.84375 46.238281-14l19.960938-13.308594h195.28125l19.957031 13.308594c13.742187 9.15625 29.730469 14 46.242187 14h6.824219v6.824219c0 18.820312-15.3125 34.132812-34.132812 34.132812zm-292.484375-27.625c2.726562 8.113281 10.402344 13.972656 19.417968 13.972656h273.066407c9.015625 0 16.695312-5.859375 19.421875-13.972656-16.394532-1.328125-32.132813-6.78125-45.925782-15.972656l-16.523437-11.015625h-187.011719l-16.519531 11.015625c-13.792969 9.191406-29.535156 14.644531-45.925781 15.972656zm0 0"/><path d="m279.359375 150.640625h-245.226563c-18.820312 0-34.132812-15.316406-34.132812-34.132813v-6.828124h6.828125c16.507813 0 32.5-4.839844 46.238281-14l19.960938-13.304688h195.28125l19.957031 13.304688c13.742187 9.160156 29.730469 14 46.242187 14h6.824219v6.828124c0 9.796876-4.21875 19.140626-11.578125 25.621094l-9.027344-10.242187c2.738282-2.414063 4.753907-5.488281 5.890626-8.871094-16.394532-1.328125-32.128907-6.78125-45.921876-15.972656l-16.523437-11.015625h-187.011719l-16.519531 11.015625c-13.792969 9.191406-29.535156 14.644531-45.925781 15.972656 2.726562 8.109375 10.402344 13.972656 19.417968 13.972656h245.226563zm0 0"/><path d="m266.238281 96.027344h-191.144531c-3.769531 0-6.828125-3.054688-6.828125-6.828125v-27.304688c0-3.773437 3.058594-6.828125 6.828125-6.828125h191.144531c3.773438 0 6.828125 3.054688 6.828125 6.828125v27.304688c0 3.773437-3.054687 6.828125-6.828125 6.828125zm-184.316406-13.652344h177.492187v-13.65625h-177.492187zm0 0"/><path d="m211.625 225.734375h-157.011719c-3.769531 0-6.828125-3.054687-6.828125-6.828125v-75.09375c0-3.773438 3.058594-6.824219 6.828125-6.824219h225.28125c3.769531 0 6.824219 3.050781 6.824219 6.824219s-3.054688 6.828125-6.824219 6.828125h-218.453125v61.4375h150.183594c3.773438 0 6.828125 3.054687 6.828125 6.828125s-3.054687 6.828125-6.828125 6.828125zm0 0"/><path d="m191.148438 225.734375h-40.960938c-3.769531 0-6.828125-3.054687-6.828125-6.828125v-54.613281c0-3.773438 3.058594-6.828125 6.828125-6.828125h40.960938c3.769531 0 6.824218 3.054687 6.824218 6.828125v54.613281c0 3.773438-3.054687 6.828125-6.824218 6.828125zm-34.136719-13.65625h27.308593v-40.957031h-27.308593zm0 0"/><path d="m245.761719 171.121094h-191.148438c-3.769531 0-6.828125-3.054688-6.828125-6.828125 0-3.773438 3.058594-6.828125 6.828125-6.828125h191.148438c3.769531 0 6.824219 3.054687 6.824219 6.828125 0 3.773437-3.054688 6.828125-6.824219 6.828125zm0 0"/><path d="m81.921875 184.773438h13.652344v13.652343h-13.652344zm0 0"/><path d="m116.054688 184.773438h13.652343v13.652343h-13.652343zm0 0"/><path d="m211.625 184.773438h13.65625v13.652343h-13.65625zm0 0"/><path d="m208.46875 246.214844h-181.160156c-3.773438 0-6.828125-3.054688-6.828125-6.828125v-20.480469c0-3.773438 3.054687-6.828125 6.828125-6.828125h184.316406c3.773438 0 6.828125 3.054687 6.828125 6.828125s-3.054687 6.828125-6.828125 6.828125h-177.492188v6.824219h174.335938c3.769531 0 6.828125 3.054687 6.828125 6.828125 0 3.773437-3.058594 6.828125-6.828125 6.828125zm0 0"/><path d="m211.625 266.691406h-204.796875c-3.773437 0-6.828125-3.050781-6.828125-6.824218v-20.480469c0-3.773438 3.054688-6.828125 6.828125-6.828125h201.648437c3.769532 0 6.828126 3.054687 6.828126 6.828125 0 3.773437-3.058594 6.828125-6.828126 6.828125h-194.824218v6.824218h197.972656c3.769531 0 6.824219 3.054688 6.824219 6.828126 0 3.773437-3.054688 6.824218-6.824219 6.824218zm0 0"/><path d="m0 218.90625h13.652344v27.308594h-13.652344zm0 0"/><path d="m20.480469 198.425781h13.652343v20.480469h-13.652343zm0 0"/><path d="m320.851562 362.265625c-63.992187 0-116.050781-52.058594-116.050781-116.050781 0-63.996094 52.058594-116.054688 116.050781-116.054688 63.996094 0 116.054688 52.058594 116.054688 116.054688 0 63.992187-52.058594 116.050781-116.054688 116.050781zm0-218.453125c-56.460937 0-102.398437 45.933594-102.398437 102.402344 0 56.464844 45.9375 102.398437 102.398437 102.398437 56.464844 0 102.402344-45.933593 102.402344-102.398437 0-56.46875-45.9375-102.402344-102.402344-102.402344zm0 0"/><path d="m320.851562 287.171875c-16.34375 0-31.339843-5.757813-40.113281-15.410156-2.535156-2.796875-2.328125-7.109375.460938-9.648438 2.785156-2.53125 7.101562-2.316406 9.640625.460938 6.136718 6.753906 17.636718 10.945312 30.011718 10.945312 12.242188 0 23.675782-4.125 29.839844-10.765625 2.570313-2.761718 6.886719-2.914062 9.652344-.355468 2.761719 2.566406 2.917969 6.886718.355469 9.648437-8.800781 9.472656-23.691407 15.125-39.847657 15.125zm0 0"/><path d="m273.066406 198.425781c0 7.542969-6.113281 13.652344-13.652344 13.652344-7.542968 0-13.652343-6.109375-13.652343-13.652344 0-7.539062 6.109375-13.652343 13.652343-13.652343 7.539063 0 13.652344 6.113281 13.652344 13.652343zm0 0"/><path d="m395.945312 198.425781c0 7.542969-6.113281 13.652344-13.652343 13.652344-7.539063 0-13.652344-6.109375-13.652344-13.652344 0-7.539062 6.113281-13.652343 13.652344-13.652343 7.539062 0 13.652343 6.113281 13.652343 13.652343zm0 0"/><path d="m320.851562 362.265625h-129.703124c-3.773438 0-6.828126-3.050781-6.828126-6.824219 0-3.773437 3.054688-6.828125 6.828126-6.828125h129.703124c3.773438 0 6.828126 3.054688 6.828126 6.828125 0 3.773438-3.054688 6.824219-6.828126 6.824219zm0 0"/></svg>