<svg height="436pt" viewBox="-4 0 436 436.90667" width="436pt" xmlns="http://www.w3.org/2000/svg"><path d="m421.722656 436.90625h-375.464844c-3.769531 0-6.828124-3.054688-6.828124-6.828125 0-52.699219 42.875-95.570313 95.574218-95.570313h52.425782c3.773437 0 6.828124 3.050782 6.828124 6.824219 0 3.773438-3.054687 6.828125-6.828124 6.828125h-52.425782c-42.871094 0-78.15625 33.105469-81.636718 75.09375h361.53125v-75.09375h-17.667969c-3.769531 0-6.828125-3.054687-6.828125-6.828125 0-3.773437 3.058594-6.824219 6.828125-6.824219h24.492187c3.773438 0 6.828125 3.050782 6.828125 6.824219v88.746094c0 3.773437-3.054687 6.828125-6.828125 6.828125zm0 0"/><path d="m292.015625 416.425781c-63.992187 0-116.050781-52.058593-116.050781-116.050781 0-63.996094 52.058594-116.054688 116.050781-116.054688 63.996094 0 116.054687 52.058594 116.054687 116.054688 0 63.992188-52.058593 116.050781-116.054687 116.050781zm0-218.453125c-56.460937 0-102.398437 45.933594-102.398437 102.402344 0 56.464844 45.9375 102.398438 102.398437 102.398438 56.464844 0 102.402344-45.933594 102.402344-102.398438 0-56.46875-45.9375-102.402344-102.402344-102.402344zm0 0"/><path d="m292.015625 341.332031c-16.34375 0-31.339844-5.757812-40.113281-15.410156-2.535156-2.796875-2.328125-7.109375.460937-9.648437 2.785157-2.53125 7.097657-2.324219 9.640625.460937 6.136719 6.753906 17.636719 10.949219 30.011719 10.949219 12.242187 0 23.671875-4.128906 29.839844-10.769532 2.574219-2.765624 6.882812-2.917968 9.648437-.351562s2.921875 6.886719.355469 9.644531c-8.792969 9.472657-23.6875 15.125-39.84375 15.125zm0 0"/><path d="m244.230469 252.585938c0 7.542968-6.113281 13.652343-13.652344 13.652343-7.542969 0-13.652344-6.109375-13.652344-13.652343 0-7.539063 6.109375-13.652344 13.652344-13.652344 7.539063 0 13.652344 6.113281 13.652344 13.652344zm0 0"/><path d="m367.109375 252.585938c0 7.542968-6.113281 13.652343-13.652344 13.652343-7.539062 0-13.652343-6.109375-13.652343-13.652343 0-7.539063 6.113281-13.652344 13.652343-13.652344 7.539063 0 13.652344 6.113281 13.652344 13.652344zm0 0"/><path d="m162.3125 348.160156h-27.308594c-3.769531 0-6.828125-3.054687-6.828125-6.828125v-170.660156c0-3.773437 3.058594-6.824219 6.828125-6.824219 3.769532 0 6.828125 3.050782 6.828125 6.824219v163.835937h13.652344v-177.488281c0-3.773437 3.054687-6.824219 6.828125-6.824219 3.769531 0 6.824219 3.050782 6.824219 6.824219v184.3125c0 3.773438-3.054688 6.828125-6.824219 6.828125zm0 0"/><path d="m162.3125 191.148438h-27.308594c-3.769531 0-6.828125-3.054688-6.828125-6.828126 0-3.773437 3.058594-6.828124 6.828125-6.828124h27.308594c3.769531 0 6.824219 3.054687 6.824219 6.828124 0 3.773438-3.054688 6.828126-6.824219 6.828126zm0 0"/><path d="m162.3125 218.453125h-27.308594c-3.769531 0-6.828125-3.054687-6.828125-6.828125s3.058594-6.824219 6.828125-6.824219h27.308594c3.769531 0 6.824219 3.050781 6.824219 6.824219s-3.054688 6.828125-6.824219 6.828125zm0 0"/><path d="m162.3125 245.761719h-27.308594c-3.769531 0-6.828125-3.054688-6.828125-6.828125 0-3.773438 3.058594-6.828125 6.828125-6.828125h27.308594c3.769531 0 6.824219 3.054687 6.824219 6.828125 0 3.773437-3.054688 6.828125-6.824219 6.828125zm0 0"/><path d="m162.3125 273.066406h-27.308594c-3.769531 0-6.828125-3.054687-6.828125-6.828125 0-3.773437 3.058594-6.824219 6.828125-6.824219h27.308594c3.769531 0 6.824219 3.050782 6.824219 6.824219 0 3.773438-3.054688 6.828125-6.824219 6.828125zm0 0"/><path d="m62.167969 59.558594c-.277344 0-.5625-.011719-.847657-.050782-16.84375-2.074218-56.023437-9.042968-56.023437-28.789062 0-21.105469 46.003906-30.71875 88.746094-30.71875 20.769531 0 40.78125 2.238281 56.351562 6.304688 3.648438.957031 5.832031 4.6875 4.875 8.335937-.949219 3.640625-4.65625 5.78125-8.328125 4.878906-14.472656-3.785156-33.261718-5.867187-52.898437-5.867187-48.777344 0-75.09375 12.113281-75.09375 17.066406 0 2.160156 10.546875 11.109375 44.046875 15.242188 3.738281.460937 6.398437 3.867187 5.9375 7.605468-.425782 3.460938-3.367188 5.992188-6.765625 5.992188zm0 0"/><path d="m237.808594 59.21875c-3.359375 0-6.289063-2.484375-6.753906-5.90625-.507813-3.738281 2.109374-7.179688 5.84375-7.6875 31.261718-4.238281 41.46875-12.527344 41.46875-14.90625 0-4.953125-26.316407-17.066406-75.09375-17.066406-17.847657 0-35.308594 1.761718-49.171876 4.953125-3.683593.859375-7.332031-1.441407-8.1875-5.121094-.847656-3.671875 1.449219-7.339844 5.121094-8.183594 15.050782-3.46875 33.117188-5.300781 52.234375-5.300781 42.746094 0 88.746094 9.613281 88.746094 30.71875 0 18.449219-33.382813 25.734375-53.277344 28.441406-.3125.039063-.625.058594-.929687.058594zm0 0"/><path d="m162.3125 300.375h-27.308594c-3.769531 0-6.828125-3.054688-6.828125-6.828125s3.058594-6.828125 6.828125-6.828125h27.308594c3.769531 0 6.824219 3.054688 6.824219 6.828125s-3.054688 6.828125-6.824219 6.828125zm0 0"/><path d="m277.980469 160.554688c-13.644531 0-31.773438-6.035157-52.480469-17.847657-3.273438-1.867187-4.414062-6.035156-2.546875-9.308593 1.867187-3.277344 6.023437-4.433594 9.3125-2.542969 29.765625 16.976562 50.730469 19.285156 56.058594 12.753906 7.601562-9.316406-8.957031-44.476563-53.191407-80.582031-30.328124-24.753906-63.996093-40.855469-81.917968-39.171875-3.820313.476562-7.082032-2.402344-7.4375-6.148438-.355469-3.761719 2.398437-7.085937 6.152344-7.441406 21.804687-2.050781 57.90625 14.488281 91.835937 42.1875 39.738281 32.433594 72.570313 78.425781 55.136719 99.789063-4.546875 5.566406-11.714844 8.3125-20.921875 8.3125zm0 0"/><path d="m26.15625 160.554688c-9.207031 0-16.371094-2.746094-20.910156-8.308594-17.433594-21.367188 15.394531-67.359375 55.132812-99.792969 32.066406-26.175781 66.871094-42.945313 88.871094-42.359375 3.769531.078125 6.765625 3.191406 6.6875 6.964844-.078125 3.722656-3.117188 6.6875-6.824219 6.6875-.253906-.007813-.53125-.007813-.800781-.007813-18.671875 0-50.394531 15.695313-79.300781 39.289063-44.234375 36.105468-60.792969 71.265625-53.191407 80.585937 5.3125 6.511719 26.265626 4.214844 56.035157-12.746093 3.265625-1.878907 7.441406-.726563 9.308593 2.554687 1.867188 3.273437.726563 7.445313-2.550781 9.3125-20.699219 11.792969-38.816406 17.820313-52.457031 17.820313zm0 0"/><path d="m94.511719 214.085938c-2.253907 0-4.492188-.351563-6.703125-1.09375-8.460938-2.828126-18.6875-12.375-19.359375-41.792969-.472657-20.632813 4.019531-46.214844 12.644531-72.019531 8.628906-25.800782 20.417969-48.933594 33.199219-65.140626 18.230469-23.097656 32.128906-24.570312 40.605469-21.753906 3.574218 1.195313 5.503906 5.0625 4.304687 8.640625-1.191406 3.574219-5.039063 5.527344-8.640625 4.304688-5.84375-1.984375-15.609375 4.667969-25.550781 17.265625-11.832031 14.996094-22.832031 36.660156-30.972657 61.015625-8.136718 24.347656-12.375 48.273437-11.941406 67.375.367188 16.039062 4.214844 27.210937 10.035156 29.160156 9.710938 3.183594 33.097657-17.636719 51.804688-65.269531 1.382812-3.503906 5.339844-5.238282 8.851562-3.859375 3.507813 1.382812 5.234376 5.339843 3.855469 8.847656-15.125 38.519531-39.4375 74.320313-62.132812 74.320313zm0 0"/><path d="m209.785156 214.054688c-8.410156 0-19.9375-4.929688-34.050781-22.8125-12.78125-16.207032-24.570313-39.34375-33.199219-65.140626-3.6875-11.042968-6.644531-22.109374-8.78125-32.886718-.734375-3.695313 1.671875-7.289063 5.367188-8.019532 3.6875-.800781 7.289062 1.664063 8.023437 5.367188 2.027344 10.210938 4.835938 20.710938 8.335938 31.203125 8.144531 24.355469 19.140625 46.023437 30.972656 61.015625 9.9375 12.59375 19.722656 19.199219 25.550781 17.265625 5.828125-1.945313 9.675782-13.121094 10.042969-29.160156.433594-19.097657-3.808594-43.027344-11.945313-67.375-8.140624-24.351563-19.140624-46.019531-30.96875-61.011719-9.9375-12.601562-19.730468-19.246094-25.554687-17.265625-3.601563 1.183594-7.449219-.75-8.636719-4.308594-1.199218-3.578125.734375-7.445312 4.304688-8.636719 8.472656-2.820312 22.375-1.347656 40.601562 21.753907 12.785156 16.203125 24.574219 39.339843 33.203125 65.136719 8.625 25.808593 13.117188 51.386718 12.640625 72.019531-.667968 29.421875-10.894531 38.96875-19.355468 41.792969-1.910157.640624-4.097657 1.0625-6.550782 1.0625zm0 0"/></svg>