<svg height="436pt" viewBox="0 -6 436.90465 436" width="436pt" xmlns="http://www.w3.org/2000/svg"><path d="m430.078125 423.695312h-375.46875c-3.769531 0-6.824219-3.054687-6.824219-6.828124 0-52.699219 42.871094-95.570313 95.574219-95.570313h52.902344c3.769531 0 6.828125 3.050781 6.828125 6.824219 0 3.773437-3.058594 6.828125-6.828125 6.828125h-52.902344c-42.871094 0-78.15625 33.105469-81.636719 75.09375h361.527344v-81.921875c0-3.773438 3.058594-6.824219 6.828125-6.824219s6.828125 3.050781 6.828125 6.824219v88.746094c0 3.773437-3.058594 6.828124-6.828125 6.828124zm0 0"/><path d="m300.371094 403.214844c-63.992188 0-116.054688-52.058594-116.054688-116.054688 0-63.992187 52.0625-116.050781 116.054688-116.050781 63.992187 0 116.054687 52.058594 116.054687 116.050781 0 63.996094-52.0625 116.054688-116.054687 116.054688zm0-218.453125c-56.464844 0-102.398438 45.933593-102.398438 102.398437 0 56.46875 45.933594 102.402344 102.398438 102.402344s102.398437-45.933594 102.398437-102.402344c0-56.464844-45.933593-102.398437-102.398437-102.398437zm0 0"/><path d="m300.371094 328.121094c-16.347656 0-31.34375-5.757813-40.117188-15.410156-2.53125-2.796876-2.324218-7.109376.464844-9.648438 2.785156-2.53125 7.101562-2.324219 9.640625.460938 6.132813 6.753906 17.632813 10.945312 30.011719 10.945312 12.238281 0 23.671875-4.125 29.835937-10.765625 2.570313-2.761719 6.886719-2.914063 9.652344-.351563 2.761719 2.566407 2.917969 6.882813.355469 9.644532-8.796875 9.472656-23.691406 15.125-39.84375 15.125zm0 0"/><path d="m252.585938 239.375c0 7.539062-6.113282 13.652344-13.65625 13.652344-7.539063 0-13.652344-6.113282-13.652344-13.652344s6.113281-13.652344 13.652344-13.652344c7.542968 0 13.65625 6.113282 13.65625 13.652344zm0 0"/><path d="m375.464844 239.375c0 7.539062-6.113282 13.652344-13.652344 13.652344-7.542969 0-13.65625-6.113282-13.65625-13.652344s6.113281-13.652344 13.65625-13.652344c7.539062 0 13.652344 6.113282 13.652344 13.652344zm0 0"/><path d="m76.222656 218.894531c-3.773437 0-7.605468-.746093-11.296875-2.273437-11.546875-4.78125-18.597656-15.9375-17.960937-28.417969.226562-4.441406-1.378906-8.613281-4.519532-11.753906-3.140624-3.140625-7.304687-4.753907-11.753906-4.519531-12.53125.660156-23.632812-6.40625-28.414062-17.960938-4.789063-11.546875-1.886719-24.417969 7.390625-32.792969 3.300781-2.980469 5.113281-7.066406 5.113281-11.503906 0-4.441406-1.8125-8.527344-5.109375-11.507813-9.28125-8.371093-12.183594-21.246093-7.394531-32.792968 4.78125-11.554688 16.003906-18.660156 28.417968-17.960938 4.386719.242188 8.609376-1.378906 11.75-4.519531 3.140626-3.136719 4.746094-7.3125 4.519532-11.753906-.636719-12.476563 6.414062-23.640625 17.960937-28.417969 11.554688-4.765625 24.417969-1.878906 32.792969 7.398438 5.953125 6.585937 17.058594 6.585937 23.011719 0 8.375-9.277344 21.257812-12.164063 32.792969-7.398438 11.546874 4.78125 18.597656 15.941406 17.960937 28.417969-.226563 4.441406 1.378906 8.613281 4.519531 11.753906 3.144532 3.140625 7.289063 4.761719 11.753906 4.519531 12.53125-.652344 23.632813 6.40625 28.414063 17.960938 4.789063 11.546875 1.886719 24.421875-7.390625 32.792968-3.300781 2.980469-5.113281 7.066407-5.113281 11.507813 0 4.4375 1.8125 8.523437 5.109375 11.503906 9.28125 8.375 12.183594 21.246094 7.394531 32.792969-4.78125 11.550781-16.011719 18.59375-28.417969 17.960938-4.410156-.242188-8.605468 1.378906-11.75 4.519531-3.140625 3.140625-4.746094 7.3125-4.519531 11.753906.636719 12.480469-6.414063 23.640625-17.960937 28.417969-11.535157 4.773437-24.414063 1.886718-32.792969-7.398438-5.953125-6.585937-17.058594-6.585937-23.011719 0-5.695312 6.3125-13.472656 9.671875-21.496094 9.671875zm-44.75-60.640625c7.707032 0 15.15625 3.070313 20.628906 8.542969 5.820313 5.824219 8.921876 13.878906 8.496094 22.097656-.410156 8.054688 4.667969 13.085938 9.550782 15.113281 4.886718 2.027344 12.03125 2.046876 17.4375-3.933593 5.515624-6.113281 13.40625-9.621094 21.640624-9.621094 8.234376 0 16.121094 3.507813 21.640626 9.621094 5.402343 5.980469 12.542968 5.960937 17.4375 3.933593 4.882812-2.027343 9.960937-7.058593 9.550781-15.113281-.425781-8.21875 2.675781-16.273437 8.496093-22.097656 5.828126-5.820313 13.953126-8.835937 22.101563-8.507813 8.109375.515626 13.085937-4.660156 15.113281-9.539062 2.027344-4.886719 2.050782-12.035156-3.933594-17.441406-6.109374-5.519532-9.613281-13.40625-9.613281-21.640625s3.503907-16.117188 9.617188-21.640625c5.980469-5.40625 5.953125-12.550782 3.929687-17.441406-2.023437-4.871094-7.070312-9.980469-15.109375-9.539063-8.167969.316406-16.277343-2.679687-22.105469-8.503906-5.820312-5.828125-8.921874-13.882813-8.496093-22.101563.410156-8.054687-4.667969-13.085937-9.550781-15.113281-4.894532-2.011719-12.035157-2.050781-17.4375 3.933594-5.515626 6.113281-13.40625 9.621093-21.640626 9.621093-8.234374 0-16.125-3.507812-21.640624-9.621093-5.40625-5.984375-12.550782-5.945313-17.4375-3.933594-4.882813 2.027344-9.960938 7.0625-9.550782 15.113281.425782 8.21875-2.675781 16.273438-8.496094 22.101563-5.824218 5.824219-13.914062 8.832031-22.105468 8.503906-8.070313-.472656-13.085938 4.660156-15.109375 9.539063-2.027344 4.886718-2.054688 12.035156 3.933593 17.441406 6.109376 5.519531 9.613282 13.40625 9.613282 21.640625s-3.503906 16.121093-9.617188 21.640625c-5.984375 5.40625-5.957031 12.554687-3.929687 17.441406 2.023437 4.878906 7.144531 10.085938 15.109375 9.539062.492187-.019531.984375-.035156 1.476562-.035156zm94.324219-143.566406h.066406zm0 0"/><path d="m109.164062 180.355469c-18.003906 0-35.058593-6.726563-48.261718-19.09375-13.78125-12.90625-21.710938-30.414063-22.328125-49.289063-1.273438-38.953125 29.386719-71.679687 68.339843-72.953125 18.878907-.609375 36.855469 6.148438 50.636719 19.054688 13.777344 12.90625 21.707031 30.414062 22.324219 49.285156 1.273438 38.953125-29.382812 71.683594-68.339844 72.953125-.792968.027344-1.582031.042969-2.371094.042969zm.109376-127.71875c-.636719 0-1.273438.003906-1.914063.027343-31.433594 1.03125-56.167969 27.4375-55.140625 58.871094.5 15.226563 6.898438 29.347656 18.015625 39.761719 11.125 10.417969 25.628906 15.964844 40.851563 15.378906 31.433593-1.03125 56.171874-27.4375 55.140624-58.871093-.496093-15.226563-6.894531-29.347657-18.011718-39.761719-10.65625-9.980469-24.417969-15.40625-38.941406-15.40625zm0 0"/><path d="m378.390625 190.125c0 12.121094-9.824219 21.945312-21.941406 21.945312-12.121094 0-21.945313-9.824218-21.945313-21.945312 0-12.117188 17.554688-39.496094 21.945313-39.496094 4.386719 0 21.941406 27.378906 21.941406 39.496094zm0 0"/><path d="m433.003906 319.832031c0 12.121094-9.824218 21.941407-21.941406 21.941407-12.121094 0-21.945312-9.820313-21.945312-21.941407 0-12.117187 17.554687-39.496093 21.945312-39.496093 4.386719 0 21.941406 27.378906 21.941406 39.496093zm0 0"/></svg>