<svg height="416pt" viewBox="0 -10 416.42667 416" width="416pt" xmlns="http://www.w3.org/2000/svg"><path d="m225.277344 205.011719h-218.449219c-3.773437 0-6.828125-3.050781-6.828125-6.824219v-33.453125c0-26.726563 21.742188-48.46875 48.464844-48.46875h258.054687c26.722657 0 48.46875 21.742187 48.46875 48.46875v12.976563c0 3.773437-3.058593 6.828124-6.828125 6.828124-3.769531 0-6.828125-3.054687-6.828125-6.828124v-12.976563c0-19.195313-15.613281-34.8125-34.8125-34.8125h-258.054687c-19.195313 0-34.8125 15.617187-34.8125 34.8125v26.625h211.625c3.769531 0 6.824218 3.054687 6.824218 6.828125s-3.054687 6.824219-6.824218 6.824219zm0 0"/><path d="m327.679688 129.921875h-293.546876c-3.769531 0-6.824218-3.054687-6.824218-6.828125v-77.78125c0-24.867188 20.230468-45.097656 45.097656-45.097656h217c24.867188 0 45.101562 20.230468 45.101562 45.097656v77.78125c0 3.773438-3.058593 6.828125-6.828124 6.828125zm-286.71875-13.65625h279.890624v-70.953125c0-17.339844-14.105468-31.445312-31.445312-31.445312h-217c-17.339844 0-31.445312 14.105468-31.445312 31.445312zm0 0"/><path d="m163.839844 129.921875h-95.574219c-3.769531 0-6.824219-3.054687-6.824219-6.828125v-41.285156c0-18.640625 15.164063-33.808594 33.800782-33.808594h41.621093c18.640625 0 33.804688 15.167969 33.804688 33.808594v41.285156c0 3.773438-3.058594 6.828125-6.828125 6.828125zm-88.746094-13.65625h81.917969v-34.457031c0-11.113282-9.039063-20.15625-20.148438-20.15625h-41.621093c-11.109376 0-20.148438 9.042968-20.148438 20.15625zm0 0"/><path d="m293.546875 129.921875h-95.574219c-3.769531 0-6.824218-3.054687-6.824218-6.828125v-41.285156c0-18.640625 15.160156-33.808594 33.800781-33.808594h41.621093c18.640626 0 33.804688 15.167969 33.804688 33.808594v41.285156c0 3.773438-3.058594 6.828125-6.828125 6.828125zm-88.746094-13.65625h81.917969v-34.457031c0-11.113282-9.039062-20.15625-20.148438-20.15625h-41.621093c-11.109375 0-20.148438 9.042968-20.148438 20.15625zm0 0"/><path d="m34.132812 273.28125h-27.304687c-3.773437 0-6.828125-3.054688-6.828125-6.828125v-34.132813c0-3.773437 3.054688-6.828124 6.828125-6.828124h27.304687c3.769532 0 6.828126 3.054687 6.828126 6.828124v34.132813c0 3.773437-3.058594 6.828125-6.828126 6.828125zm-20.480468-13.65625h13.65625v-20.476562h-13.65625zm0 0"/><path d="m197.972656 239.148438h-191.144531c-3.773437 0-6.828125-3.054688-6.828125-6.828126v-34.132812c0-3.773438 3.054688-6.828125 6.828125-6.828125h218.449219c3.769531 0 6.824218 3.054687 6.824218 6.828125s-3.054687 6.824219-6.824218 6.824219h-211.625v20.480469h184.320312c3.769532 0 6.828125 3.054687 6.828125 6.828124 0 3.773438-3.058593 6.828126-6.828125 6.828126zm0 0"/><path d="m300.375 396.160156c-63.996094 0-116.054688-52.058594-116.054688-116.054687 0-63.992188 52.058594-116.050781 116.054688-116.050781 63.992188 0 116.050781 52.058593 116.050781 116.050781 0 63.996093-52.058593 116.054687-116.050781 116.054687zm0-218.453125c-56.464844 0-102.402344 45.933594-102.402344 102.398438 0 56.46875 45.9375 102.402343 102.402344 102.402343 56.460938 0 102.398438-45.933593 102.398438-102.402343 0-56.464844-45.9375-102.398438-102.398438-102.398438zm0 0"/><path d="m300.375 321.066406c-16.347656 0-31.34375-5.757812-40.117188-15.414062-2.535156-2.792969-2.328124-7.105469.460938-9.644532 2.789062-2.53125 7.105469-2.320312 9.644531.460938 6.132813 6.75 17.632813 10.945312 30.011719 10.945312 12.238281 0 23.671875-4.128906 29.835938-10.769531 2.574218-2.757812 6.886718-2.917969 9.652343-.351562 2.761719 2.566406 2.917969 6.886719.355469 9.644531-8.800781 9.476562-23.691406 15.128906-39.84375 15.128906zm0 0"/><path d="m252.585938 232.320312c0 7.539063-6.113282 13.652344-13.652344 13.652344-7.539063 0-13.652344-6.113281-13.652344-13.652344 0-7.539062 6.113281-13.652343 13.652344-13.652343 7.539062 0 13.652344 6.113281 13.652344 13.652343zm0 0"/><path d="m375.464844 232.320312c0 7.539063-6.109375 13.652344-13.652344 13.652344-7.539062 0-13.652344-6.113281-13.652344-13.652344 0-7.539062 6.113282-13.652343 13.652344-13.652343 7.542969 0 13.652344 6.113281 13.652344 13.652343zm0 0"/></svg>