<svg height="430pt" viewBox="-58 0 430 430.08" width="430pt" xmlns="http://www.w3.org/2000/svg"><path d="m257.5625 430.078125h-228.324219c-16.097656 0-29.1992185-13.097656-29.1992185-29.199219v-371.679687c0-16.097657 13.1015625-29.199219 29.1992185-29.199219h228.320313c16.101562 0 29.203125 13.101562 29.203125 29.199219v141.492187c0 3.773438-3.058594 6.828125-6.828125 6.828125-3.769532 0-6.828125-3.054687-6.828125-6.828125v-141.492187c0-8.574219-6.972657-15.546875-15.542969-15.546875h-228.324219c-8.570312 0-15.546875 6.972656-15.546875 15.546875v371.679687c0 8.574219 6.976563 15.546875 15.546875 15.546875h228.320313c8.574218 0 15.546875-6.972656 15.546875-15.546875v-161.941406c0-3.773438 3.054687-6.824219 6.824219-6.824219 3.773437 0 6.828124 3.050781 6.828124 6.824219v161.941406c.003907 16.101563-13.097656 29.199219-29.195312 29.199219zm0 0"/><path d="m252.625 402.773438h-218.453125c-3.769531 0-6.824219-3.054688-6.824219-6.828126v-286.71875c0-3.773437 3.054688-6.828124 6.824219-6.828124 3.773437 0 6.828125 3.054687 6.828125 6.828124v279.894532h204.800781v-157c0-3.773438 3.054688-6.828125 6.824219-6.828125 3.773438 0 6.828125 3.054687 6.828125 6.828125v163.824218c0 3.773438-3.054687 6.828126-6.828125 6.828126zm0 0"/><path d="m252.625 177.492188c-3.769531 0-6.824219-3.050782-6.824219-6.824219v-61.441407c0-3.773437 3.054688-6.828124 6.824219-6.828124 3.773438 0 6.828125 3.054687 6.828125 6.828124v61.441407c0 3.773437-3.054687 6.824219-6.828125 6.824219zm0 0"/><path d="m237.992188 177.515625c-1.160157 0-2.335938-.296875-3.410157-.921875-3.265625-1.886719-4.378906-6.066406-2.488281-9.328125 8.96875-15.484375 13.707031-33.199219 13.707031-51.210937 0-56.46875-45.9375-102.402344-102.402343-102.402344-56.460938 0-102.398438 45.933594-102.398438 102.402344 0 18.003906 4.734375 35.710937 13.699219 51.199218 1.886719 3.265625.773437 7.4375-2.488281 9.328125-3.265626 1.90625-7.445313.769531-9.332032-2.488281-10.160156-17.566406-15.53125-37.632812-15.53125-58.039062 0-63.996094 52.058594-116.054688 116.050782-116.054688 63.996093 0 116.054687 52.058594 116.054687 116.054688 0 20.410156-5.375 40.492187-15.546875 58.050781-1.261719 2.1875-3.554688 3.410156-5.914062 3.410156zm0 0"/><path d="m143.398438 157.011719c-16.34375 0-31.339844-5.757813-40.117188-15.410157-2.53125-2.796874-2.324219-7.109374.464844-9.648437 2.789062-2.523437 7.097656-2.324219 9.640625.460937 6.136719 6.753907 17.636719 10.945313 30.011719 10.945313 12.242187 0 23.675781-4.125 29.839843-10.765625 2.570313-2.761719 6.886719-2.914062 9.652344-.355469 2.761719 2.566407 2.917969 6.886719.355469 9.648438-8.800782 9.472656-23.691406 15.125-39.847656 15.125zm0 0"/><path d="m95.613281 68.265625c0 7.542969-6.113281 13.65625-13.652343 13.65625-7.542969 0-13.652344-6.113281-13.652344-13.65625 0-7.539063 6.109375-13.652344 13.652344-13.652344 7.539062 0 13.652343 6.113281 13.652343 13.652344zm0 0"/><path d="m218.492188 68.265625c0 7.542969-6.113282 13.65625-13.652344 13.65625-7.539063 0-13.652344-6.113281-13.652344-13.65625 0-7.539063 6.113281-13.652344 13.652344-13.652344 7.539062 0 13.652344 6.113281 13.652344 13.652344zm0 0"/><path d="m276.519531 238.933594h-193.339843c-2.933594 0-5.535157-1.875-6.46875-4.65625-.9375-2.777344.007812-5.84375 2.347656-7.613282 6.722656-5.089843 10.582031-12.753906 10.582031-21.011718 0-14.585938-11.867187-26.453125-26.453125-26.453125-9.519531 0-18.347656 5.273437-23.039062 13.761719-1.503907 2.726562-4.652344 4.078124-7.683594 3.3125-3.011719-.78125-5.117188-3.503907-5.117188-6.613282v-18.992187c0-3.773438 3.054688-6.828125 6.824219-6.828125h242.347656c20.703125 0 37.546875 16.847656 37.546875 37.546875s-16.84375 37.546875-37.546875 37.546875zm-178.398437-13.652344h178.398437c13.175781 0 23.894531-10.722656 23.894531-23.894531s-10.71875-23.894531-23.894531-23.894531h-184.800781c7.152344 7.246093 11.574219 17.199218 11.574219 28.160156 0 7.015625-1.808594 13.726562-5.171875 19.628906zm0 0"/><path d="m61.480469 307.199219c-3.769531 0-6.828125-3.050781-6.828125-6.824219 0-25.519531 31.152344-33.601562 32.476562-33.929688 3.667969-.886718 7.363282 1.300782 8.28125 4.96875.914063 3.644532-1.304687 7.347657-4.949218 8.273438-.222657.050781-22.152344 5.832031-22.152344 20.6875 0 3.773438-3.058594 6.824219-6.828125 6.824219zm0 0"/><path d="m122.914062 348.160156c-3.058593 0-5.839843-2.066406-6.617187-5.171875-5.46875-21.882812-26.613281-22.136719-27.511719-22.136719-3.769531 0-6.824218-3.050781-6.824218-6.824218 0-3.773438 3.054687-6.828125 6.824218-6.828125 11.292969 0 34.335938 6.789062 40.757813 32.480469.914062 3.652343-1.308594 7.359374-4.964844 8.273437-.558594.140625-1.117187.207031-1.664063.207031zm0 0"/><path d="m191.1875 307.199219c-3.769531 0-6.828125-3.050781-6.828125-6.824219 0-13.527344 3.105469-22.019531 9.492187-25.96875 5.035157-3.125 10.714844-2.28125 14.042969-.621094 3.371094 1.6875 4.738281 5.789063 3.050781 9.160156-1.65625 3.308594-5.632812 4.695313-8.976562 3.140626-.101562-.035157-.710938-.234376-.957031-.050782-1.039063.699219-3 4.589844-3 14.339844 0 3.773438-3.054688 6.824219-6.824219 6.824219zm0 0"/><path d="m170.722656 341.328125c-2.214844 0-4.386718-1.074219-5.699218-3.054687-2.078126-3.140626-1.234376-7.359376 1.894531-9.445313.957031-.632813 23.523437-15.40625 46.90625-7.621094 3.578125 1.1875 5.511719 5.054688 4.316406 8.632813-1.1875 3.574218-5.046875 5.511718-8.636719 4.3125-16.972656-5.640625-34.851562 5.929687-35.027344 6.046875-1.15625.761719-2.460937 1.128906-3.753906 1.128906zm0 0"/></svg>