<svg height="429pt" viewBox="-13 0 429 429.9072" width="429pt" xmlns="http://www.w3.org/2000/svg"><path d="m266.695312 429.90625c-63.996093 0-116.054687-52.058594-116.054687-116.050781 0-63.996094 52.058594-116.054688 116.054687-116.054688 63.992188 0 116.050782 52.058594 116.050782 116.054688 0 63.992187-52.058594 116.050781-116.050782 116.050781zm0-218.453125c-56.464843 0-102.402343 45.933594-102.402343 102.402344 0 56.464843 45.9375 102.398437 102.402343 102.398437 56.460938 0 102.398438-45.933594 102.398438-102.398437 0-56.46875-45.9375-102.402344-102.398438-102.402344zm0 0"/><path d="m266.695312 354.8125c-16.347656 0-31.34375-5.757812-40.117187-15.410156-2.535156-2.796875-2.328125-7.109375.460937-9.648438 2.789063-2.53125 7.101563-2.324218 9.644532.460938 6.132812 6.753906 17.632812 10.949218 30.007812 10.949218 12.242188 0 23.671875-4.128906 29.839844-10.769531 2.570312-2.757812 6.882812-2.917969 9.648438-.351562 2.765624 2.566406 2.921874 6.886719.359374 9.644531-8.800781 9.472656-23.691406 15.125-39.84375 15.125zm0 0"/><path d="m218.90625 266.066406c0 7.542969-6.113281 13.652344-13.652344 13.652344-7.539062 0-13.652344-6.109375-13.652344-13.652344 0-7.539062 6.113282-13.652344 13.652344-13.652344 7.539063 0 13.652344 6.113282 13.652344 13.652344zm0 0"/><path d="m341.785156 266.066406c0 7.542969-6.109375 13.652344-13.652344 13.652344-7.539062 0-13.652343-6.109375-13.652343-13.652344 0-7.539062 6.113281-13.652344 13.652343-13.652344 7.542969 0 13.652344 6.113282 13.652344 13.652344zm0 0"/><path d="m123.332031 429.90625h-95.570312c-3.769531 0-6.828125-3.050781-6.828125-6.824219v-157.015625c0-3.773437 3.058594-6.824218 6.828125-6.824218h95.570312c3.773438 0 6.828125 3.050781 6.828125 6.824218v157.015625c0 3.773438-3.054687 6.824219-6.828125 6.824219zm-88.746093-13.652344h81.921874v-143.359375h-81.921874zm0 0"/><path d="m123.332031 163.667969h-95.570312c-2.105469 0-4.089844-.964844-5.382813-2.628907-1.292968-1.652343-1.75-3.8125-1.242187-5.851562l13.652343-54.613281c.761719-3.039063 3.492188-5.171875 6.625-5.171875h68.265626c3.132812 0 5.863281 2.132812 6.625 5.171875l13.652343 54.613281c.511719 2.039062.050781 4.199219-1.242187 5.851562-1.292969 1.664063-3.277344 2.628907-5.382813 2.628907zm-86.828125-13.652344h78.085938l-10.238282-40.960937h-57.609374zm0 0"/><path d="m123.332031 81.746094h-95.570312c-2.546875 0-4.878907-1.410156-6.058594-3.671875-1.175781-2.257813-.996094-4.980469.460937-7.066407l47.789063-68.265624c2.550781-3.65625 8.632813-3.65625 11.1875 0l47.785156 68.265624c1.460938 2.085938 1.636719 4.804688.464844 7.066407-1.175781 2.261719-3.511719 3.671875-6.058594 3.671875zm-82.460937-13.652344h69.355468l-34.679687-49.53125zm0 0"/><path d="m143.8125 272.894531h-136.53125c-3.769531 0-6.828125-3.054687-6.828125-6.828125v-109.226562c0-3.773438 3.058594-6.824219 6.828125-6.824219h136.53125c3.769531 0 6.828125 3.050781 6.828125 6.824219v109.226562c0 3.773438-3.058594 6.828125-6.828125 6.828125zm-129.707031-13.652343h122.882812v-95.574219h-122.882812zm0 0"/><path d="m109.679688 109.054688h-68.265626c-3.769531 0-6.828124-3.054688-6.828124-6.828126v-27.304687c0-3.773437 3.058593-6.828125 6.828124-6.828125h68.265626c3.769531 0 6.828124 3.054688 6.828124 6.828125v27.304687c0 3.773438-3.058593 6.828126-6.828124 6.828126zm-61.4375-13.652344h54.613281v-13.65625h-54.613281zm0 0"/><path d="m75.546875 259.242188c-26.347656 0-47.785156-21.441407-47.785156-47.789063s21.4375-47.785156 47.785156-47.785156 47.785156 21.4375 47.785156 47.785156-21.4375 47.789063-47.785156 47.789063zm0-81.921876c-18.820313 0-34.132813 15.3125-34.132813 34.132813s15.3125 34.132813 34.132813 34.132813 34.132813-15.3125 34.132813-34.132813-15.3125-34.132813-34.132813-34.132813zm0 0"/><path d="m55.066406 429.90625c-3.769531 0-6.824218-3.050781-6.824218-6.824219v-157.015625c0-3.773437 3.054687-6.824218 6.824218-6.824218 3.769532 0 6.828125 3.050781 6.828125 6.824218v157.015625c0 3.773438-3.058593 6.824219-6.828125 6.824219zm0 0"/><path d="m96.027344 429.90625c-3.769532 0-6.828125-3.050781-6.828125-6.824219v-157.015625c0-3.773437 3.058593-6.824218 6.828125-6.824218 3.769531 0 6.828125 3.050781 6.828125 6.824218v157.015625c0 3.773438-3.058594 6.824219-6.828125 6.824219zm0 0"/><path d="m123.332031 327.507812h-95.570312c-3.769531 0-6.828125-3.054687-6.828125-6.828124 0-3.773438 3.058594-6.824219 6.828125-6.824219h95.570312c3.773438 0 6.828125 3.050781 6.828125 6.824219 0 3.773437-3.054687 6.828124-6.828125 6.828124zm0 0"/><path d="m123.332031 375.292969h-95.570312c-3.769531 0-6.828125-3.050781-6.828125-6.824219s3.058594-6.828125 6.828125-6.828125h95.570312c3.773438 0 6.828125 3.054687 6.828125 6.828125s-3.054687 6.824219-6.828125 6.824219zm0 0"/><path d="m75.546875 218.28125c-.726563 0-1.453125-.113281-2.160156-.355469l-20.480469-6.824219c-3.578125-1.1875-5.511719-5.054687-4.316406-8.636718 1.191406-3.570313 5.046875-5.511719 8.636718-4.3125l11.492188 3.828125v-17.832031c0-3.773438 3.058594-6.828126 6.828125-6.828126s6.828125 3.054688 6.828125 6.828126v27.304687c0 2.195313-1.054688 4.253906-2.835938 5.539063-1.179687.847656-2.578124 1.289062-3.992187 1.289062zm0 0"/><path d="m396.398438 429.90625h-293.542969c-3.773438 0-6.828125-3.050781-6.828125-6.824219 0-3.773437 3.054687-6.828125 6.828125-6.828125h293.542969c3.773437 0 6.828124 3.054688 6.828124 6.828125 0 3.773438-3.054687 6.824219-6.828124 6.824219zm0 0"/></svg>