<svg height="436pt" viewBox="0 -17 436.90667 436" width="436pt" xmlns="http://www.w3.org/2000/svg"><path d="m358.027344 362.265625h-279.148438c-37.332031 0-65.226562-38.039063-65.226562-72.050781v-42.816406c0-19.472657 15.847656-35.320313 35.320312-35.320313h338.960938c19.472656 0 35.316406 15.847656 35.316406 35.320313v42.816406c.003906 34.011718-27.890625 72.050781-65.222656 72.050781zm-309.054688-136.53125c-11.945312 0-21.664062 9.71875-21.664062 21.664063v42.816406c0 27.566406 22.050781 58.398437 51.570312 58.398437h279.148438c29.519531 0 51.574218-30.832031 51.574218-58.398437v-42.816406c0-11.945313-9.722656-21.664063-21.667968-21.664063zm0 0"/><path d="m266.238281 253.039062h-95.570312c-3.773438 0-6.828125-3.050781-6.828125-6.824218 0-3.773438 3.054687-6.828125 6.828125-6.828125h95.570312c3.773438 0 6.828125 3.054687 6.828125 6.828125 0 3.773437-3.054687 6.824218-6.828125 6.824218zm0 0"/><path d="m266.238281 273.519531h-95.570312c-3.773438 0-6.828125-3.054687-6.828125-6.828125 0-3.773437 3.054687-6.824218 6.828125-6.824218h95.570312c3.773438 0 6.828125 3.050781 6.828125 6.824218 0 3.773438-3.054687 6.828125-6.828125 6.828125zm0 0"/><path d="m266.238281 294h-95.570312c-3.773438 0-6.828125-3.054688-6.828125-6.828125s3.054687-6.824219 6.828125-6.824219h95.570312c3.773438 0 6.828125 3.050782 6.828125 6.824219s-3.054687 6.828125-6.828125 6.828125zm0 0"/><path d="m266.238281 334.960938h-95.570312c-3.773438 0-6.828125-3.054688-6.828125-6.828126 0-3.773437 3.054687-6.824218 6.828125-6.824218h95.570312c3.773438 0 6.828125 3.050781 6.828125 6.824218 0 3.773438-3.054687 6.828126-6.828125 6.828126zm0 0"/><path d="m266.238281 314.480469h-95.570312c-3.773438 0-6.828125-3.054688-6.828125-6.828125 0-3.773438 3.054687-6.824219 6.828125-6.824219h95.570312c3.773438 0 6.828125 3.050781 6.828125 6.824219 0 3.773437-3.054687 6.828125-6.828125 6.828125zm0 0"/><path d="m266.238281 362.265625h-95.570312c-3.773438 0-6.828125-3.050781-6.828125-6.824219 0-3.773437 3.054687-6.828125 6.828125-6.828125h95.570312c3.773438 0 6.828125 3.054688 6.828125 6.828125 0 3.773438-3.054687 6.824219-6.828125 6.824219zm0 0"/><path d="m75.09375 307.652344c-18.820312 0-34.132812-15.3125-34.132812-34.132813 0-18.820312 15.3125-34.132812 34.132812-34.132812s34.132812 15.3125 34.132812 34.132812c0 18.820313-15.3125 34.132813-34.132812 34.132813zm0-54.613282c-11.292969 0-20.480469 9.1875-20.480469 20.480469s9.1875 20.480469 20.480469 20.480469 20.480469-9.1875 20.480469-20.480469-9.1875-20.480469-20.480469-20.480469zm0 0"/><path d="m361.8125 307.652344c-18.820312 0-34.132812-15.3125-34.132812-34.132813 0-18.820312 15.3125-34.132812 34.132812-34.132812s34.132812 15.3125 34.132812 34.132812c0 18.820313-15.3125 34.132813-34.132812 34.132813zm0-54.613282c-11.292969 0-20.480469 9.1875-20.480469 20.480469s9.1875 20.480469 20.480469 20.480469 20.480469-9.1875 20.480469-20.480469-9.1875-20.480469-20.480469-20.480469zm0 0"/><path d="m116.054688 403.226562h-54.613282c-3.773437 0-6.828125-3.054687-6.828125-6.828124v-40.957032c0-3.773437 3.054688-6.828125 6.828125-6.828125h54.613282c3.773437 0 6.824218 3.054688 6.824218 6.828125v40.957032c0 3.773437-3.050781 6.828124-6.824218 6.828124zm-47.789063-13.652343h40.960937v-27.308594h-40.960937zm0 0"/><path d="m395.945312 225.734375h-354.984374c-3.773438 0-6.828126-3.054687-6.828126-6.828125v-157.011719c0-3.773437 3.054688-6.828125 6.828126-6.828125h354.984374c3.773438 0 6.828126 3.054688 6.828126 6.828125v157.011719c0 3.773438-3.054688 6.828125-6.828126 6.828125zm-348.160156-13.65625h341.335938v-143.359375h-341.335938zm0 0"/><path d="m375.464844 403.226562h-54.613282c-3.773437 0-6.824218-3.054687-6.824218-6.828124v-40.957032c0-3.773437 3.050781-6.828125 6.824218-6.828125h54.613282c3.773437 0 6.828125 3.054688 6.828125 6.828125v40.957032c0 3.773437-3.054688 6.828124-6.828125 6.828124zm-47.785156-13.652343h40.960937v-27.308594h-40.960937zm0 0"/><path d="m183.390625 155.480469c7.175781 11.34375 20.195313 18.925781 35.0625 18.925781 14.71875 0 27.625-7.429688 34.84375-18.585938zm0 0"/><path d="m218.453125 181.234375c-16.8125 0-32.078125-8.269531-40.832031-22.105469-1.328125-2.109375-1.40625-4.773437-.199219-6.953125 1.203125-2.175781 3.492187-3.519531 5.972656-3.519531h.03125l69.910157.339844c2.492187.011718 4.785156 1.382812 5.972656 3.578125 1.183594 2.195312 1.078125 4.863281-.273438 6.953125-8.800781 13.59375-23.96875 21.707031-40.582031 21.707031zm-18.613281-18.847656c10.742187 6.632812 26.066406 6.707031 36.914062.179687zm0 0"/><path d="m150.1875 130.160156c0 7.539063-6.113281 13.652344-13.652344 13.652344-7.542968 0-13.65625-6.113281-13.65625-13.652344 0-7.539062 6.113282-13.652344 13.65625-13.652344 7.539063 0 13.652344 6.113282 13.652344 13.652344zm0 0"/><path d="m314.027344 130.160156c0 7.539063-6.113282 13.652344-13.652344 13.652344-7.542969 0-13.65625-6.113281-13.65625-13.652344 0-7.539062 6.113281-13.652344 13.65625-13.652344 7.539062 0 13.652344 6.113282 13.652344 13.652344zm0 0"/><path d="m395.945312 68.71875h-354.984374c-3.773438 0-6.828126-3.050781-6.828126-6.824219 0-33.882812 27.558594-61.441406 61.441407-61.441406h245.757812c33.882813 0 61.441407 27.558594 61.441407 61.441406 0 3.773438-3.054688 6.824219-6.828126 6.824219zm-347.671874-13.652344h340.359374c-3.320312-23.125-23.265624-40.960937-47.300781-40.960937h-245.757812c-24.035157 0-43.980469 17.835937-47.300781 40.960937zm0 0"/><path d="m40.960938 205.253906h-34.132813c-3.773437 0-6.828125-3.054687-6.828125-6.828125v-75.09375c0-3.773437 3.054688-6.824219 6.828125-6.824219h34.132813c3.773437 0 6.824218 3.050782 6.824218 6.824219v75.09375c0 3.773438-3.050781 6.828125-6.824218 6.828125zm-27.308594-13.652344h20.480468v-61.441406h-20.480468zm0 0"/><path d="m430.078125 205.253906h-34.132813c-3.773437 0-6.824218-3.054687-6.824218-6.828125v-75.09375c0-3.773437 3.050781-6.824219 6.824218-6.824219h34.132813c3.773437 0 6.828125 3.050782 6.828125 6.824219v75.09375c0 3.773438-3.054688 6.828125-6.828125 6.828125zm-27.304687-13.652344h20.480468v-61.441406h-20.480468zm0 0"/></svg>