<svg height="436pt" viewBox="0 -71 436.90667 436" width="436pt" xmlns="http://www.w3.org/2000/svg"><path d="m358.03125 253.039062h-279.152344c-35.964844 0-65.226562-29.261718-65.226562-65.226562v-42.8125c0-19.472656 15.84375-35.320312 35.316406-35.320312h338.96875c19.472656 0 35.3125 15.847656 35.3125 35.320312v42.8125c.003906 35.964844-29.257812 65.226562-65.21875 65.226562zm-309.0625-129.707031c-11.945312 0-21.660156 9.722657-21.660156 21.667969v42.8125c0 28.441406 23.132812 51.574219 51.570312 51.574219h279.152344c28.433594 0 51.570312-23.132813 51.570312-51.574219v-42.8125c0-11.945312-9.71875-21.667969-21.664062-21.667969zm0 0"/><path d="m266.238281 157.464844h-95.570312c-3.769531 0-6.828125-3.050782-6.828125-6.824219s3.058594-6.828125 6.828125-6.828125h95.570312c3.773438 0 6.828125 3.054688 6.828125 6.828125s-3.054687 6.824219-6.828125 6.824219zm0 0"/><path d="m266.238281 177.945312h-95.570312c-3.769531 0-6.828125-3.050781-6.828125-6.824218 0-3.773438 3.058594-6.828125 6.828125-6.828125h95.570312c3.773438 0 6.828125 3.054687 6.828125 6.828125 0 3.773437-3.054687 6.824218-6.828125 6.824218zm0 0"/><path d="m266.238281 198.425781h-95.570312c-3.769531 0-6.828125-3.050781-6.828125-6.824219 0-3.773437 3.058594-6.828124 6.828125-6.828124h95.570312c3.773438 0 6.828125 3.054687 6.828125 6.828124 0 3.773438-3.054687 6.824219-6.828125 6.824219zm0 0"/><path d="m266.238281 253.039062h-95.570312c-3.769531 0-6.828125-3.050781-6.828125-6.824218 0-3.773438 3.058594-6.828125 6.828125-6.828125h95.570312c3.773438 0 6.828125 3.054687 6.828125 6.828125 0 3.773437-3.054687 6.824218-6.828125 6.824218zm0 0"/><path d="m75.09375 205.253906c-18.820312 0-34.132812-15.316406-34.132812-34.132812 0-18.820313 15.3125-34.132813 34.132812-34.132813s34.132812 15.3125 34.132812 34.132813c0 18.816406-15.3125 34.132812-34.132812 34.132812zm0-54.613281c-11.292969 0-20.480469 9.1875-20.480469 20.480469 0 11.292968 9.1875 20.480468 20.480469 20.480468s20.480469-9.1875 20.480469-20.480468c0-11.292969-9.1875-20.480469-20.480469-20.480469zm0 0"/><path d="m361.8125 205.253906c-18.820312 0-34.132812-15.316406-34.132812-34.132812 0-18.820313 15.3125-34.132813 34.132812-34.132813s34.132812 15.3125 34.132812 34.132813c0 18.816406-15.3125 34.132812-34.132812 34.132812zm0-54.613281c-11.292969 0-20.480469 9.1875-20.480469 20.480469 0 11.292968 9.1875 20.480468 20.480469 20.480468s20.480469-9.1875 20.480469-20.480468c0-11.292969-9.1875-20.480469-20.480469-20.480469zm0 0"/><path d="m116.054688 294h-54.613282c-3.769531 0-6.828125-3.054688-6.828125-6.828125v-40.957031c0-3.773438 3.058594-6.828125 6.828125-6.828125h54.613282c3.769531 0 6.824218 3.054687 6.824218 6.828125v40.957031c0 3.773437-3.054687 6.828125-6.824218 6.828125zm-47.789063-13.652344h40.960937v-27.308594h-40.960937zm0 0"/><path d="m375.464844 294h-54.613282c-3.769531 0-6.824218-3.054688-6.824218-6.828125v-40.957031c0-3.773438 3.054687-6.828125 6.824218-6.828125h54.613282c3.773437 0 6.828125 3.054687 6.828125 6.828125v40.957031c0 3.773437-3.054688 6.828125-6.828125 6.828125zm-47.785156-13.652344h40.960937v-27.308594h-40.960937zm0 0"/><path d="m375.464844 123.332031h-314.023438c-2.066406 0-4.015625-.933593-5.3125-2.539062-1.296875-1.601563-1.796875-3.707031-1.363281-5.726563l19.136719-88.878906c1.1875-14.472656 13.355468-25.734375 27.933594-25.734375h233.234374c14.578126 0 26.746094 11.261719 27.933594 25.734375l19.136719 88.878906c.433594 2.019532-.066406 4.125-1.363281 5.726563-1.296875 1.605469-3.246094 2.539062-5.3125 2.539062zm-305.570313-13.652343h297.117188l-17.457031-81.078126c-.070313-.335937-.117188-.675781-.136719-1.015624-.472657-7.5625-6.777344-13.480469-14.347657-13.480469h-233.234374c-7.570313 0-13.871094 5.921875-14.34375 13.480469-.023438.339843-.066407.679687-.140626 1.015624zm0 0"/><path d="m218.453125 96.027344c-16.347656 0-31.34375-5.761719-40.117187-15.414063-2.53125-2.792969-2.324219-7.105469.464843-9.644531 2.789063-2.535156 7.101563-2.328125 9.640625.460938 6.136719 6.75 17.636719 10.945312 30.011719 10.945312 12.242187 0 23.671875-4.128906 29.839844-10.769531 2.570312-2.757813 6.886719-2.917969 9.648437-.351563 2.765625 2.566406 2.921875 6.886719.359375 9.644532-8.800781 9.476562-23.695312 15.128906-39.847656 15.128906zm0 0"/><path d="m170.667969 41.414062c0 7.539063-6.113281 13.652344-13.65625 13.652344-7.539063 0-13.652344-6.113281-13.652344-13.652344 0-7.542968 6.113281-13.652343 13.652344-13.652343 7.542969 0 13.65625 6.109375 13.65625 13.652343zm0 0"/><path d="m293.546875 41.414062c0 7.539063-6.113281 13.652344-13.652344 13.652344-7.542969 0-13.65625-6.113281-13.65625-13.652344 0-7.542968 6.113281-13.652343 13.65625-13.652343 7.539063 0 13.652344 6.109375 13.652344 13.652343zm0 0"/><path d="m430.078125 109.679688h-47.785156c-3.769531 0-6.828125-3.054688-6.828125-6.828126v-34.132812c0-3.773438 3.058594-6.824219 6.828125-6.824219h13.652343c22.585938 0 40.960938 18.371094 40.960938 40.957031 0 3.773438-3.054688 6.828126-6.828125 6.828126zm-40.957031-13.652344h33.269531c-3.039063-11.769532-13.746094-20.480469-26.445313-20.480469h-6.824218zm0 0"/><path d="m382.292969 123.332031c-3.769531 0-6.828125-3.050781-6.828125-6.824219v-13.65625c0-3.773437 3.058594-6.824218 6.828125-6.824218s6.828125 3.050781 6.828125 6.824218v13.65625c0 3.773438-3.058594 6.824219-6.828125 6.824219zm0 0"/><path d="m54.613281 109.679688h-47.785156c-3.773437 0-6.828125-3.054688-6.828125-6.828126 0-22.585937 18.375-40.957031 40.960938-40.957031h13.652343c3.769531 0 6.828125 3.050781 6.828125 6.824219v34.132812c0 3.773438-3.058594 6.828126-6.828125 6.828126zm-40.097656-13.652344h33.269531v-20.480469h-6.824218c-12.699219 0-23.40625 8.710937-26.445313 20.480469zm0 0"/><path d="m54.613281 123.332031c-3.769531 0-6.828125-3.050781-6.828125-6.824219v-13.65625c0-3.773437 3.058594-6.824218 6.828125-6.824218s6.828125 3.050781 6.828125 6.824218v13.65625c0 3.773438-3.058594 6.824219-6.828125 6.824219zm0 0"/><path d="m402.773438 225.734375h-368.640626c-3.769531 0-6.824218-3.054687-6.824218-6.828125s3.054687-6.828125 6.824218-6.828125h368.640626c3.769531 0 6.828124 3.054687 6.828124 6.828125s-3.058593 6.828125-6.828124 6.828125zm0 0"/></svg>