<svg height="395pt" viewBox="0 0 395.94781 395" width="395pt" xmlns="http://www.w3.org/2000/svg"><path d="m279.894531 396.421875c-58.425781 0-107.933593-43.660156-115.152343-101.554687-.46875-3.738282 2.183593-7.152344 5.925781-7.621094 3.765625-.433594 7.152343 2.1875 7.621093 5.929687 6.375 51.078125 50.050782 89.589844 101.605469 89.589844 56.464844 0 102.398438-45.929687 102.398438-102.398437 0-56.464844-45.933594-102.398438-102.398438-102.398438-29.566406 0-57.6875 12.777344-77.160156 35.070312-2.472656 2.835938-6.78125 3.136719-9.632813.648438-2.839843-2.480469-3.128906-6.792969-.648437-9.632812 22.0625-25.253907 53.933594-39.742188 87.441406-39.742188 63.992188 0 116.054688 52.0625 116.054688 116.054688 0 63.992187-52.0625 116.054687-116.054688 116.054687zm0 0"/><path d="m279.894531 321.328125c-16.351562 0-31.347656-5.769531-40.113281-15.421875-1.820312-2-2.289062-4.886719-1.1875-7.359375 1.101562-2.464844 3.546875-4.050781 6.242188-4.050781h.019531l69.90625.234375c2.714843.003906 5.160156 1.617187 6.238281 4.105469 1.082031 2.484374.589844 5.378906-1.257812 7.363281-8.792969 9.476562-23.695313 15.128906-39.847657 15.128906zm0 0"/><path d="m232.109375 232.582031c0 7.539063-6.113281 13.652344-13.65625 13.652344-7.539063 0-13.652344-6.113281-13.652344-13.652344 0-7.542969 6.113281-13.65625 13.652344-13.65625 7.542969 0 13.65625 6.113281 13.65625 13.65625zm0 0"/><path d="m354.988281 232.582031c0 7.539063-6.113281 13.652344-13.652343 13.652344-7.542969 0-13.65625-6.113281-13.65625-13.652344 0-7.542969 6.113281-13.65625 13.65625-13.65625 7.539062 0 13.652343 6.113281 13.652343 13.65625zm0 0"/><path d="m102.574219 328.160156c-3.933594 0-7.898438-.21875-11.886719-.660156-45.246094-5.03125-82.898438-41.273438-89.53125-86.179688-6.527344-44.179687 16.179688-87.503906 55.566406-107.1875-2.414062-15.035156-9.539062-29.039062-20.355468-39.855468l-20.710938-20.710938c-1.957031-1.953125-2.542969-4.886718-1.480469-7.4375 1.050781-2.554687 3.546875-4.214844 6.304688-4.214844h163.839843c2.761719 0 5.253907 1.660157 6.308594 4.214844 1.058594 2.550782.472656 5.484375-1.480468 7.4375l-20.714844 20.714844c-10.8125 10.8125-17.933594 24.820312-20.355469 39.855469 34.625 17.269531 56.722656 52.691406 56.722656 91.617187 0 29.09375-12.441406 56.914063-34.132812 76.328125-19.027344 17.023438-42.859375 26.078125-68.09375 26.078125zm-65.613281-252.59375 9.0625 9.0625c14.179687 14.171875 23.019531 32.980469 24.898437 52.941406.273437 2.933594-1.367187 5.710938-4.058594 6.890626-37.199219 16.292968-58.179687 54.414062-52.199219 94.859374 5.738282 38.882813 38.347657 70.253907 77.53125 74.609376 25.65625 2.875 50.308594-4.953126 69.367188-22.019532 18.800781-16.832031 29.585938-40.945312 29.585938-66.15625 0-35.226562-20.886719-67.132812-53.207032-81.292968-2.699218-1.179688-4.332031-3.960938-4.0625-6.894532 1.882813-19.957031 10.722656-38.765625 24.902344-52.941406l9.058594-9.058594zm0 0"/><path d="m88.746094 191.621094c0 3.769531-3.054688 6.824218-6.824219 6.824218s-6.828125-3.054687-6.828125-6.824218c0-3.769532 3.058594-6.828125 6.828125-6.828125s6.824219 3.058593 6.824219 6.828125zm0 0"/><path d="m129.707031 164.3125c0 3.773438-3.054687 6.828125-6.824219 6.828125-3.773437 0-6.828124-3.054687-6.828124-6.828125 0-3.769531 3.054687-6.824219 6.828124-6.824219 3.769532 0 6.824219 3.054688 6.824219 6.824219zm0 0"/><path d="m163.839844 253.0625c0 3.769531-3.054688 6.824219-6.824219 6.824219s-6.828125-3.054688-6.828125-6.824219c0-3.773438 3.058594-6.828125 6.828125-6.828125s6.824219 3.054687 6.824219 6.828125zm0 0"/><path d="m116.054688 239.40625c0 3.769531-3.054688 6.828125-6.828126 6.828125-3.769531 0-6.824218-3.058594-6.824218-6.828125s3.054687-6.824219 6.824218-6.824219c3.773438 0 6.828126 3.054688 6.828126 6.824219zm0 0"/><path d="m122.882812 287.195312c0 3.769532-3.058593 6.824219-6.828124 6.824219-3.769532 0-6.828126-3.054687-6.828126-6.824219 0-3.773437 3.058594-6.828124 6.828126-6.828124 3.769531 0 6.828124 3.054687 6.828124 6.828124zm0 0"/><path d="m150.1875 198.445312c0 3.773438-3.054688 6.828126-6.828125 6.828126-3.769531 0-6.824219-3.054688-6.824219-6.828126 0-3.769531 3.054688-6.824218 6.824219-6.824218 3.773437 0 6.828125 3.054687 6.828125 6.824218zm0 0"/><path d="m75.09375 232.582031c0 3.769531-3.054688 6.824219-6.824219 6.824219-3.773437 0-6.828125-3.054688-6.828125-6.824219 0-3.773437 3.054688-6.828125 6.828125-6.828125 3.769531 0 6.824219 3.054688 6.824219 6.828125zm0 0"/><path d="m184.320312 123.355469c-33.878906 0-61.4375-27.5625-61.4375-61.441407 0-33.882812 27.558594-61.441406 61.4375-61.441406 33.882813 0 61.441407 27.558594 61.441407 61.441406 0 33.878907-27.558594 61.441407-61.441407 61.441407zm0-109.226563c-26.347656 0-47.785156 21.4375-47.785156 47.785156 0 26.347657 21.4375 47.785157 47.785156 47.785157 26.347657 0 47.789063-21.4375 47.789063-47.785157 0-26.347656-21.441406-47.785156-47.789063-47.785156zm0 0"/><path d="m184.320312 92.148438c-16.671874 0-30.234374-13.558594-30.234374-30.234376 0-16.675781 13.5625-30.234374 30.234374-30.234374 16.671876 0 30.234376 13.558593 30.234376 30.234374 0 16.675782-13.558594 30.234376-30.234376 30.234376zm0-46.816407c-9.136718 0-16.578124 7.441407-16.578124 16.582031 0 9.140626 7.4375 16.582032 16.578124 16.582032 9.140626 0 16.582032-7.441406 16.582032-16.582032 0-9.140624-7.441406-16.582031-16.582032-16.582031zm0 0"/><path d="m47.789062 205.273438c0 3.769531-3.058593 6.828124-6.828124 6.828124-3.769532 0-6.828126-3.058593-6.828126-6.828124 0-3.769532 3.058594-6.828126 6.828126-6.828126 3.769531 0 6.828124 3.058594 6.828124 6.828126zm0 0"/><path d="m145.921875 123.355469h-87.039063c-2.808593 0-5.320312-1.714844-6.355468-4.328125-3.699219-9.398438-9.140625-17.726563-16.160156-24.746094l-20.710938-20.714844c-1.957031-1.953125-2.542969-4.886718-1.480469-7.4375 1.050781-2.554687 3.546875-4.214844 6.304688-4.214844h163.839843c2.761719 0 5.253907 1.660157 6.308594 4.214844 1.058594 2.550782.472656 5.484375-1.480468 7.4375l-20.714844 20.714844c-7.019532 7.019531-12.460938 15.347656-16.160156 24.746094-1.03125 2.613281-3.542969 4.328125-6.351563 4.328125zm-82.527344-13.65625h78.015625c4.285156-9.398438 10.113282-17.816407 17.371094-25.070313l9.058594-9.0625h-130.878906l9.0625 9.0625c7.257812 7.253906 13.085937 15.671875 17.371093 25.070313zm0 0"/><path d="m78.042969 303.632812c-.734375 0-1.480469-.117187-2.214844-.367187-25.101563-8.605469-44.550781-28.925781-52.027344-54.359375-1.066406-3.621094 1.007813-7.414062 4.621094-8.472656 3.679687-1.09375 7.414063 1.011718 8.472656 4.621094 6.234375 21.191406 22.441407 38.125 43.359375 45.292968 3.570313 1.226563 5.46875 5.105469 4.246094 8.671875-.972656 2.835938-3.617188 4.613281-6.457031 4.613281zm0 0"/><path d="m102.402344 389.59375c-3.773438 0-6.828125-3.054688-6.828125-6.828125v-61.4375c0-3.773437 3.054687-6.828125 6.828125-6.828125 3.773437 0 6.824218 3.054688 6.824218 6.828125v61.4375c0 3.773437-3.050781 6.828125-6.824218 6.828125zm0 0"/><path d="m143.359375 396.421875h-81.917969c-3.773437 0-6.828125-3.054687-6.828125-6.828125s3.054688-6.828125 6.828125-6.828125h81.917969c3.773437 0 6.828125 3.054687 6.828125 6.828125s-3.054688 6.828125-6.828125 6.828125zm0 0"/><path d="m88.746094 123.355469c-2.671875 0-5.207032-1.582031-6.296875-4.203125l-33.066407-79.367188-45.242187-19.382812c-3.464844-1.488282-5.074219-5.503906-3.585937-8.960938 1.484374-3.472656 5.519531-5.082031 8.960937-3.585937l47.785156 20.476562c1.632813.703125 2.933594 2.007813 3.613281 3.648438l34.132813 81.921875c1.453125 3.476562-.191406 7.480468-3.671875 8.925781-.859375.359375-1.746094.527344-2.628906.527344zm0 0"/><path d="m375.46875 396.421875h-102.402344c-3.773437 0-6.824218-3.054687-6.824218-6.828125s3.050781-6.828125 6.824218-6.828125h102.402344c3.773438 0 6.824219 3.054687 6.824219 6.828125s-3.050781 6.828125-6.824219 6.828125zm0 0"/></svg>