<svg height="395pt" viewBox="0 -23 395.94667 395" width="395pt" xmlns="http://www.w3.org/2000/svg"><path d="m389.121094 253.058594c-3.773438 0-6.828125-3.050782-6.828125-6.824219v-81.921875h-33.851563c-3.773437 0-6.828125-3.050781-6.828125-6.824219 0-3.773437 3.054688-6.828125 6.828125-6.828125h40.679688c3.773437 0 6.824218 3.054688 6.824218 6.828125v88.746094c0 3.773437-3.050781 6.824219-6.824218 6.824219zm0 0"/><path d="m6.828125 253.058594c-3.773437 0-6.828125-3.050782-6.828125-6.824219v-88.746094c0-3.773437 3.054688-6.828125 6.828125-6.828125h175.617187c3.773438 0 6.828126 3.054688 6.828126 6.828125 0 3.773438-3.054688 6.824219-6.828126 6.824219h-168.792968v81.921875c0 3.773437-3.050782 6.824219-6.824219 6.824219zm0 0"/><path d="m228.691406 341.808594h-221.863281c-3.773437 0-6.828125-3.054688-6.828125-6.828125v-88.746094c0-3.773437 3.054688-6.828125 6.828125-6.828125h150.183594c3.773437 0 6.828125 3.054688 6.828125 6.828125s-3.054688 6.824219-6.828125 6.824219h-143.359375v75.09375h215.039062c3.773438 0 6.828125 3.054687 6.828125 6.828125 0 3.773437-3.054687 6.828125-6.828125 6.828125zm0 0"/><path d="m389.121094 341.808594h-81.359375c-3.773438 0-6.828125-3.054688-6.828125-6.828125 0-3.773438 3.054687-6.828125 6.828125-6.828125h74.53125v-75.09375h-6.828125c-3.773438 0-6.824219-3.050782-6.824219-6.824219s3.050781-6.828125 6.824219-6.828125h13.65625c3.773437 0 6.824218 3.054688 6.824218 6.828125v88.746094c0 3.773437-3.050781 6.828125-6.824218 6.828125zm0 0"/><path d="m182.453125 164.3125h-175.625c-3.773437 0-6.828125-3.050781-6.828125-6.824219v-75.09375c0-3.773437 3.054688-6.828125 6.828125-6.828125h184.320313c3.300781 0 6.125 2.359375 6.710937 5.605469l10.554687 58.054687c.679688 3.707032-1.78125 7.261719-5.492187 7.933594-3.699219.726563-7.269531-1.78125-7.933594-5.496094l-9.542969-52.445312h-171.792968v61.441406h168.800781c3.773437 0 6.828125 3.054688 6.828125 6.828125 0 3.773438-3.054688 6.824219-6.828125 6.824219zm0 0"/><path d="m177.492188 341.808594h-27.304688c-3.773438 0-6.828125-3.054688-6.828125-6.828125v-40.960938c0-11.292969 9.1875-20.480469 20.480469-20.480469 3.773437 0 6.828125 3.054688 6.828125 6.828126 0 3.773437-3.054688 6.824218-6.828125 6.824218-3.765625 0-6.828125 3.0625-6.828125 6.828125v34.132813h13.65625v-26.90625c0-3.773438 3.050781-6.828125 6.824219-6.828125 3.773437 0 6.828124 3.054687 6.828124 6.828125v33.734375c0 3.773437-3.054687 6.828125-6.828124 6.828125zm0 0"/><path d="m122.878906 341.808594h-27.304687c-3.773438 0-6.828125-3.054688-6.828125-6.828125v-40.960938c0-11.292969 9.1875-20.480469 20.480468-20.480469 11.292969 0 20.480469 9.1875 20.480469 20.480469v40.960938c0 3.773437-3.054687 6.828125-6.828125 6.828125zm-20.480468-13.65625h13.65625v-34.132813c0-3.765625-3.0625-6.828125-6.828126-6.828125-3.765624 0-6.828124 3.0625-6.828124 6.828125zm0 0"/><path d="m122.878906 89.21875h-116.050781c-3.773437 0-6.828125-3.050781-6.828125-6.824219v-75.09375c0-3.773437 3.054688-6.828125 6.828125-6.828125h95.570313c3.082031 0 5.773437 2.0625 6.585937 5.035156l20.480469 75.09375c.5625 2.042969.132812 4.246094-1.160156 5.9375-1.292969 1.6875-3.296876 2.679688-5.425782 2.679688zm-109.226562-13.652344h100.289062l-16.753906-61.441406h-83.535156zm0 0"/><path d="m266.238281 348.632812c-63.992187 0-116.050781-52.058593-116.050781-116.054687 0-63.992187 52.058594-116.050781 116.050781-116.050781 63.996094 0 116.054688 52.058594 116.054688 116.050781 0 63.996094-52.058594 116.054687-116.054688 116.054687zm0-218.453124c-56.464843 0-102.398437 45.933593-102.398437 102.398437 0 56.46875 45.933594 102.402344 102.398437 102.402344 56.46875 0 102.402344-45.933594 102.402344-102.402344 0-56.464844-45.933594-102.398437-102.402344-102.398437zm0 0"/><path d="m266.238281 273.539062c-16.351562 0-31.34375-5.765624-40.113281-15.417968-2.53125-2.789063-2.324219-7.105469.46875-9.640625 2.785156-2.519531 7.105469-2.324219 9.636719.464843 6.128906 6.75 17.628906 10.941407 30.007812 10.941407 12.238281 0 23.679688-4.125 29.847657-10.765625 2.550781-2.769532 6.878906-2.921875 9.644531-.355469 2.761719 2.566406 2.921875 6.886719.351562 9.644531-8.789062 9.476563-23.6875 15.128906-39.84375 15.128906zm0 0"/><path d="m218.453125 184.792969c0 7.539062-6.113281 13.652343-13.652344 13.652343-7.542969 0-13.652343-6.113281-13.652343-13.652343 0-7.539063 6.109374-13.652344 13.652343-13.652344 7.539063 0 13.652344 6.113281 13.652344 13.652344zm0 0"/><path d="m341.332031 184.792969c0 7.539062-6.113281 13.652343-13.652343 13.652343-7.539063 0-13.652344-6.113281-13.652344-13.652343 0-7.539063 6.113281-13.652344 13.652344-13.652344 7.539062 0 13.652343 6.113281 13.652343 13.652344zm0 0"/><path d="m68.265625 164.3125h-27.304687c-3.773438 0-6.828126-3.050781-6.828126-6.824219v-40.960937c0-11.292969 9.1875-20.480469 20.480469-20.480469s20.480469 9.1875 20.480469 20.480469v40.960937c0 3.773438-3.054688 6.824219-6.828125 6.824219zm-20.480469-13.652344h13.65625v-34.132812c0-3.765625-3.0625-6.828125-6.828125-6.828125s-6.828125 3.0625-6.828125 6.828125zm0 0"/><path d="m68.265625 341.808594h-27.304687c-3.773438 0-6.828126-3.054688-6.828126-6.828125v-40.960938c0-11.292969 9.1875-20.480469 20.480469-20.480469s20.480469 9.1875 20.480469 20.480469v40.960938c0 3.773437-3.054688 6.828125-6.828125 6.828125zm-20.480469-13.65625h13.65625v-34.132813c0-3.765625-3.0625-6.828125-6.828125-6.828125s-6.828125 3.0625-6.828125 6.828125zm0 0"/><path d="m122.878906 164.3125h-27.304687c-3.773438 0-6.828125-3.050781-6.828125-6.824219v-40.960937c0-11.292969 9.1875-20.480469 20.480468-20.480469 11.292969 0 20.480469 9.1875 20.480469 20.480469 0 3.773437-3.054687 6.824218-6.828125 6.824218-3.773437 0-6.824218-3.050781-6.824218-6.824218 0-3.765625-3.0625-6.828125-6.828126-6.828125-3.765624 0-6.828124 3.0625-6.828124 6.828125v34.132812h20.480468c3.773438 0 6.828125 3.054688 6.828125 6.828125 0 3.773438-3.054687 6.824219-6.828125 6.824219zm0 0"/><path d="m177.492188 164.3125h-27.304688c-3.773438 0-6.828125-3.050781-6.828125-6.824219v-40.960937c0-11.292969 9.1875-20.480469 20.480469-20.480469 11.292968 0 20.480468 9.1875 20.480468 20.480469v40.960937c0 3.773438-3.054687 6.824219-6.828124 6.824219zm-20.480469-13.652344h13.65625v-34.132812c0-3.765625-3.0625-6.828125-6.828125-6.828125s-6.828125 3.0625-6.828125 6.828125zm0 0"/><path d="m68.265625 253.058594h-27.304687c-3.773438 0-6.828126-3.050782-6.828126-6.824219v-40.960937c0-3.773438 3.054688-6.828126 6.828126-6.828126 3.773437 0 6.824218 3.054688 6.824218 6.828126v34.132812h13.65625v-34.132812c0-3.773438 3.050782-6.828126 6.824219-6.828126s6.828125 3.054688 6.828125 6.828126v40.960937c0 3.773437-3.054688 6.824219-6.828125 6.824219zm0 0"/><path d="m122.878906 253.058594h-27.304687c-3.773438 0-6.828125-3.050782-6.828125-6.824219v-40.960937c0-11.292969 9.1875-20.480469 20.480468-20.480469 3.773438 0 6.828126 3.054687 6.828126 6.828125 0 3.773437-3.054688 6.824218-6.828126 6.824218-3.765624 0-6.828124 3.0625-6.828124 6.828126v34.132812h20.480468c3.773438 0 6.828125 3.054688 6.828125 6.828125s-3.054687 6.824219-6.828125 6.824219zm0 0"/><path d="m27.308594 34.605469h20.476562v20.480469h-20.476562zm0 0"/><path d="m61.441406 34.605469h20.480469v20.480469h-20.480469zm0 0"/></svg>