<svg height="409pt" viewBox="0 -13 409.6 409" width="409pt" xmlns="http://www.w3.org/2000/svg"><path d="m27.308594 382.59375c-3.773438 0-6.828125-3.054688-6.828125-6.828125 0-52.699219 42.871093-95.574219 95.574219-95.574219 3.773437 0 6.824218 3.054688 6.824218 6.828125 0 3.773438-3.050781 6.828125-6.824218 6.828125-45.175782 0-81.921876 36.746094-81.921876 81.917969 0 3.773437-3.050781 6.828125-6.824218 6.828125zm0 0"/><path d="m195.019531 293.847656h-35.371093c-3.773438 0-6.828126-3.054687-6.828126-6.828125 0-3.773437 3.054688-6.828125 6.828126-6.828125h35.371093c3.773438 0 6.828125 3.054688 6.828125 6.828125 0 3.773438-3.054687 6.828125-6.828125 6.828125zm0 0"/><path d="m402.773438 382.59375c-3.773438 0-6.828126-3.054688-6.828126-6.828125v-81.917969h-16.765624c-3.773438 0-6.824219-3.054687-6.824219-6.828125 0-3.773437 3.050781-6.828125 6.824219-6.828125h23.59375c3.773437 0 6.828124 3.054688 6.828124 6.828125v88.746094c0 3.773437-3.054687 6.828125-6.828124 6.828125zm0 0"/><path d="m157.011719 314.328125h-40.957031c-3.773438 0-6.828126-3.054687-6.828126-6.828125v-232.105469c0-3.773437 3.054688-6.828125 6.828126-6.828125h40.957031c3.773437 0 6.828125 3.054688 6.828125 6.828125v232.105469c0 3.773438-3.054688 6.828125-6.828125 6.828125zm-34.132813-13.65625h27.308594v-218.453125h-27.308594zm0 0"/><path d="m238.933594 82.21875h-184.320313c-1.417969 0-2.8125-.445312-3.964843-1.273438l-47.789063-34.132812c-1.792969-1.277344-2.859375-3.347656-2.859375-5.550781 0-2.207031 1.066406-4.273438 2.859375-5.554688l47.789063-34.132812c1.152343-.828125 2.546874-1.273438 3.964843-1.273438h184.320313c3.773437 0 6.828125 3.050781 6.828125 6.824219v68.269531c0 3.773438-3.054688 6.824219-6.828125 6.824219zm-182.132813-13.652344h175.304688v-54.613281h-175.304688l-38.226562 27.308594zm0 0"/><path d="m211.625 54.914062h-40.957031c-3.773438 0-6.828125-3.054687-6.828125-6.828124 0-3.773438 3.054687-6.824219 6.828125-6.824219h40.957031c3.773438 0 6.828125 3.050781 6.828125 6.824219 0 3.773437-3.054687 6.828124-6.828125 6.828124zm0 0"/><path d="m143.359375 34.433594h-40.960937c-3.773438 0-6.824219-3.054688-6.824219-6.828125 0-3.773438 3.050781-6.824219 6.824219-6.824219h40.960937c3.773437 0 6.828125 3.050781 6.828125 6.824219 0 3.773437-3.054688 6.828125-6.828125 6.828125zm0 0"/><path d="m102.398438 54.914062h-34.132813c-3.773437 0-6.824219-3.054687-6.824219-6.828124 0-3.773438 3.050782-6.824219 6.824219-6.824219h34.132813c3.773437 0 6.828124 3.050781 6.828124 6.824219 0 3.773437-3.054687 6.828124-6.828124 6.828124zm0 0"/><path d="m191.148438 34.433594h-27.308594c-3.773438 0-6.828125-3.054688-6.828125-6.828125 0-3.773438 3.054687-6.824219 6.828125-6.824219h27.308594c3.773437 0 6.824218 3.050781 6.824218 6.824219 0 3.773437-3.050781 6.828125-6.824218 6.828125zm0 0"/><path d="m286.71875 341.632812c-63.992188 0-116.050781-52.058593-116.050781-116.054687 0-63.992187 52.058593-116.050781 116.050781-116.050781 63.996094 0 116.054688 52.058594 116.054688 116.050781 0 63.996094-52.058594 116.054687-116.054688 116.054687zm0-218.453124c-56.464844 0-102.398438 45.933593-102.398438 102.398437 0 56.46875 45.933594 102.402344 102.398438 102.402344 56.46875 0 102.402344-45.933594 102.402344-102.402344 0-56.464844-45.933594-102.398437-102.402344-102.398437zm0 0"/><path d="m286.71875 266.539062c-16.351562 0-31.34375-5.765624-40.113281-15.417968-2.53125-2.789063-2.324219-7.105469.46875-9.640625 2.785156-2.519531 7.105469-2.324219 9.636719.464843 6.128906 6.75 17.628906 10.941407 30.007812 10.941407 12.238281 0 23.679688-4.125 29.847656-10.765625 2.550782-2.769532 6.878906-2.921875 9.644532-.355469 2.757812 2.566406 2.917968 6.886719.351562 9.644531-8.789062 9.476563-23.6875 15.128906-39.84375 15.128906zm0 0"/><path d="m238.933594 177.792969c0 7.539062-6.113282 13.652343-13.652344 13.652343-7.542969 0-13.65625-6.113281-13.65625-13.652343 0-7.539063 6.113281-13.652344 13.65625-13.652344 7.539062 0 13.652344 6.113281 13.652344 13.652344zm0 0"/><path d="m361.8125 177.792969c0 7.539062-6.113281 13.652343-13.652344 13.652343-7.539062 0-13.652344-6.113281-13.652344-13.652343 0-7.539063 6.113282-13.652344 13.652344-13.652344 7.539063 0 13.652344 6.113281 13.652344 13.652344zm0 0"/></svg>