<svg height="409pt" viewBox="0 -13 409.6 409" width="409pt" xmlns="http://www.w3.org/2000/svg"><path d="m27.308594 382.59375c-3.773438 0-6.828125-3.054688-6.828125-6.828125 0-51.792969 40.519531-93.746094 92.253906-95.511719 3.820313-.234375 6.925781 2.820313 7.054687 6.585938.132813 3.765625-2.820312 6.925781-6.585937 7.054687-44.335937 1.519531-79.070313 37.476563-79.070313 81.871094 0 3.773437-3.050781 6.828125-6.824218 6.828125zm0 0"/><path d="m193.59375 293.847656h-34.09375c-3.773438 0-6.828125-3.054687-6.828125-6.828125 0-3.773437 3.054687-6.828125 6.828125-6.828125h34.09375c3.773438 0 6.828125 3.054688 6.828125 6.828125 0 3.773438-3.054687 6.828125-6.828125 6.828125zm0 0"/><path d="m402.773438 382.59375c-3.773438 0-6.828126-3.054688-6.828126-6.828125v-81.917969h-15.964843c-3.773438 0-6.828125-3.054687-6.828125-6.828125 0-3.773437 3.054687-6.828125 6.828125-6.828125h22.792969c3.773437 0 6.828124 3.054688 6.828124 6.828125v88.746094c0 3.773437-3.054687 6.828125-6.828124 6.828125zm0 0"/><path d="m157.011719 314.328125h-40.957031c-3.773438 0-6.828126-3.054687-6.828126-6.828125v-129.707031c0-3.773438 3.054688-6.828125 6.828126-6.828125h40.957031c3.773437 0 6.828125 3.054687 6.828125 6.828125v129.707031c0 3.773438-3.054688 6.828125-6.828125 6.828125zm-34.132813-13.65625h27.308594v-116.050781h-27.308594zm0 0"/><path d="m157.011719 116.351562h-40.957031c-3.773438 0-6.828126-3.050781-6.828126-6.824218v-34.132813c0-3.773437 3.054688-6.828125 6.828126-6.828125h40.957031c3.773437 0 6.828125 3.054688 6.828125 6.828125v34.132813c0 3.773437-3.054688 6.824218-6.828125 6.824218zm-34.132813-13.652343h27.308594v-20.480469h-27.308594zm0 0"/><path d="m185.945312 184.621094h-131.332031c-1.417969 0-2.8125-.449219-3.964843-1.273438l-47.789063-34.132812c-1.792969-1.28125-2.859375-3.347656-2.859375-5.554688 0-2.207031 1.066406-4.273437 2.859375-5.554687l47.789063-34.132813c1.152343-.824218 2.546874-1.273437 3.964843-1.273437h184.320313c3.773437 0 6.828125 3.054687 6.828125 6.828125v16.007812c0 3.773438-3.054688 6.824219-6.828125 6.824219-3.773438 0-6.828125-3.050781-6.828125-6.824219v-9.183594h-175.304688l-38.226562 27.308594 38.226562 27.304688h129.144531c3.773438 0 6.828126 3.054687 6.828126 6.828125 0 3.773437-3.054688 6.828125-6.828126 6.828125zm0 0"/><path d="m204.800781 157.3125h-34.132812c-3.773438 0-6.828125-3.050781-6.828125-6.824219 0-3.773437 3.054687-6.828125 6.828125-6.828125h34.132812c3.773438 0 6.824219 3.054688 6.824219 6.828125 0 3.773438-3.050781 6.824219-6.824219 6.824219zm0 0"/><path d="m143.359375 136.832031h-40.960937c-3.773438 0-6.824219-3.050781-6.824219-6.824219 0-3.773437 3.050781-6.828124 6.824219-6.828124h40.960937c3.773437 0 6.828125 3.054687 6.828125 6.828124 0 3.773438-3.054688 6.824219-6.828125 6.824219zm0 0"/><path d="m102.398438 157.3125h-34.132813c-3.773437 0-6.824219-3.050781-6.824219-6.824219 0-3.773437 3.050782-6.828125 6.824219-6.828125h34.132813c3.773437 0 6.828124 3.054688 6.828124 6.828125 0 3.773438-3.054687 6.824219-6.828124 6.824219zm0 0"/><path d="m191.148438 136.832031h-27.308594c-3.773438 0-6.828125-3.050781-6.828125-6.824219 0-3.773437 3.054687-6.828124 6.828125-6.828124h27.308594c3.773437 0 6.824218 3.054687 6.824218 6.828124 0 3.773438-3.050781 6.824219-6.824218 6.824219zm0 0"/><path d="m211.625 82.21875h-184.316406c-3.773438 0-6.828125-3.050781-6.828125-6.824219v-68.269531c0-3.773438 3.054687-6.824219 6.828125-6.824219h184.316406c1.421875 0 2.8125.445313 3.96875 1.273438l47.785156 34.132812c1.792969 1.28125 2.859375 3.347657 2.859375 5.554688 0 2.203125-1.066406 4.273437-2.859375 5.550781l-47.785156 34.132812c-1.15625.828126-2.546875 1.273438-3.96875 1.273438zm-177.492188-13.652344h175.308594l38.226563-27.304687-38.226563-27.308594h-175.308594zm0 0"/><path d="m95.574219 54.914062h-40.960938c-3.773437 0-6.828125-3.054687-6.828125-6.828124 0-3.773438 3.054688-6.824219 6.828125-6.824219h40.960938c3.773437 0 6.824219 3.050781 6.824219 6.824219 0 3.773437-3.050782 6.828124-6.824219 6.828124zm0 0"/><path d="m163.839844 34.433594h-40.960938c-3.773437 0-6.824218-3.054688-6.824218-6.828125 0-3.773438 3.050781-6.824219 6.824218-6.824219h40.960938c3.773437 0 6.828125 3.050781 6.828125 6.824219 0 3.773437-3.054688 6.828125-6.828125 6.828125zm0 0"/><path d="m197.972656 54.914062h-34.132812c-3.773438 0-6.828125-3.054687-6.828125-6.828124 0-3.773438 3.054687-6.824219 6.828125-6.824219h34.132812c3.773438 0 6.828125 3.050781 6.828125 6.824219 0 3.773437-3.054687 6.828124-6.828125 6.828124zm0 0"/><path d="m102.398438 34.433594h-27.304688c-3.773438 0-6.828125-3.054688-6.828125-6.828125 0-3.773438 3.054687-6.824219 6.828125-6.824219h27.304688c3.773437 0 6.828124 3.050781 6.828124 6.824219 0 3.773437-3.054687 6.828125-6.828124 6.828125zm0 0"/><path d="m286.71875 341.632812c-63.992188 0-116.050781-52.058593-116.050781-116.054687 0-63.992187 52.058593-116.050781 116.050781-116.050781 63.996094 0 116.054688 52.058594 116.054688 116.050781 0 63.996094-52.058594 116.054687-116.054688 116.054687zm0-218.453124c-56.464844 0-102.398438 45.933593-102.398438 102.398437 0 56.46875 45.933594 102.402344 102.398438 102.402344 56.46875 0 102.402344-45.933594 102.402344-102.402344 0-56.464844-45.933594-102.398437-102.402344-102.398437zm0 0"/><path d="m286.71875 266.539062c-16.351562 0-31.34375-5.765624-40.113281-15.417968-2.53125-2.789063-2.324219-7.105469.46875-9.640625 2.785156-2.519531 7.097656-2.324219 9.636719.464843 6.128906 6.75 17.628906 10.941407 30.007812 10.941407 12.238281 0 23.679688-4.125 29.847656-10.765625 2.558594-2.769532 6.882813-2.921875 9.644532-.355469 2.757812 2.566406 2.917968 6.886719.351562 9.644531-8.789062 9.476563-23.6875 15.128906-39.84375 15.128906zm0 0"/><path d="m238.933594 177.792969c0 7.539062-6.113282 13.652343-13.652344 13.652343-7.542969 0-13.65625-6.113281-13.65625-13.652343 0-7.539063 6.113281-13.652344 13.65625-13.652344 7.539062 0 13.652344 6.113281 13.652344 13.652344zm0 0"/><path d="m361.8125 177.792969c0 7.539062-6.113281 13.652343-13.652344 13.652343-7.539062 0-13.652344-6.113281-13.652344-13.652343 0-7.539063 6.113282-13.652344 13.652344-13.652344 7.539063 0 13.652344 6.113281 13.652344 13.652344zm0 0"/></svg>