<svg height="389pt" viewBox="0 -3 389.12 389" width="389pt" xmlns="http://www.w3.org/2000/svg"><path d="m6.828125 382.351562c-3.773437 0-6.828125-3.050781-6.828125-6.824218 0-51.65625 41.992188-94.515625 93.613281-95.554688 3.941407.0625 6.894531 2.929688 6.96875 6.6875.070313 3.773438-2.921875 6.886719-6.6875 6.96875-44.246093.882813-80.242187 37.625-80.242187 81.898438 0 3.773437-3.050782 6.824218-6.824219 6.824218zm0 0"/><path d="m174.367188 293.605469h-34.734376c-3.773437 0-6.828124-3.050781-6.828124-6.824219s3.054687-6.828125 6.828124-6.828125h34.734376c3.773437 0 6.828124 3.054687 6.828124 6.828125s-3.054687 6.824219-6.828124 6.824219zm0 0"/><path d="m382.292969 382.351562c-3.773438 0-6.828125-3.050781-6.828125-6.824218v-81.921875h-17.25c-3.773438 0-6.828125-3.050781-6.828125-6.824219s3.054687-6.828125 6.828125-6.828125h24.078125c3.773437 0 6.828125 3.054687 6.828125 6.828125v88.746094c0 3.773437-3.054688 6.824218-6.828125 6.824218zm0 0"/><path d="m136.535156 314.085938h-40.960937c-3.773438 0-6.828125-3.050782-6.828125-6.824219v-232.109375c0-3.773438 3.054687-6.824219 6.828125-6.824219h40.960937c3.773438 0 6.824219 3.050781 6.824219 6.824219v232.109375c0 3.773437-3.050781 6.824219-6.824219 6.824219zm-34.136718-13.652344h27.308593v-218.453125h-27.308593zm0 0"/><path d="m191.148438 81.980469h-184.320313c-3.773437 0-6.828125-3.054688-6.828125-6.828125v-68.265625c0-3.773438 3.054688-6.8281252 6.828125-6.8281252h184.320313c1.417968 0 2.8125.4492182 3.964843 1.2734372l47.785157 34.132813c1.792968 1.28125 2.863281 3.347656 2.863281 5.554687s-1.070313 4.273438-2.863281 5.554688l-47.785157 34.132812c-1.152343.824219-2.546875 1.273438-3.964843 1.273438zm-177.496094-13.652344h175.308594l38.226562-27.308594-38.226562-27.304687h-175.308594zm0 0"/><path d="m75.09375 54.671875h-40.960938c-3.773437 0-6.824218-3.050781-6.824218-6.824219 0-3.773437 3.050781-6.828125 6.824218-6.828125h40.960938c3.773438 0 6.828125 3.054688 6.828125 6.828125 0 3.773438-3.054687 6.824219-6.828125 6.824219zm0 0"/><path d="m143.359375 34.191406h-40.960937c-3.773438 0-6.824219-3.050781-6.824219-6.824218 0-3.773438 3.050781-6.828126 6.824219-6.828126h40.960937c3.773437 0 6.828125 3.054688 6.828125 6.828126 0 3.773437-3.054688 6.824218-6.828125 6.824218zm0 0"/><path d="m177.492188 54.671875h-34.132813c-3.773437 0-6.824219-3.050781-6.824219-6.824219 0-3.773437 3.050782-6.828125 6.824219-6.828125h34.132813c3.773437 0 6.828124 3.054688 6.828124 6.828125 0 3.773438-3.054687 6.824219-6.828124 6.824219zm0 0"/><path d="m81.921875 34.191406h-27.308594c-3.773437 0-6.828125-3.050781-6.828125-6.824218 0-3.773438 3.054688-6.828126 6.828125-6.828126h27.308594c3.773437 0 6.824219 3.054688 6.824219 6.828126 0 3.773437-3.050782 6.824218-6.824219 6.824218zm0 0"/><path d="m266.238281 341.394531c-63.992187 0-116.050781-52.0625-116.050781-116.054687 0-63.992188 52.058594-116.054688 116.050781-116.054688 63.996094 0 116.054688 52.0625 116.054688 116.054688 0 63.992187-52.058594 116.054687-116.054688 116.054687zm0-218.453125c-56.464843 0-102.398437 45.933594-102.398437 102.398438 0 56.46875 45.933594 102.398437 102.398437 102.398437 56.46875 0 102.402344-45.929687 102.402344-102.398437 0-56.464844-45.933594-102.398438-102.402344-102.398438zm0 0"/><path d="m266.238281 266.300781c-16.351562 0-31.34375-5.769531-40.113281-15.421875-2.53125-2.785156-2.324219-7.105468.46875-9.636718 2.785156-2.523438 7.105469-2.328126 9.636719.464843 6.128906 6.746094 17.628906 10.941407 30.007812 10.941407 12.238281 0 23.679688-4.128907 29.847657-10.769532 2.550781-2.765625 6.886718-2.917968 9.644531-.351562 2.761719 2.566406 2.921875 6.886718.351562 9.644531-8.789062 9.476563-23.6875 15.128906-39.84375 15.128906zm0 0"/><path d="m218.453125 177.554688c0 7.539062-6.113281 13.652343-13.652344 13.652343-7.542969 0-13.652343-6.113281-13.652343-13.652343 0-7.542969 6.109374-13.65625 13.652343-13.65625 7.539063 0 13.652344 6.113281 13.652344 13.65625zm0 0"/><path d="m341.332031 177.554688c0 7.539062-6.113281 13.652343-13.652343 13.652343-7.539063 0-13.652344-6.113281-13.652344-13.652343 0-7.542969 6.113281-13.65625 13.652344-13.65625 7.539062 0 13.652343 6.113281 13.652343 13.65625zm0 0"/></svg>