<svg height="416.42667pt" viewBox="0 0 416.42667 416.42667" width="416.42667pt" xmlns="http://www.w3.org/2000/svg"><path d="m300.375 232.105469c-63.996094 0-116.054688-52.058594-116.054688-116.050781 0-63.996094 52.058594-116.054688 116.054688-116.054688 63.992188 0 116.050781 52.058594 116.050781 116.054688 0 63.992187-52.058593 116.050781-116.050781 116.050781zm0-218.453125c-56.46875 0-102.402344 45.933594-102.402344 102.402344 0 56.464843 45.933594 102.398437 102.402344 102.398437 56.464844 0 102.398438-45.933594 102.398438-102.398437 0-56.46875-45.933594-102.402344-102.398438-102.402344zm0 0"/><path d="m300.375 157.011719c-16.355469 0-31.347656-5.765625-40.113281-15.417969-2.535157-2.789062-2.328125-7.105469.464843-9.640625 2.785157-2.519531 7.105469-2.332031 9.636719.46875 6.128907 6.746094 17.628907 10.9375 30.007813 10.9375 12.242187 0 23.679687-4.125 29.847656-10.765625 2.550781-2.769531 6.886719-2.921875 9.644531-.355469 2.761719 2.566407 2.921875 6.886719.355469 9.648438-8.792969 9.472656-23.691406 15.125-39.84375 15.125zm0 0"/><path d="m252.585938 68.265625c0 7.542969-6.113282 13.65625-13.652344 13.65625-7.539063 0-13.652344-6.113281-13.652344-13.65625 0-7.539063 6.113281-13.652344 13.652344-13.652344 7.539062 0 13.652344 6.113281 13.652344 13.652344zm0 0"/><path d="m375.464844 68.265625c0 7.542969-6.109375 13.65625-13.652344 13.65625-7.539062 0-13.652344-6.113281-13.652344-13.65625 0-7.539063 6.113282-13.652344 13.652344-13.652344 7.542969 0 13.652344 6.113281 13.652344 13.652344zm0 0"/><path d="m327.679688 252.585938c0 7.542968-6.113282 13.652343-13.652344 13.652343-7.542969 0-13.652344-6.109375-13.652344-13.652343 0-7.539063 6.109375-13.652344 13.652344-13.652344 7.539062 0 13.652344 6.113281 13.652344 13.652344zm0 0"/><path d="m61.441406 402.773438c0 7.539062-6.113281 13.652343-13.65625 13.652343-7.539062 0-13.652344-6.113281-13.652344-13.652343 0-7.539063 6.113282-13.652344 13.652344-13.652344 7.542969 0 13.65625 6.113281 13.65625 13.652344zm0 0"/><path d="m358.398438 409.601562h-296.957032c-3.773437 0-6.828125-3.054687-6.828125-6.828124 0-3.773438 3.054688-6.828126 6.828125-6.828126h296.957032c16.941406 0 30.722656-13.777343 30.722656-30.71875 0-16.941406-13.78125-30.71875-30.722656-30.71875h-129.707032c-24.464844 0-44.371094-19.90625-44.371094-44.375 0-24.464843 19.90625-44.371093 44.371094-44.371093h85.335938c3.773437 0 6.824218 3.050781 6.824218 6.824219 0 3.773437-3.050781 6.828124-6.824218 6.828124h-85.335938c-16.9375 0-30.71875 13.777344-30.71875 30.71875 0 16.941407 13.78125 30.71875 30.71875 30.71875h129.707032c24.46875 0 44.375 19.910157 44.375 44.375 0 24.46875-19.90625 44.375-44.375 44.375zm0 0"/><path d="m122.878906 286.71875h-95.570312c-3.773438 0-6.828125-3.050781-6.828125-6.824219v-95.574219c0-3.773437 3.054687-6.828124 6.828125-6.828124h95.570312c3.773438 0 6.828125 3.054687 6.828125 6.828124v95.574219c0 3.773438-3.054687 6.824219-6.828125 6.824219zm-88.746094-13.652344h81.921876v-81.917968h-81.921876zm0 0"/><path d="m27.308594 382.292969h-20.480469c-3.773437 0-6.828125-3.054688-6.828125-6.828125v-191.144532c0-3.773437 3.054688-6.828124 6.828125-6.828124h20.480469c3.773437 0 6.824218 3.054687 6.824218 6.828124v191.144532c0 3.773437-3.050781 6.828125-6.824218 6.828125zm-13.65625-13.652344h6.828125v-177.492187h-6.828125zm0 0"/><path d="m157.011719 300.375h-34.132813c-3.773437 0-6.824218-3.054688-6.824218-6.828125v-95.574219c0-3.773437 3.050781-6.824218 6.824218-6.824218h34.132813c3.773437 0 6.828125 3.050781 6.828125 6.824218v95.574219c0 3.773437-3.054688 6.828125-6.828125 6.828125zm-27.304688-13.65625h20.480469v-81.917969h-20.480469zm0 0"/></svg>