<svg height="423pt" viewBox="0 -3 423.25333 423" width="423pt" xmlns="http://www.w3.org/2000/svg"><path d="m307.199219 232.234375c-63.992188 0-116.050781-52.0625-116.050781-116.054687 0-63.992188 52.058593-116.054688 116.050781-116.054688 63.992187 0 116.054687 52.0625 116.054687 116.054688 0 63.992187-52.0625 116.054687-116.054687 116.054687zm0-218.453125c-56.464844 0-102.398438 45.933594-102.398438 102.398438 0 56.46875 45.933594 102.398437 102.398438 102.398437 56.46875 0 102.402343-45.929687 102.402343-102.398437 0-56.464844-45.933593-102.398438-102.402343-102.398438zm0 0"/><path d="m307.199219 157.140625c-16.351563 0-31.34375-5.765625-40.113281-15.421875-2.53125-2.785156-2.324219-7.105469.464843-9.636719 2.796875-2.523437 7.109375-2.335937 9.640625.464844 6.128906 6.746094 17.625 10.941406 30.007813 10.941406 12.238281 0 23.679687-4.128906 29.84375-10.769531 2.554687-2.765625 6.886719-2.917969 9.648437-.351562 2.757813 2.566406 2.917969 6.886718.351563 9.644531-8.789063 9.476562-23.6875 15.128906-39.84375 15.128906zm0 0"/><path d="m259.414062 68.394531c0 7.539063-6.113281 13.652344-13.652343 13.652344-7.542969 0-13.65625-6.113281-13.65625-13.652344 0-7.542969 6.113281-13.65625 13.65625-13.65625 7.539062 0 13.652343 6.113281 13.652343 13.65625zm0 0"/><path d="m382.292969 68.394531c0 7.539063-6.113281 13.652344-13.652344 13.652344-7.542969 0-13.652344-6.113281-13.652344-13.652344 0-7.542969 6.109375-13.65625 13.652344-13.65625 7.539063 0 13.652344 6.113281 13.652344 13.65625zm0 0"/><path d="m334.507812 252.714844c0 7.539062-6.113281 13.652344-13.65625 13.652344-7.539062 0-13.652343-6.113282-13.652343-13.652344 0-7.542969 6.113281-13.65625 13.652343-13.65625 7.542969 0 13.65625 6.113281 13.65625 13.65625zm0 0"/><path d="m95.574219 402.898438c0 7.542968-6.113281 13.65625-13.652344 13.65625-7.542969 0-13.65625-6.113282-13.65625-13.65625 0-7.539063 6.113281-13.652344 13.65625-13.652344 7.539063 0 13.652344 6.113281 13.652344 13.652344zm0 0"/><path d="m365.226562 409.726562h-269.652343c-3.773438 0-6.828125-3.054687-6.828125-6.828124 0-3.773438 3.054687-6.824219 6.828125-6.824219h269.652343c16.941407 0 30.71875-13.78125 30.71875-30.722657 0-16.9375-13.777343-30.71875-30.71875-30.71875h-143.359374c-24.46875 0-44.375-19.90625-44.375-44.371093 0-24.46875 19.90625-44.375 44.375-44.375h98.984374c3.773438 0 6.828126 3.054687 6.828126 6.828125 0 3.773437-3.054688 6.824218-6.828126 6.824218h-98.984374c-16.941407 0-30.71875 13.78125-30.71875 30.722657 0 16.9375 13.777343 30.71875 30.71875 30.71875h143.359374c24.46875 0 44.375 19.90625 44.375 44.371093 0 24.46875-19.90625 44.375-44.375 44.375zm0 0"/><path d="m81.921875 382.421875c-1.742187 0-3.480469-.664063-4.816406-1.980469-3.144531-3.128906-77.105469-77.085937-77.105469-120.902344 0-45.171874 36.746094-81.917968 81.921875-81.917968 45.171875 0 81.917969 36.746094 81.917969 81.917968 0 43.816407-73.960938 117.773438-77.105469 120.902344-1.335937 1.316406-3.074219 1.980469-4.8125 1.980469zm0-191.148437c-37.640625 0-68.269531 30.625-68.269531 68.265624 0 29.40625 45.5 82.695313 68.269531 106.320313 22.765625-23.625 68.265625-76.910156 68.265625-106.320313 0-37.640624-30.628906-68.265624-68.265625-68.265624zm0 102.398437c-22.589844 0-40.960937-18.371094-40.960937-40.957031 0-22.585938 18.371093-40.960938 40.960937-40.960938 22.585937 0 40.957031 18.375 40.957031 40.960938 0 22.585937-18.371094 40.957031-40.957031 40.957031zm0-68.265625c-15.0625 0-27.308594 12.246094-27.308594 27.308594 0 15.058594 12.246094 27.304687 27.308594 27.304687 15.058594 0 27.304687-12.246093 27.304687-27.304687 0-15.0625-12.246093-27.308594-27.304687-27.308594zm0 0"/></svg>