<svg height="436pt" viewBox="0 -10 436.90667 436" width="436pt" xmlns="http://www.w3.org/2000/svg"><path d="m416.425781 375.921875h-395.945312c-3.773438 0-6.828125-3.054687-6.828125-6.828125v-101.214844c0-19.472656 15.847656-35.320312 35.320312-35.320312l169.207032-6.820313 170.027343 6.828125h.007813c19.199218 0 35.039062 15.839844 35.039062 35.3125v101.214844c0 3.773438-3.054687 6.828125-6.828125 6.828125zm-389.117187-13.65625h382.292968v-94.386719c0-11.945312-9.722656-21.664062-21.667968-21.664062l-169.753906-6.835938-168.933594 6.828125c-12.21875.007813-21.9375 9.726563-21.9375 21.671875zm0 0"/><path d="m266.238281 375.921875h-95.570312c-3.773438 0-6.828125-3.054687-6.828125-6.828125s3.054687-6.828125 6.828125-6.828125h95.570312c3.773438 0 6.828125 3.054687 6.828125 6.828125s-3.054687 6.828125-6.828125 6.828125zm0 0"/><path d="m416.425781 416.878906h-88.746093c-3.773438 0-6.828126-3.050781-6.828126-6.824218v-40.960938c0-3.773438 3.054688-6.828125 6.828126-6.828125h88.746093c3.773438 0 6.828125 3.054687 6.828125 6.828125v40.960938c0 3.773437-3.054687 6.824218-6.828125 6.824218zm-81.917969-13.652344h75.09375v-27.304687h-75.09375zm0 0"/><path d="m109.226562 416.878906h-88.746093c-3.773438 0-6.828125-3.050781-6.828125-6.824218v-40.960938c0-3.773438 3.054687-6.828125 6.828125-6.828125h88.746093c3.773438 0 6.828126 3.054687 6.828126 6.828125v40.960938c0 3.773437-3.054688 6.824218-6.828126 6.824218zm-81.917968-13.652344h75.089844v-27.304687h-75.089844zm0 0"/><path d="m375.460938 246.214844c-3.148438 0-5.980469-2.1875-6.667969-5.386719l-19.238281-89.347656c-.074219-.339844-.121094-.675781-.140626-1.019531-.464843-7.554688-6.765624-13.476563-14.339843-13.476563h-55.179688c-3.773437 0-6.828125-3.050781-6.828125-6.824219 0-3.773437 3.054688-6.828125 6.828125-6.828125h55.179688c14.585937 0 26.746093 11.261719 27.925781 25.734375l19.140625 88.878906c.792969 3.6875-1.554687 7.320313-5.234375 8.113282-.484375.109375-.972656.15625-1.445312.15625zm0 0"/><path d="m61.445312 246.214844c-.472656 0-.957031-.046875-1.445312-.15625-3.679688-.792969-6.027344-4.425782-5.234375-8.113282l19.140625-88.878906c1.179688-14.472656 13.339844-25.734375 27.925781-25.734375h58.6875c3.773438 0 6.828125 3.054688 6.828125 6.828125 0 3.773438-3.054687 6.828125-6.828125 6.828125h-58.6875c-7.574219 0-13.871093 5.917969-14.339843 13.472657-.019532.347656-.066407.679687-.136719 1.019531l-19.242188 89.347656c-.6875 3.199219-3.519531 5.386719-6.667969 5.386719zm0 0"/><path d="m218.453125 205.253906c-16.351563 0-31.347656-5.765625-40.113281-15.421875-2.53125-2.785156-2.328125-7.105469.464844-9.636719 2.789062-2.523437 7.101562-2.328124 9.640624.464844 6.125 6.746094 17.625 10.941406 30.007813 10.941406 12.238281 0 23.679687-4.128906 29.84375-10.769531 2.554687-2.765625 6.878906-2.917969 9.648437-.351562 2.757813 2.566406 2.917969 6.886719.351563 9.644531-8.789063 9.476562-23.691406 15.128906-39.84375 15.128906zm0 0"/><path d="m157.011719 164.292969c0 7.539062-6.109375 13.652343-13.652344 13.652343-7.539063 0-13.652344-6.113281-13.652344-13.652343 0-7.539063 6.113281-13.652344 13.652344-13.652344 7.542969 0 13.652344 6.113281 13.652344 13.652344zm0 0"/><path d="m307.199219 164.292969c0 7.539062-6.113281 13.652343-13.652344 13.652343s-13.652344-6.113281-13.652344-13.652343c0-7.539063 6.113281-13.652344 13.652344-13.652344s13.652344 6.113281 13.652344 13.652344zm0 0"/><path d="m430.078125 232.558594h-47.785156c-3.773438 0-6.828125-3.050782-6.828125-6.824219v-34.132813c0-3.773437 3.054687-6.828124 6.828125-6.828124h13.652343c22.585938 0 40.960938 18.375 40.960938 40.960937 0 3.773437-3.054688 6.824219-6.828125 6.824219zm-40.957031-13.652344h33.265625c-3.03125-11.765625-13.742188-20.480469-26.441407-20.480469h-6.824218zm0 0"/><path d="m382.292969 246.214844c-3.773438 0-6.828125-3.054688-6.828125-6.828125v-13.652344c0-3.773437 3.054687-6.828125 6.828125-6.828125 3.773437 0 6.828125 3.054688 6.828125 6.828125v13.652344c0 3.773437-3.054688 6.828125-6.828125 6.828125zm0 0"/><path d="m54.613281 232.558594h-47.785156c-3.773437 0-6.828125-3.050782-6.828125-6.824219 0-22.585937 18.375-40.960937 40.960938-40.960937h13.652343c3.773438 0 6.828125 3.054687 6.828125 6.828124v34.132813c0 3.773437-3.054687 6.824219-6.828125 6.824219zm-40.09375-13.652344h33.265625v-20.480469h-6.824218c-12.699219 0-23.40625 8.714844-26.441407 20.480469zm0 0"/><path d="m54.613281 246.214844c-3.773437 0-6.828125-3.054688-6.828125-6.828125v-13.652344c0-3.773437 3.054688-6.828125 6.828125-6.828125 3.773438 0 6.828125 3.054688 6.828125 6.828125v13.652344c0 3.773437-3.054687 6.828125-6.828125 6.828125zm0 0"/><path d="m409.601562 321.308594h-382.292968c-3.773438 0-6.828125-3.054688-6.828125-6.828125 0-3.773438 3.054687-6.828125 6.828125-6.828125h382.292968c3.773438 0 6.824219 3.054687 6.824219 6.828125 0 3.773437-3.050781 6.828125-6.824219 6.828125zm0 0"/><path d="m416.425781 321.308594h-81.917969c-3.773437 0-6.828124-3.054688-6.828124-6.828125 0-30.113281 24.5-54.613281 54.613281-54.613281h34.132812c3.773438 0 6.828125 3.050781 6.828125 6.824218v47.789063c0 3.773437-3.054687 6.828125-6.828125 6.828125zm-74.527343-13.65625h67.703124v-34.132813h-27.308593c-20.257813 0-37.132813 14.785157-40.394531 34.132813zm0 0"/><path d="m102.398438 321.308594h-81.917969c-3.773438 0-6.828125-3.054688-6.828125-6.828125v-47.789063c0-3.773437 3.054687-6.824218 6.828125-6.824218h34.132812c30.113281 0 54.613281 24.5 54.613281 54.613281 0 3.773437-3.054687 6.828125-6.828124 6.828125zm-75.089844-13.65625h67.699218c-3.261718-19.347656-20.132812-34.132813-40.394531-34.132813h-27.304687zm0 0"/><path d="m88.746094 348.613281h-40.960938c-3.773437 0-6.824218-3.054687-6.824218-6.828125 0-3.773437 3.050781-6.824218 6.824218-6.824218h40.960938c3.773437 0 6.828125 3.050781 6.828125 6.824218 0 3.773438-3.054688 6.828125-6.828125 6.828125zm0 0"/><path d="m389.121094 348.613281h-40.960938c-3.773437 0-6.828125-3.054687-6.828125-6.828125 0-3.773437 3.054688-6.824218 6.828125-6.824218h40.960938c3.773437 0 6.824218 3.050781 6.824218 6.824218 0 3.773438-3.050781 6.828125-6.824218 6.828125zm0 0"/><path d="m218.453125 164.292969c-45.171875 0-81.917969-36.746094-81.917969-81.917969 0-45.175781 36.746094-81.921875 81.917969-81.921875 45.175781 0 81.921875 36.746094 81.921875 81.921875 0 45.171875-36.746094 81.917969-81.921875 81.917969zm0-150.1875c-37.640625 0-68.265625 30.628906-68.265625 68.269531s30.625 68.265625 68.265625 68.265625 68.265625-30.625 68.265625-68.265625-30.625-68.269531-68.265625-68.269531zm0 0"/><path d="m215.03125 136.988281c-1.265625 0-2.539062-.347656-3.683594-1.089843-3.167968-2.03125-4.089844-6.257813-2.046875-9.433594l23.953125-37.265625h-48.933594c-2.558593 0-4.898437-1.425781-6.074218-3.699219-1.167969-2.28125-.964844-5.015625.519531-7.09375l34.132813-47.785156c2.195312-3.066406 6.460937-3.773438 9.519531-1.589844 3.070312 2.1875 3.78125 6.453125 1.589843 9.523438l-26.421874 36.992187h48.175781c2.5 0 4.792969 1.367187 5.992187 3.554687 1.191406 2.191407 1.101563 4.867188-.253906 6.964844l-30.71875 47.785156c-1.300781 2.027344-3.503906 3.136719-5.75 3.136719zm0 0"/></svg>