<svg height="416pt" viewBox="0 -7 416.42667 416" width="416pt" xmlns="http://www.w3.org/2000/svg"><path d="m300.375 259.625c-63.996094 0-116.054688-52.058594-116.054688-116.050781 0-63.992188 52.058594-116.054688 116.054688-116.054688 63.992188 0 116.050781 52.0625 116.050781 116.054688 0 63.992187-52.058593 116.050781-116.050781 116.050781zm0-218.453125c-56.464844 0-102.402344 45.933594-102.402344 102.402344 0 56.464843 45.9375 102.398437 102.402344 102.398437 56.460938 0 102.398438-45.933594 102.398438-102.398437 0-56.46875-45.9375-102.402344-102.398438-102.402344zm0 0"/><path d="m300.375 184.535156c-16.347656 0-31.34375-5.761718-40.117188-15.414062-2.535156-2.792969-2.328124-7.105469.460938-9.648438 2.792969-2.523437 7.101562-2.316406 9.644531.460938 6.132813 6.753906 17.632813 10.945312 30.011719 10.945312 12.238281 0 23.671875-4.125 29.835938-10.765625 2.574218-2.761719 6.882812-2.914062 9.652343-.355469 2.761719 2.570313 2.917969 6.886719.355469 9.648438-8.800781 9.472656-23.691406 15.128906-39.84375 15.128906zm0 0"/><path d="m252.585938 95.785156c0 7.542969-6.113282 13.65625-13.652344 13.65625-7.539063 0-13.652344-6.113281-13.652344-13.65625 0-7.539062 6.113281-13.652344 13.652344-13.652344 7.539062 0 13.652344 6.113282 13.652344 13.652344zm0 0"/><path d="m375.464844 95.785156c0 7.542969-6.109375 13.65625-13.652344 13.65625-7.539062 0-13.652344-6.113281-13.652344-13.65625 0-7.539062 6.113282-13.652344 13.652344-13.652344 7.542969 0 13.652344 6.113282 13.652344 13.652344zm0 0"/><path d="m368.640625 402.988281h-327.679687c-3.769532 0-6.828126-3.054687-6.828126-6.828125 0-3.773437 3.058594-6.828125 6.828126-6.828125h327.679687c12.914063 0 27.304687-23.832031 27.304687-58.023437 0-34.195313-14.390624-58.027344-27.304687-58.027344h-327.679687c-3.769532 0-6.828126-3.054688-6.828126-6.828125s3.058594-6.828125 6.828126-6.828125h327.679687c22.964844 0 40.960937 31.488281 40.960937 71.683594 0 40.191406-17.996093 71.679687-40.960937 71.679687zm0 0"/><path d="m40.960938 402.988281c-22.96875 0-40.960938-31.488281-40.960938-71.679687 0-40.195313 17.992188-71.683594 40.960938-71.683594 22.964843 0 40.960937 31.488281 40.960937 71.683594 0 40.191406-17.996094 71.679687-40.960937 71.679687zm0-129.707031c-12.917969 0-27.308594 23.832031-27.308594 58.027344 0 34.191406 14.390625 58.023437 27.308594 58.023437 12.914062 0 27.304687-23.832031 27.304687-58.023437 0-34.195313-14.390625-58.027344-27.304687-58.027344zm0 0"/><path d="m40.960938 348.375c-3.769532 0-6.828126-3.054688-6.828126-6.828125v-27.308594c0-3.773437 3.058594-6.824219 6.828126-6.824219 3.769531 0 6.824218 3.050782 6.824218 6.824219v27.308594c0 3.773437-3.054687 6.828125-6.824218 6.828125zm0 0"/><path d="m170.667969 307.414062h-40.960938c-3.769531 0-6.828125-3.054687-6.828125-6.828124 0-3.773438 3.058594-6.824219 6.828125-6.824219h40.960938c3.769531 0 6.824219 3.050781 6.824219 6.824219 0 3.773437-3.054688 6.828124-6.824219 6.828124zm0 0"/><path d="m286.71875 307.414062h-88.746094c-3.769531 0-6.824218-3.054687-6.824218-6.828124 0-3.773438 3.054687-6.824219 6.824218-6.824219h88.746094c3.769531 0 6.828125 3.050781 6.828125 6.824219 0 3.773437-3.058594 6.828124-6.828125 6.828124zm0 0"/><path d="m354.988281 307.414062h-34.136719c-3.769531 0-6.824218-3.054687-6.824218-6.828124 0-3.773438 3.054687-6.824219 6.824218-6.824219h34.136719c3.769531 0 6.824219 3.050781 6.824219 6.824219 0 3.773437-3.054688 6.828124-6.824219 6.828124zm0 0"/><path d="m361.8125 341.546875h-20.480469c-3.769531 0-6.824219-3.054687-6.824219-6.828125s3.054688-6.824219 6.824219-6.824219h20.480469c3.769531 0 6.828125 3.050781 6.828125 6.824219s-3.058594 6.828125-6.828125 6.828125zm0 0"/><path d="m314.027344 341.546875h-34.132813c-3.769531 0-6.828125-3.054687-6.828125-6.828125s3.058594-6.824219 6.828125-6.824219h34.132813c3.769531 0 6.824218 3.050781 6.824218 6.824219s-3.054687 6.828125-6.824218 6.828125zm0 0"/><path d="m232.105469 341.546875h-129.707031c-3.769532 0-6.824219-3.054687-6.824219-6.828125s3.054687-6.824219 6.824219-6.824219h129.707031c3.769531 0 6.828125 3.050781 6.828125 6.824219s-3.058594 6.828125-6.828125 6.828125zm0 0"/><path d="m129.707031 375.679688h-27.308593c-3.769532 0-6.824219-3.054688-6.824219-6.828126 0-3.773437 3.054687-6.824218 6.824219-6.824218h27.308593c3.769531 0 6.828125 3.050781 6.828125 6.824218 0 3.773438-3.058594 6.828126-6.828125 6.828126zm0 0"/><path d="m279.894531 375.679688h-129.707031c-3.769531 0-6.828125-3.054688-6.828125-6.828126 0-3.773437 3.058594-6.824218 6.828125-6.824218h129.707031c3.769531 0 6.824219 3.050781 6.824219 6.824218 0 3.773438-3.054688 6.828126-6.824219 6.828126zm0 0"/><path d="m361.8125 375.679688h-54.613281c-3.769531 0-6.824219-3.054688-6.824219-6.828126 0-3.773437 3.054688-6.824218 6.824219-6.824218h54.613281c3.769531 0 6.828125 3.050781 6.828125 6.824218 0 3.773438-3.058594 6.828126-6.828125 6.828126zm0 0"/><path d="m109.226562 273.28125c-37.644531 0-68.265624-30.628906-68.265624-68.269531 0-35.34375 56.527343-105.636719 62.976562-113.539063 2.59375-3.183594 7.984375-3.183594 10.578125 0 6.449219 7.902344 62.976563 78.195313 62.976563 113.539063 0 37.640625-30.621094 68.269531-68.265626 68.269531zm0-166.535156c-19.050781 24.417968-54.613281 74.847656-54.613281 98.265625 0 30.117187 24.5 54.613281 54.613281 54.613281 30.113282 0 54.613282-24.496094 54.613282-54.613281 0-23.417969-35.5625-73.847657-54.613282-98.265625zm0 0"/><path d="m109.226562 266.832031c-24.167968 0-43.828124-19.660156-43.828124-43.824219 0-22.226562 34.59375-65.261718 38.539062-70.09375 2.59375-3.1875 7.984375-3.1875 10.578125 0 3.945313 4.832032 38.535156 47.867188 38.535156 70.09375.003907 24.164063-19.65625 43.824219-43.824219 43.824219zm0-98.585937c-13.375 17.488281-30.171874 43.246094-30.171874 54.761718 0 16.640626 13.535156 30.171876 30.171874 30.171876 16.636719 0 30.175782-13.53125 30.175782-30.171876 0-11.527343-16.796875-37.28125-30.175782-54.761718zm0 0"/><path d="m47.785156 37.761719c0 5.652343-4.582031 10.238281-10.238281 10.238281s-10.238281-4.585938-10.238281-10.238281c0-5.65625 4.582031-10.242188 10.238281-10.242188s10.238281 4.585938 10.238281 10.242188zm0 0"/><path d="m129.707031 10.453125c0 5.65625-4.585937 10.238281-10.242187 10.238281-5.652344 0-10.238282-4.582031-10.238282-10.238281s4.585938-10.238281 10.238282-10.238281c5.65625 0 10.242187 4.582031 10.242187 10.238281zm0 0"/><path d="m170.667969 58.238281c0 5.65625-4.585938 10.242188-10.242188 10.242188s-10.238281-4.585938-10.238281-10.242188c0-5.652343 4.582031-10.238281 10.238281-10.238281s10.242188 4.585938 10.242188 10.238281zm0 0"/><path d="m61.441406 99.199219c0 5.65625-4.585937 10.242187-10.242187 10.242187s-10.238281-4.585937-10.238281-10.242187 4.582031-10.238281 10.238281-10.238281 10.242187 4.582031 10.242187 10.238281zm0 0"/></svg>