<svg height="395pt" viewBox="-23 0 395 395.94667" width="395pt" xmlns="http://www.w3.org/2000/svg"><path d="m34.605469 395.945312h-27.304688c-3.769531 0-6.828125-3.050781-6.828125-6.824218v-382.292969c0-3.773437 3.058594-6.828125 6.828125-6.828125h27.304688c3.769531 0 6.828125 3.054688 6.828125 6.828125v382.292969c0 3.773437-3.058594 6.824218-6.828125 6.824218zm-20.480469-13.652343h13.65625v-368.640625h-13.65625zm0 0"/><path d="m232.578125 204.800781h-197.972656c-3.769531 0-6.824219-3.054687-6.824219-6.828125v-191.144531c0-3.773437 3.054688-6.828125 6.824219-6.828125h197.972656c3.773437 0 6.828125 3.054688 6.828125 6.828125v191.144531c0 3.773438-3.054688 6.828125-6.828125 6.828125zm-191.144531-13.652343h184.320312v-177.496094h-184.320312zm0 0"/><path d="m341.808594 238.933594h-109.230469c-3.769531 0-6.824219-3.054688-6.824219-6.828125v-191.144531c0-3.773438 3.054688-6.828126 6.824219-6.828126h109.230469c3.769531 0 6.824218 3.054688 6.824218 6.828126v191.144531c0 3.773437-3.054687 6.828125-6.824218 6.828125zm-102.402344-13.652344h95.574219v-177.496094h-95.574219zm0 0"/><path d="m198.445312 61.441406c0 7.539063-6.113281 13.652344-13.652343 13.652344-7.539063 0-13.652344-6.113281-13.652344-13.652344 0-7.542968 6.113281-13.65625 13.652344-13.65625 7.539062 0 13.652343 6.113282 13.652343 13.65625zm0 0"/><path d="m96.046875 61.441406c0 7.539063-6.113281 13.652344-13.652344 13.652344-7.542969 0-13.65625-6.113281-13.65625-13.652344 0-7.542968 6.113281-13.65625 13.65625-13.65625 7.539063 0 13.652344 6.113282 13.652344 13.65625zm0 0"/><path d="m89.90625 117.914062c0 20.679688 19.558594 37.445313 43.6875 37.445313s43.6875-16.765625 43.6875-37.445313c0-20.6875-87.375-20.6875-87.375 0zm43.6875 25.445313c-13.195312 0-23.894531-4.585937-23.894531-10.238281s10.699219-10.242188 23.894531-10.242188 23.894531 4.589844 23.894531 10.242188-10.699219 10.238281-23.894531 10.238281zm0 0"/><path d="m137.007812 395.945312h-102.402343c-3.769531 0-6.824219-3.050781-6.824219-6.824218 0-3.773438 3.054688-6.828125 6.824219-6.828125h102.402343c3.769532 0 6.824219 3.054687 6.824219 6.828125 0 3.773437-3.054687 6.824218-6.824219 6.824218zm0 0"/><path d="m259.886719 395.945312h-95.574219c-3.769531 0-6.824219-3.050781-6.824219-6.824218 0-3.773438 3.054688-6.828125 6.824219-6.828125h95.574219c3.769531 0 6.828125 3.054687 6.828125 6.828125 0 3.773437-3.058594 6.824218-6.828125 6.824218zm0 0"/></svg>