<svg height="422pt" viewBox="-13 0 422 422.92053" width="422pt" xmlns="http://www.w3.org/2000/svg"><path d="m172.78125 281.042969c-.390625 0-.789062-.035157-1.1875-.101563-3.714844-.652344-6.195312-4.195312-5.542969-7.90625 6.808594-38.828125 33.753907-72.261718 70.320313-87.246094 3.496094-1.457031 7.480468.238282 8.90625 3.726563 1.429687 3.484375-.238282 7.472656-3.726563 8.898437-32.269531 13.234376-56.046875 42.726563-62.050781 76.980469-.582031 3.3125-3.464844 5.648438-6.71875 5.648438zm0 0"/><path d="m280.355469 409.265625c-60.144531 0-109.808594-45.09375-115.523438-104.886719-.359375-3.75 2.390625-7.085937 6.144531-7.4375 3.734376-.53125 7.089844 2.386719 7.449219 6.148438 5.039063 52.746094 48.859375 92.527344 101.929688 92.527344 56.464843 0 102.398437-45.933594 102.398437-102.402344 0-55.351563-45-101.28125-100.320312-102.378906-3.769532-.074219-6.765625-3.191407-6.691406-6.960938.082031-3.765625 3.167968-6.652344 6.964843-6.691406 62.695313 1.246094 113.703125 53.296875 113.703125 116.03125-.003906 63.992187-52.0625 116.050781-116.054687 116.050781zm0 0"/><path d="m212.085938 320.519531c-.726563 0-1.453126-.113281-2.160157-.351562l-60.386719-20.128907h-11.441406l-60.386718 20.128907c-2.085938.699219-4.371094.347656-6.148438-.933594-1.785156-1.289063-2.835938-3.347656-2.835938-5.539063v-13.65625c0-2.476562 1.34375-4.765624 3.507813-5.964843l37.453125-20.804688v-85.808593l-96.417969 16.855468c-3.0625.519532-6.1875-.328125-8.601562-2.367187-2.671875-2.246094-4.207031-5.640625-4.207031-9.300781v-13.746094c0-4.402344 2.238281-8.402344 5.851562-10.441406l103.375-58.734376v-43.925781c0-4.941406.980469-9.835937 2.828125-14.152343l18.023437-42.027344c2.539063-5.933594 7.628907-9.621094 13.28125-9.621094 5.652344 0 10.742188 3.6875 13.285157 9.621094l18.019531 42.03125c1.847656 4.3125 2.828125 9.210937 2.828125 14.148437v43.925781l103.375 58.738282c3.605469 2.042968 5.84375 6.042968 5.84375 10.433594v13.75c0 3.660156-1.535156 7.050781-4.207031 9.296874-2.414063 2.035157-5.546875 2.902344-8.59375 2.367188l-96.417969-16.851562v85.808593l37.449219 20.804688c2.167968 1.199219 3.511718 3.488281 3.511718 5.964843v13.65625c0 2.191407-1.054687 4.25-2.835937 5.539063-1.179687.847656-2.578125 1.285156-3.992187 1.285156zm-75.09375-34.132812h13.65625c.730468 0 1.460937.121093 2.160156.355469l52.453125 17.480468v-.160156l-37.449219-20.808594c-2.167969-1.199218-3.511719-3.484375-3.511719-5.964844v-97.953124c0-2.015626.886719-3.929688 2.433594-5.226563 1.542969-1.300781 3.570313-1.855469 5.570313-1.5l101.214843 17.691406v-10.570312l-105.765625-60.09375c-2.132812-1.214844-3.453125-3.480469-3.453125-5.933594v-47.902344c0-3.105469-.597656-6.140625-1.722656-8.765625l-18.019531-42.042968c-.324219-.746094-.664063-1.140626-.847656-1.300782.035156.160156-.304688.554688-.621094 1.300782l-18.027344 42.035156c-1.125 2.632812-1.722656 5.667968-1.722656 8.773437v47.902344c0 2.453125-1.320313 4.71875-3.453125 5.933594l-105.773438 60.089843v10.582032l101.222657-17.703125c1.996093-.351563 4.027343.203125 5.574218 1.5 1.542969 1.300781 2.433594 3.214843 2.433594 5.226562v97.957031c0 2.476563-1.34375 4.765626-3.511719 5.964844l-37.453125 20.96875 52.453125-17.480468c.699219-.234376 1.425781-.355469 2.160157-.355469zm137.59375-106.046875h.007812c-.003906 0-.003906 0-.007812 0zm-.003907-.003906h.003907zm0 0"/><path d="m280.355469 334.175781c-16.347657 0-31.34375-5.761719-40.117188-15.414062-2.535156-2.792969-2.328125-7.105469.460938-9.648438 2.785156-2.53125 7.101562-2.324219 9.644531.460938 6.132812 6.753906 17.632812 10.949219 30.007812 10.949219 12.242188 0 23.671876-4.128907 29.839844-10.769532 2.570313-2.757812 6.882813-2.917968 9.648438-.351562s2.921875 6.886718.359375 9.644531c-8.800781 9.472656-23.691407 15.128906-39.84375 15.128906zm0 0"/><path d="m232.566406 245.425781c0 7.542969-6.113281 13.65625-13.652344 13.65625-7.539062 0-13.652343-6.113281-13.652343-13.65625 0-7.539062 6.113281-13.652343 13.652343-13.652343 7.539063 0 13.652344 6.113281 13.652344 13.652343zm0 0"/><path d="m355.445312 245.425781c0 7.542969-6.109374 13.65625-13.652343 13.65625-7.539063 0-13.652344-6.113281-13.652344-13.65625 0-7.539062 6.113281-13.652343 13.652344-13.652343 7.542969 0 13.652343 6.113281 13.652343 13.652343zm0 0"/><path d="m96.035156 375.132812c-3.773437 0-6.828125-3.050781-6.828125-6.824218v-27.308594c0-3.773438 3.054688-6.824219 6.828125-6.824219 3.769532 0 6.824219 3.050781 6.824219 6.824219v27.308594c0 3.773437-3.054687 6.824218-6.824219 6.824218zm0 0"/><path d="m177.953125 381.960938c-3.769531 0-6.828125-3.054688-6.828125-6.828126v-40.957031c0-3.773437 3.058594-6.828125 6.828125-6.828125s6.828125 3.054688 6.828125 6.828125v40.957031c0 3.773438-3.058594 6.828126-6.828125 6.828126zm0 0"/><path d="m123.339844 361.480469c-3.769532 0-6.828125-3.054688-6.828125-6.828125v-34.132813c0-3.773437 3.058593-6.824219 6.828125-6.824219 3.769531 0 6.828125 3.050782 6.828125 6.824219v34.132813c0 3.773437-3.058594 6.828125-6.828125 6.828125zm0 0"/><path d="m123.339844 402.441406c-3.769532 0-6.828125-3.054687-6.828125-6.828125v-13.652343c0-3.773438 3.058593-6.828126 6.828125-6.828126 3.769531 0 6.828125 3.054688 6.828125 6.828126v13.652343c0 3.773438-3.058594 6.828125-6.828125 6.828125zm0 0"/><path d="m150.648438 422.921875c-3.773438 0-6.828126-3.054687-6.828126-6.828125v-88.746094c0-3.773437 3.054688-6.828125 6.828126-6.828125 3.769531 0 6.824218 3.054688 6.824218 6.828125v88.746094c0 3.773438-3.054687 6.828125-6.824218 6.828125zm0 0"/></svg>