<svg height="423pt" viewBox="-7 0 423 423.25333" width="423pt" xmlns="http://www.w3.org/2000/svg"><path d="m402.898438 348.160156h-172.621094c-3.769532 0-6.824219-3.054687-6.824219-6.828125 0-3.773437 3.054687-6.824219 6.824219-6.824219h159.113281l-42.285156-57.394531c-1.527344-2.074219-1.757813-4.828125-.597657-7.128906 1.164063-2.296875 3.515626-3.746094 6.089844-3.746094h28.292969l-50.464844-56.914062c-1.78125-2.003907-2.21875-4.871094-1.117187-7.324219 1.101562-2.453125 3.539062-4.027344 6.222656-4.027344h27.21875l-38.894531-57.621094c-1.414063-2.09375-1.554688-4.792968-.371094-7.023437s3.503906-3.621094 6.027344-3.621094h14.027343l-60.105468-108.765625-60.105469 108.765625h14.023437c2.527344 0 4.84375 1.390625 6.027344 3.621094 1.1875 2.230469 1.042969 4.933594-.371094 7.023437l-38.890624 57.621094h27.214843c2.6875 0 5.125 1.574219 6.226563 4.027344 1.101562 2.453125.664062 5.320312-1.121094 7.324219l-24.851562 28.027343c-2.492188 2.835938-6.8125 3.082032-9.636719.582032-2.820313-2.5-3.078125-6.8125-.574219-9.632813l14.78125-16.675781h-24.882812c-2.523438 0-4.84375-1.394531-6.027344-3.621094-1.183594-2.234375-1.042969-4.933594.371094-7.023437l38.894531-57.621094h-12.757813c-2.417968 0-4.65625-1.28125-5.878906-3.359375-1.226562-2.082031-1.265625-4.65625-.09375-6.765625l71.679688-129.707031c2.398437-4.363282 9.546874-4.363282 11.945312 0l71.679688 129.707031c1.171874 2.109375 1.132812 4.683594-.09375 6.765625-1.226563 2.078125-3.460938 3.359375-5.878907 3.359375h-12.757812l38.894531 57.621094c1.414062 2.09375 1.554688 4.792969.371094 7.027343-1.183594 2.226563-3.503906 3.617188-6.027344 3.617188h-24.878906l50.464844 56.914062c1.785156 2.007813 2.21875 4.875 1.121093 7.328126-1.105469 2.453124-3.542969 4.027343-6.226562 4.027343h-29.964844l42.285156 57.390625c1.527344 2.074219 1.757813 4.828125.597657 7.128906-1.160157 2.296876-3.515626 3.746094-6.09375 3.746094zm0 0"/><path d="m300.5 423.253906h-34.132812c-3.769532 0-6.828126-3.054687-6.828126-6.828125v-75.09375c0-3.773437 3.058594-6.824219 6.828126-6.824219h34.132812c3.769531 0 6.828125 3.050782 6.828125 6.824219v75.09375c0 3.773438-3.058594 6.828125-6.828125 6.828125zm-27.308594-13.652344h20.480469v-61.441406h-20.480469zm0 0"/><path d="m123.007812 423.253906c-63.996093 0-116.054687-52.0625-116.054687-116.054687 0-63.992188 52.058594-116.050781 116.054687-116.050781 63.992188 0 116.050782 52.058593 116.050782 116.050781 0 63.992187-52.058594 116.054687-116.050782 116.054687zm0-218.453125c-56.464843 0-102.402343 45.933594-102.402343 102.398438 0 56.46875 45.9375 102.402343 102.402343 102.402343 56.460938 0 102.398438-45.933593 102.398438-102.402343 0-56.464844-45.9375-102.398438-102.398438-102.398438zm0 0"/><path d="m123.007812 348.160156c-16.347656 0-31.34375-5.761718-40.117187-15.414062-2.535156-2.792969-2.328125-7.105469.460937-9.644532 2.792969-2.535156 7.105469-2.328124 9.644532.460938 6.132812 6.75 17.632812 10.945312 30.011718 10.945312 12.238282 0 23.671876-4.128906 29.839844-10.769531 2.570313-2.757812 6.878906-2.917969 9.648438-.351562 2.761718 2.566406 2.917968 6.886719.355468 9.644531-8.800781 9.476562-23.691406 15.128906-39.84375 15.128906zm0 0"/><path d="m75.21875 259.414062c0 7.539063-6.113281 13.652344-13.652344 13.652344-7.539062 0-13.652344-6.113281-13.652344-13.652344 0-7.542968 6.113282-13.652343 13.652344-13.652343 7.539063 0 13.652344 6.109375 13.652344 13.652343zm0 0"/><path d="m198.101562 259.414062c0 7.539063-6.113281 13.652344-13.65625 13.652344-7.539062 0-13.652343-6.113281-13.652343-13.652344 0-7.542968 6.113281-13.652343 13.652343-13.652343 7.542969 0 13.65625 6.109375 13.65625 13.652343zm0 0"/><path d="m402.898438 423.253906h-129.707032c-3.769531 0-6.824218-3.054687-6.824218-6.828125 0-3.773437 3.054687-6.824219 6.824218-6.824219h129.707032c3.773437 0 6.828124 3.050782 6.828124 6.824219 0 3.773438-3.054687 6.828125-6.828124 6.828125zm0 0"/><path d="m88.875 143.359375c-30.117188 0-54.613281-24.5-54.613281-54.613281 0-30.113282 24.496093-54.613282 54.613281-54.613282 30.113281 0 54.613281 24.5 54.613281 54.613282 0 30.113281-24.5 54.613281-54.613281 54.613281zm0-95.574219c-22.585938 0-40.960938 18.375-40.960938 40.960938 0 22.585937 18.375 40.960937 40.960938 40.960937s40.957031-18.375 40.957031-40.960937c0-22.585938-18.371093-40.960938-40.957031-40.960938zm0 0"/><path d="m88.875 27.308594c-3.773438 0-6.828125-3.054688-6.828125-6.828125v-13.652344c0-3.773437 3.054687-6.828125 6.828125-6.828125 3.769531 0 6.824219 3.054688 6.824219 6.828125v13.652344c0 3.773437-3.054688 6.828125-6.824219 6.828125zm0 0"/><path d="m88.875 177.492188c-3.773438 0-6.828125-3.050782-6.828125-6.824219v-13.65625c0-3.773438 3.054687-6.824219 6.828125-6.824219 3.769531 0 6.824219 3.050781 6.824219 6.824219v13.65625c0 3.773437-3.054688 6.824219-6.824219 6.824219zm0 0"/><path d="m20.605469 95.574219h-13.652344c-3.769531 0-6.828125-3.054688-6.828125-6.828125 0-3.773438 3.058594-6.824219 6.828125-6.824219h13.652344c3.769531 0 6.828125 3.050781 6.828125 6.824219 0 3.773437-3.058594 6.828125-6.828125 6.828125zm0 0"/><path d="m170.792969 95.574219h-13.652344c-3.769531 0-6.828125-3.054688-6.828125-6.828125 0-3.773438 3.058594-6.824219 6.828125-6.824219h13.652344c3.769531 0 6.828125 3.050781 6.828125 6.824219 0 3.773437-3.058594 6.828125-6.828125 6.828125zm0 0"/><path d="m40.601562 47.300781c-1.746093 0-3.496093-.667969-4.828124-2l-9.652344-9.652343c-2.664063-2.667969-2.664063-6.988282 0-9.652344 2.664062-2.667969 6.988281-2.667969 9.652344 0l9.652343 9.652344c2.667969 2.664062 2.667969 6.984374 0 9.652343-1.332031 1.332031-3.078125 2-4.824219 2zm0 0"/><path d="m146.800781 153.5c-1.746093 0-3.496093-.667969-4.828125-2l-9.652344-9.652344c-2.667968-2.667968-2.667968-6.988281 0-9.65625 2.664063-2.664062 6.988282-2.664062 9.652344 0l9.652344 9.65625c2.667969 2.664063 2.667969 6.984375 0 9.652344-1.332031 1.332031-3.078125 2-4.824219 2zm0 0"/><path d="m137.144531 47.300781c-1.742187 0-3.492187-.667969-4.824219-2-2.667968-2.667969-2.667968-6.988281 0-9.652343l9.652344-9.652344c2.664063-2.667969 6.988282-2.667969 9.652344 0 2.667969 2.664062 2.667969 6.984375 0 9.652344l-9.652344 9.652343c-1.332031 1.332031-3.078125 2-4.828125 2zm0 0"/><path d="m30.949219 153.5c-1.746094 0-3.496094-.667969-4.828125-2-2.664063-2.667969-2.664063-6.988281 0-9.652344l9.652344-9.65625c2.667968-2.664062 6.988281-2.664062 9.652343 0 2.667969 2.667969 2.667969 6.988282 0 9.65625l-9.652343 9.652344c-1.335938 1.332031-3.082032 2-4.824219 2zm0 0"/></svg>