<svg height="423pt" viewBox="-10 0 423 423.00117" width="423pt" xmlns="http://www.w3.org/2000/svg"><path d="m395.945312 347.90625h-173.015624c-3.769532 0-6.824219-3.050781-6.824219-6.824219 0-3.773437 3.054687-6.828125 6.824219-6.828125h159.507812l-42.285156-57.394531c-1.527344-2.070313-1.757813-4.824219-.597656-7.125 1.164062-2.300781 3.515624-3.746094 6.09375-3.746094h28.292968l-50.46875-56.914062c-1.78125-2.007813-2.21875-4.871094-1.117187-7.328125 1.101562-2.453125 3.539062-4.023438 6.222656-4.023438h27.21875l-38.894531-57.621094c-1.414063-2.09375-1.554688-4.792968-.371094-7.027343 1.183594-2.226563 3.503906-3.621094 6.027344-3.621094h14.027344l-60.105469-108.765625-60.105469 108.765625h14.027344c2.523437 0 4.839844 1.390625 6.023437 3.621094 1.1875 2.234375 1.042969 4.933593-.371093 7.023437l-38.890626 57.621094h27.214844c2.6875 0 5.125 1.574219 6.226563 4.027344 1.101562 2.445312.664062 5.320312-1.121094 7.324218l-24.71875 27.882813c-2.492187 2.824219-6.8125 3.085937-9.636719.578125-2.816406-2.5-3.078125-6.8125-.574218-9.632812l14.648437-16.527344h-24.882813c-2.523437 0-4.84375-1.394532-6.027343-3.621094-1.183594-2.234375-1.042969-4.933594.371093-7.023438l38.894532-57.621093h-12.757813c-2.417969 0-4.652343-1.28125-5.878906-3.363281-1.226563-2.078126-1.265625-4.652344-.09375-6.765626l71.679687-129.707031c2.398438-4.359375 9.546876-4.359375 11.945313 0l71.679687 129.707031c1.171876 2.113282 1.132813 4.6875-.09375 6.765626-1.226562 2.082031-3.460937 3.363281-5.878906 3.363281h-12.757812l38.894531 57.621093c1.414063 2.09375 1.554687 4.792969.371094 7.023438-1.183594 2.226562-3.503907 3.621094-6.027344 3.621094h-24.878906l50.464843 56.914062c1.785157 2.007813 2.222657 4.871094 1.121094 7.328125-1.105468 2.453125-3.539062 4.023438-6.226562 4.023438h-29.964844l42.285156 57.394531c1.527344 2.074219 1.757813 4.828125.597656 7.128906-1.160156 2.300782-3.515624 3.746094-6.09375 3.746094zm0 0"/><path d="m293.546875 423h-34.132813c-3.769531 0-6.828124-3.050781-6.828124-6.824219v-75.09375c0-3.773437 3.058593-6.828125 6.828124-6.828125h34.132813c3.769531 0 6.828125 3.054688 6.828125 6.828125v75.09375c0 3.773438-3.058594 6.824219-6.828125 6.824219zm-27.304687-13.652344h20.476562v-61.441406h-20.476562zm0 0"/><path d="m116.054688 423c-63.992188 0-116.054688-52.058594-116.054688-116.050781 0-63.996094 52.0625-116.054688 116.054688-116.054688 63.992187 0 116.050781 52.058594 116.050781 116.054688 0 63.992187-52.058594 116.050781-116.050781 116.050781zm0-218.453125c-56.464844 0-102.402344 45.933594-102.402344 102.402344 0 56.464843 45.9375 102.398437 102.402344 102.398437 56.460937 0 102.398437-45.933594 102.398437-102.398437 0-56.46875-45.9375-102.402344-102.398437-102.402344zm0 0"/><path d="m116.054688 347.90625c-16.347657 0-31.34375-5.757812-40.117188-15.410156-2.53125-2.796875-2.328125-7.109375.460938-9.648438 2.789062-2.53125 7.109374-2.324218 9.644531.460938 6.132812 6.753906 17.632812 10.949218 30.007812 10.949218 12.242188 0 23.675781-4.128906 29.839844-10.769531 2.570313-2.757812 6.882813-2.917969 9.652344-.351562 2.761719 2.566406 2.917969 6.886719.355469 9.644531-8.796876 9.472656-23.691407 15.125-39.84375 15.125zm0 0"/><path d="m68.265625 259.160156c0 7.542969-6.109375 13.65625-13.652344 13.65625-7.539062 0-13.652343-6.113281-13.652343-13.65625 0-7.539062 6.113281-13.652344 13.652343-13.652344 7.542969 0 13.652344 6.113282 13.652344 13.652344zm0 0"/><path d="m191.148438 259.160156c0 7.542969-6.113282 13.65625-13.65625 13.65625-7.539063 0-13.652344-6.113281-13.652344-13.65625 0-7.539062 6.113281-13.652344 13.652344-13.652344 7.542968 0 13.65625 6.113282 13.65625 13.652344zm0 0"/><path d="m395.945312 423h-129.703124c-3.773438 0-6.828126-3.050781-6.828126-6.824219 0-3.773437 3.054688-6.828125 6.828126-6.828125h129.703124c3.773438 0 6.828126 3.054688 6.828126 6.828125 0 3.773438-3.054688 6.824219-6.828126 6.824219zm0 0"/><path d="m81.921875 170.414062c-31.78125 0-61.328125-17.214843-77.113281-44.914062-1.519532-2.671875-1.066406-6.03125 1.105468-8.207031 2.179688-2.160157 5.546876-2.617188 8.210938-1.105469 11.304688 6.445312 24.128906 9.855469 37.074219 9.855469 41.410156 0 75.09375-33.6875 75.09375-75.09375 0-12.949219-3.40625-25.769531-9.847657-37.082031-1.519531-2.671876-1.066406-6.03125 1.105469-8.207032 2.175781-2.167968 5.535157-2.613281 8.207031-1.105468 27.699219 15.785156 44.910157 45.332031 44.910157 77.113281 0 48.933593-39.808594 88.746093-88.746094 88.746093zm-50.074219-32.878906c13.589844 12.179688 31.375 19.226563 50.074219 19.226563 41.40625 0 75.09375-33.6875 75.09375-75.09375 0-18.691407-7.046875-36.480469-19.226563-50.082031 1.429688 6.347656 2.15625 12.839843 2.15625 19.363281 0 48.933593-39.808593 88.746093-88.746093 88.746093-6.519531 0-13.015625-.734374-19.351563-2.160156zm0 0"/></svg>