<svg height="430pt" viewBox="-3 0 430 430.08" width="430pt" xmlns="http://www.w3.org/2000/svg"><path d="m317.109375 389.121094h-210.886719c-35.960937 0-65.222656-29.261719-65.222656-65.226563v-15.507812c0-19.472657 15.84375-35.320313 35.316406-35.320313h270.699219c19.472656 0 35.316406 15.847656 35.316406 35.320313v15.507812c0 35.964844-29.257812 65.226563-65.222656 65.226563zm-240.792969-102.402344c-11.945312 0-21.664062 9.722656-21.664062 21.667969v15.507812c0 28.4375 23.136718 51.570313 51.570312 51.570313h210.886719c28.4375 0 51.570313-23.132813 51.570313-51.570313v-15.507812c0-11.945313-9.714844-21.667969-21.664063-21.667969zm0 0"/><path d="m259.453125 320.851562h-95.574219c-3.769531 0-6.824218-3.050781-6.824218-6.824218 0-3.773438 3.054687-6.828125 6.824218-6.828125h95.574219c3.769531 0 6.828125 3.054687 6.828125 6.828125 0 3.773437-3.058594 6.824218-6.828125 6.824218zm0 0"/><path d="m259.453125 341.332031h-95.574219c-3.769531 0-6.824218-3.050781-6.824218-6.824219 0-3.773437 3.054687-6.828124 6.824218-6.828124h95.574219c3.769531 0 6.828125 3.054687 6.828125 6.828124 0 3.773438-3.058594 6.824219-6.828125 6.824219zm0 0"/><path d="m259.453125 361.8125h-95.574219c-3.769531 0-6.824218-3.050781-6.824218-6.824219 0-3.773437 3.054687-6.828125 6.824218-6.828125h95.574219c3.769531 0 6.828125 3.054688 6.828125 6.828125 0 3.773438-3.058594 6.824219-6.828125 6.824219zm0 0"/><path d="m102.441406 361.8125c-15.058594 0-27.308594-12.246094-27.308594-27.304688 0-15.0625 12.25-27.308593 27.308594-27.308593 15.054688 0 27.304688 12.246093 27.304688 27.308593 0 15.058594-12.25 27.304688-27.304688 27.304688zm0-40.960938c-7.53125 0-13.65625 6.128907-13.65625 13.65625 0 7.523438 6.125 13.652344 13.65625 13.652344 7.527344 0 13.652344-6.128906 13.652344-13.652344 0-7.527343-6.125-13.65625-13.652344-13.65625zm0 0"/><path d="m320.894531 361.8125c-15.058593 0-27.308593-12.246094-27.308593-27.304688 0-15.0625 12.25-27.308593 27.308593-27.308593 15.054688 0 27.304688 12.246093 27.304688 27.308593 0 15.058594-12.25 27.304688-27.304688 27.304688zm0-40.960938c-7.53125 0-13.65625 6.128907-13.65625 13.65625 0 7.523438 6.125 13.652344 13.65625 13.652344 7.527344 0 13.652344-6.128906 13.652344-13.652344 0-7.527343-6.125-13.65625-13.652344-13.65625zm0 0"/><path d="m143.398438 430.078125h-54.613282c-3.769531 0-6.824218-3.050781-6.824218-6.824219v-40.960937c0-3.773438 3.054687-6.828125 6.824218-6.828125h54.613282c3.773437 0 6.828124 3.054687 6.828124 6.828125v40.960937c0 3.773438-3.054687 6.824219-6.828124 6.824219zm-47.785157-13.652344h40.960938v-27.304687h-40.960938zm0 0"/><path d="m334.546875 430.078125h-54.613281c-3.769532 0-6.828125-3.050781-6.828125-6.824219v-40.960937c0-3.773438 3.058593-6.828125 6.828125-6.828125h54.613281c3.769531 0 6.828125 3.054687 6.828125 6.828125v40.960937c0 3.773438-3.058594 6.824219-6.828125 6.824219zm-47.785156-13.652344h40.957031v-27.304687h-40.957031zm0 0"/><path d="m334.546875 286.71875h-245.761719c-2.0625 0-4.011718-.933594-5.308594-2.539062-1.296874-1.601563-1.796874-3.707032-1.363281-5.726563l19.136719-88.878906c1.1875-14.472657 13.351562-25.734375 27.933594-25.734375h164.964844c14.582031 0 26.75 11.261718 27.933593 25.734375l19.136719 88.878906c.433594 2.019531-.066406 4.125-1.363281 5.726563-1.292969 1.605468-3.246094 2.539062-5.308594 2.539062zm-237.308594-13.652344h228.855469l-17.457031-81.078125c-.074219-.335937-.121094-.675781-.140625-1.015625-.472656-7.5625-6.777344-13.480468-14.347656-13.480468h-164.964844c-7.570313 0-13.875 5.921874-14.347656 13.480468-.019532.339844-.066407.679688-.136719 1.015625zm0 0"/><path d="m211.667969 259.414062c-16.347657 0-31.34375-5.761718-40.117188-15.414062-2.535156-2.792969-2.328125-7.105469.460938-9.644531 2.789062-2.535157 7.105469-2.320313 9.644531.460937 6.132812 6.75 17.632812 10.945313 30.011719 10.945313 12.238281 0 23.671875-4.128907 29.839843-10.769531 2.570313-2.757813 6.882813-2.914063 9.648438-.351563 2.761719 2.566406 2.917969 6.886719.355469 9.644531-8.800781 9.476563-23.691407 15.128906-39.84375 15.128906zm0 0"/><path d="m157.054688 208.214844c0 5.652344-4.585938 10.238281-10.242188 10.238281s-10.238281-4.585937-10.238281-10.238281c0-5.65625 4.582031-10.242188 10.238281-10.242188s10.242188 4.585938 10.242188 10.242188zm0 0"/><path d="m286.761719 208.214844c0 5.652344-4.585938 10.238281-10.242188 10.238281s-10.238281-4.585937-10.238281-10.238281c0-5.65625 4.582031-10.242188 10.238281-10.242188s10.242188 4.585938 10.242188 10.242188zm0 0"/><path d="m389.160156 273.066406h-47.785156c-3.773438 0-6.828125-3.054687-6.828125-6.828125v-34.132812c0-3.773438 3.054687-6.824219 6.828125-6.824219h13.652344c22.585937 0 40.960937 18.371094 40.960937 40.957031 0 3.773438-3.058593 6.828125-6.828125 6.828125zm-40.960937-13.652344h33.269531c-3.039062-11.769531-13.742188-20.480468-26.441406-20.480468h-6.828125zm0 0"/><path d="m341.375 286.71875c-3.773438 0-6.828125-3.050781-6.828125-6.824219v-13.65625c0-3.773437 3.054687-6.824219 6.828125-6.824219 3.769531 0 6.824219 3.050782 6.824219 6.824219v13.65625c0 3.773438-3.054688 6.824219-6.824219 6.824219zm0 0"/><path d="m81.960938 273.066406h-47.789063c-3.769531 0-6.824219-3.054687-6.824219-6.828125 0-22.585937 18.371094-40.957031 40.960938-40.957031h13.652344c3.769531 0 6.824218 3.050781 6.824218 6.824219v34.132812c0 3.773438-3.054687 6.828125-6.824218 6.828125zm-40.097657-13.652344h33.269531v-20.480468h-6.824218c-12.703125 0-23.40625 8.710937-26.445313 20.480468zm0 0"/><path d="m81.960938 286.71875c-3.769532 0-6.828126-3.050781-6.828126-6.824219v-13.65625c0-3.773437 3.058594-6.824219 6.828126-6.824219 3.769531 0 6.824218 3.050782 6.824218 6.824219v13.65625c0 3.773438-3.054687 6.824219-6.824218 6.824219zm0 0"/><path d="m409.640625 430.078125h-27.308594c-3.769531 0-6.824219-3.050781-6.824219-6.824219v-153.460937c0-3.773438 3.054688-6.828125 6.824219-6.828125s6.828125 3.054687 6.828125 6.828125v146.632812h13.652344v-361.8125h-13.652344v186.820313c0 3.773437-3.058594 6.828125-6.828125 6.828125s-6.824219-3.054688-6.824219-6.828125v-193.648438c0-3.773437 3.054688-6.824218 6.824219-6.824218h27.308594c3.769531 0 6.824219 3.050781 6.824219 6.824218v375.46875c0 3.773438-3.054688 6.824219-6.824219 6.824219zm0 0"/><path d="m41 430.078125h-27.308594c-3.769531 0-6.824218-3.050781-6.824218-6.824219v-375.46875c0-3.773437 3.054687-6.824218 6.824218-6.824218h27.308594c3.769531 0 6.828125 3.050781 6.828125 6.824218v197.976563c0 3.773437-3.058594 6.824219-6.828125 6.824219s-6.828125-3.050782-6.828125-6.824219v-191.148438h-13.652344v361.8125h13.652344v-150.21875c0-3.773437 3.058594-6.828125 6.828125-6.828125s6.828125 3.054688 6.828125 6.828125v157.046875c0 3.773438-3.058594 6.824219-6.828125 6.824219zm0 0"/><path d="m416.464844 54.613281h-409.597656c-3.769532 0-6.8281255-3.054687-6.8281255-6.828125v-40.957031c0-3.773437 3.0585935-6.828125 6.8281255-6.828125h409.597656c3.773437 0 6.828125 3.054688 6.828125 6.828125v40.957031c0 3.773438-3.054688 6.828125-6.828125 6.828125zm-402.773438-13.652343h395.949219v-27.308594h-395.949219zm0 0"/><path d="m382.332031 75.09375h-341.332031c-3.769531 0-6.828125-3.054688-6.828125-6.828125v-20.480469c0-3.773437 3.058594-6.824218 6.828125-6.824218h341.332031c3.769531 0 6.828125 3.050781 6.828125 6.824218v20.480469c0 3.773437-3.058594 6.828125-6.828125 6.828125zm-334.503906-13.652344h327.679687v-6.828125h-327.679687zm0 0"/><path d="m382.332031 95.574219h-341.332031c-3.769531 0-6.828125-3.054688-6.828125-6.828125v-20.480469c0-3.773437 3.058594-6.824219 6.828125-6.824219h341.332031c3.769531 0 6.828125 3.050782 6.828125 6.824219v20.480469c0 3.773437-3.058594 6.828125-6.828125 6.828125zm-334.503906-13.652344h327.679687v-6.828125h-327.679687zm0 0"/><path d="m382.332031 116.054688h-341.332031c-3.769531 0-6.828125-3.054688-6.828125-6.828126v-20.480468c0-3.773438 3.058594-6.824219 6.828125-6.824219h341.332031c3.769531 0 6.828125 3.050781 6.828125 6.824219v20.480468c0 3.773438-3.058594 6.828126-6.828125 6.828126zm-334.503906-13.65625h327.679687v-6.824219h-327.679687zm0 0"/><path d="m382.332031 136.535156h-341.332031c-3.769531 0-6.828125-3.054687-6.828125-6.828125v-20.480469c0-3.773437 3.058594-6.828124 6.828125-6.828124h341.332031c3.769531 0 6.828125 3.054687 6.828125 6.828124v20.480469c0 3.773438-3.058594 6.828125-6.828125 6.828125zm-334.503906-13.65625h327.679687v-6.824218h-327.679687zm0 0"/><path d="m382.332031 157.011719h-341.332031c-3.769531 0-6.828125-3.050781-6.828125-6.824219v-20.480469c0-3.773437 3.058594-6.828125 6.828125-6.828125h341.332031c3.769531 0 6.828125 3.054688 6.828125 6.828125v20.480469c0 3.773438-3.058594 6.824219-6.828125 6.824219zm-334.503906-13.652344h327.679687v-6.824219h-327.679687zm0 0"/></svg>