<svg height="436pt" viewBox="0 -10 436.90667 436" width="436pt" xmlns="http://www.w3.org/2000/svg"><path d="m416.425781 375.921875h-395.945312c-3.769531 0-6.828125-3.054687-6.828125-6.828125v-101.214844c0-19.472656 15.84375-35.320312 35.316406-35.320312l169.210938-6.820313 170.027343 6.828125h.011719c19.195312 0 35.03125 15.839844 35.03125 35.3125v101.214844c.003906 3.773438-3.054688 6.828125-6.824219 6.828125zm-389.117187-13.65625h382.292968v-94.386719c0-11.945312-9.71875-21.664062-21.664062-21.664062l-169.757812-6.835938-168.933594 6.828125c-12.222656.007813-21.9375 9.726563-21.9375 21.671875zm0 0"/><path d="m266.238281 375.921875h-95.570312c-3.769531 0-6.828125-3.054687-6.828125-6.828125s3.058594-6.828125 6.828125-6.828125h95.570312c3.773438 0 6.828125 3.054687 6.828125 6.828125s-3.054687 6.828125-6.828125 6.828125zm0 0"/><path d="m416.425781 416.878906h-88.746093c-3.769532 0-6.828126-3.050781-6.828126-6.824218v-40.960938c0-3.773438 3.058594-6.828125 6.828126-6.828125h88.746093c3.769531 0 6.828125 3.054687 6.828125 6.828125v40.960938c0 3.773437-3.058594 6.824218-6.828125 6.824218zm-81.917969-13.652344h75.09375v-27.304687h-75.09375zm0 0"/><path d="m109.226562 416.878906h-88.746093c-3.769531 0-6.828125-3.050781-6.828125-6.824218v-40.960938c0-3.773438 3.058594-6.828125 6.828125-6.828125h88.746093c3.769532 0 6.828126 3.054687 6.828126 6.828125v40.960938c0 3.773437-3.058594 6.824218-6.828126 6.824218zm-81.917968-13.652344h75.089844v-27.304687h-75.089844zm0 0"/><path d="m375.460938 246.214844c-3.148438 0-5.976563-2.1875-6.667969-5.386719l-19.234375-89.347656c-.074219-.332031-.121094-.675781-.140625-1.015625-.472657-7.558594-6.777344-13.476563-14.347657-13.476563h-55.175781c-3.769531 0-6.828125-3.054687-6.828125-6.828125 0-3.773437 3.058594-6.828125 6.828125-6.828125h55.175781c14.578126 0 26.746094 11.261719 27.933594 25.734375l19.136719 88.878906c.792969 3.6875-1.550781 7.320313-5.238281 8.113282-.480469.109375-.964844.15625-1.441406.15625zm0 0"/><path d="m61.445312 246.214844c-.476562 0-.957031-.046875-1.441406-.15625-3.6875-.792969-6.03125-4.425782-5.238281-8.113282l19.136719-88.878906c1.1875-14.472656 13.355468-25.734375 27.933594-25.734375h55.179687c3.769531 0 6.828125 3.054688 6.828125 6.828125 0 3.773438-3.058594 6.828125-6.828125 6.828125h-55.179687c-7.570313 0-13.871094 5.917969-14.34375 13.476563-.023438.339844-.066407.679687-.140626 1.015625l-19.238281 89.347656c-.691406 3.199219-3.519531 5.386719-6.667969 5.386719zm0 0"/><path d="m253.300781 205.253906c-1.859375 0-3.710937-.753906-5.058593-2.234375-6.132813-6.753906-17.628907-10.945312-30.003907-10.945312-12.238281 0-23.675781 4.125-29.847656 10.757812-2.570313 2.773438-6.878906 2.921875-9.648437.355469-2.761719-2.566406-2.917969-6.886719-.351563-9.648438 8.808594-9.464843 23.699219-15.117187 39.847656-15.117187 16.347657 0 31.34375 5.757813 40.113281 15.414063 2.53125 2.792968 2.328126 7.113281-.460937 9.644531-1.308594 1.1875-2.953125 1.773437-4.589844 1.773437zm0 0"/><path d="m157.011719 164.292969c0 7.539062-6.109375 13.652343-13.652344 13.652343-7.539063 0-13.652344-6.113281-13.652344-13.652343 0-7.539063 6.113281-13.652344 13.652344-13.652344 7.542969 0 13.652344 6.113281 13.652344 13.652344zm0 0"/><path d="m307.199219 164.292969c0 7.539062-6.113281 13.652343-13.652344 13.652343s-13.652344-6.113281-13.652344-13.652343c0-7.539063 6.113281-13.652344 13.652344-13.652344s13.652344 6.113281 13.652344 13.652344zm0 0"/><path d="m430.078125 232.558594h-47.785156c-3.769531 0-6.828125-3.050782-6.828125-6.824219v-34.132813c0-3.773437 3.058594-6.828124 6.828125-6.828124h13.652343c22.585938 0 40.960938 18.375 40.960938 40.960937 0 3.773437-3.054688 6.824219-6.828125 6.824219zm-40.957031-13.652344h33.269531c-3.039063-11.765625-13.746094-20.480469-26.445313-20.480469h-6.824218zm0 0"/><path d="m382.292969 246.214844c-3.769531 0-6.828125-3.054688-6.828125-6.828125v-13.652344c0-3.773437 3.058594-6.828125 6.828125-6.828125s6.828125 3.054688 6.828125 6.828125v13.652344c0 3.773437-3.058594 6.828125-6.828125 6.828125zm0 0"/><path d="m54.613281 232.558594h-47.785156c-3.773437 0-6.828125-3.050782-6.828125-6.824219 0-22.585937 18.375-40.960937 40.960938-40.960937h13.652343c3.769531 0 6.828125 3.054687 6.828125 6.828124v34.132813c0 3.773437-3.058594 6.824219-6.828125 6.824219zm-40.097656-13.652344h33.269531v-20.480469h-6.824218c-12.699219 0-23.40625 8.714844-26.445313 20.480469zm0 0"/><path d="m54.613281 246.214844c-3.769531 0-6.828125-3.054688-6.828125-6.828125v-13.652344c0-3.773437 3.058594-6.828125 6.828125-6.828125s6.828125 3.054688 6.828125 6.828125v13.652344c0 3.773437-3.058594 6.828125-6.828125 6.828125zm0 0"/><path d="m409.601562 321.308594h-382.292968c-3.773438 0-6.828125-3.054688-6.828125-6.828125 0-3.773438 3.054687-6.828125 6.828125-6.828125h382.292968c3.769532 0 6.824219 3.054687 6.824219 6.828125 0 3.773437-3.054687 6.828125-6.824219 6.828125zm0 0"/><path d="m416.425781 321.308594h-81.917969c-3.769531 0-6.828124-3.054688-6.828124-6.828125 0-30.113281 24.5-54.613281 54.613281-54.613281h34.132812c3.769531 0 6.828125 3.050781 6.828125 6.824218v47.789063c0 3.773437-3.058594 6.828125-6.828125 6.828125zm-74.523437-13.65625h67.699218v-34.132813h-27.308593c-20.257813 0-37.128907 14.785157-40.390625 34.132813zm0 0"/><path d="m102.398438 321.308594h-81.917969c-3.769531 0-6.828125-3.054688-6.828125-6.828125v-47.789063c0-3.773437 3.058594-6.824218 6.828125-6.824218h34.132812c30.113281 0 54.613281 24.5 54.613281 54.613281 0 3.773437-3.054687 6.828125-6.828124 6.828125zm-75.089844-13.65625h67.695312c-3.261718-19.347656-20.128906-34.132813-40.390625-34.132813h-27.304687zm0 0"/><path d="m88.746094 348.613281h-40.960938c-3.769531 0-6.824218-3.054687-6.824218-6.828125 0-3.773437 3.054687-6.824218 6.824218-6.824218h40.960938c3.769531 0 6.828125 3.050781 6.828125 6.824218 0 3.773438-3.058594 6.828125-6.828125 6.828125zm0 0"/><path d="m389.121094 348.613281h-40.960938c-3.769531 0-6.828125-3.054687-6.828125-6.828125 0-3.773437 3.058594-6.824218 6.828125-6.824218h40.960938c3.769531 0 6.824218 3.050781 6.824218 6.824218 0 3.773438-3.054687 6.828125-6.824218 6.828125zm0 0"/><path d="m218.453125 164.292969c-45.171875 0-81.917969-36.746094-81.917969-81.917969 0-45.175781 36.746094-81.921875 81.917969-81.921875s81.921875 36.746094 81.921875 81.921875c0 45.171875-36.75 81.917969-81.921875 81.917969zm0-150.1875c-37.644531 0-68.265625 30.628906-68.265625 68.269531s30.621094 68.265625 68.265625 68.265625 68.265625-30.625 68.265625-68.265625-30.621094-68.269531-68.265625-68.269531zm0 0"/><path d="m218.453125 136.988281c-26.347656 0-47.785156-21.441406-47.785156-47.789062 0-24.839844 38.679687-62.210938 43.089843-66.390625 2.632813-2.496094 6.757813-2.496094 9.390626 0 4.410156 4.179687 43.089843 41.550781 43.089843 66.390625 0 26.347656-21.4375 47.789062-47.785156 47.789062zm0-99.65625c-14.808594 15.027344-34.132813 38.972657-34.132813 51.867188 0 18.820312 15.3125 34.132812 34.132813 34.132812s34.132813-15.3125 34.132813-34.132812c0-12.894531-19.324219-36.839844-34.132813-51.867188zm0 0"/></svg>