<svg height="436pt" viewBox="0 -6 436.90667 436" width="436pt" xmlns="http://www.w3.org/2000/svg"><path d="m170.667969 259.867188c0 7.539062-6.113281 13.652343-13.65625 13.652343-7.539063 0-13.652344-6.113281-13.652344-13.652343 0-7.542969 6.113281-13.652344 13.652344-13.652344 7.542969 0 13.65625 6.109375 13.65625 13.652344zm0 0"/><path d="m293.546875 259.867188c0 7.539062-6.113281 13.652343-13.652344 13.652343-7.542969 0-13.65625-6.113281-13.65625-13.652343 0-7.542969 6.113281-13.652344 13.65625-13.652344 7.539063 0 13.652344 6.109375 13.652344 13.652344zm0 0"/><path d="m416.425781 34.585938h-155.066406c-3.769531 0-6.824219 3.054687-6.824219 6.828124 0 3.773438 3.054688 6.824219 6.824219 6.824219h155.066406c3.765625 0 6.828125 3.0625 6.828125 6.828125v157.011719c0 3.769531-3.0625 6.828125-6.828125 6.828125h-395.945312c-3.761719 0-6.828125-3.058594-6.828125-6.828125v-157.011719c0-3.765625 3.066406-6.828125 6.828125-6.828125h154.347656c3.769531 0 6.824219-3.050781 6.824219-6.824219 0-3.773437-3.054688-6.828124-6.824219-6.828124h-154.347656c-11.292969 0-20.480469 9.1875-20.480469 20.480468v157.011719c0 11.292969 9.1875 20.480469 20.480469 20.480469h395.945312c11.292969 0 20.480469-9.1875 20.480469-20.480469v-157.011719c0-11.292968-9.1875-20.480468-20.480469-20.480468zm0 0"/><path d="m402.773438 205.253906h-368.640626c-3.769531 0-6.824218-3.054687-6.824218-6.828125v-129.707031c0-3.773438 3.054687-6.824219 6.824218-6.824219h140.695313c3.769531 0 6.824219 3.050781 6.824219 6.824219s-3.054688 6.828125-6.824219 6.828125h-133.867187v116.054687h354.984374v-116.054687h-134.160156c-3.769531 0-6.828125-3.054687-6.828125-6.828125s3.058594-6.824219 6.828125-6.824219h140.988282c3.769531 0 6.828124 3.050781 6.828124 6.824219v129.707031c0 3.773438-3.058593 6.828125-6.828124 6.828125zm0 0"/><path d="m120.628906 101.242188 4.757813 14.652343c.644531 1.984375 2.492187 3.324219 4.574219 3.324219h15.40625c4.660156 0 6.597656 5.960938 2.824218 8.699219l-12.460937 9.058593c-1.6875 1.222657-2.390625 3.394532-1.75 5.375l4.761719 14.652344c1.441406 4.429688-3.632813 8.117188-7.402344 5.378906l-12.460938-9.054687c-1.6875-1.226563-3.96875-1.226563-5.65625 0l-12.460937 9.054687c-3.773438 2.738282-8.84375-.945312-7.402344-5.378906l4.761719-14.652344c.640625-1.980468-.0625-4.152343-1.75-5.375l-12.460938-9.058593c-3.773437-2.738281-1.832031-8.699219 2.824219-8.699219h15.40625c2.082031 0 3.929687-1.339844 4.574219-3.324219l4.757812-14.652343c1.445313-4.429688 7.714844-4.429688 9.15625 0zm0 0"/><path d="m325.425781 101.242188 4.761719 14.652343c.644531 1.984375 2.488281 3.324219 4.574219 3.324219h15.40625c4.660156 0 6.59375 5.960938 2.824219 8.699219l-12.460938 9.058593c-1.6875 1.222657-2.394531 3.394532-1.75 5.375l4.761719 14.652344c1.4375 4.429688-3.632813 8.117188-7.402344 5.378906l-12.460937-9.054687c-1.6875-1.226563-3.96875-1.226563-5.65625 0l-12.464844 9.054687c-3.765625 2.738282-8.839844-.945312-7.398438-5.378906l4.757813-14.652344c.644531-1.980468-.058594-4.152343-1.746094-5.375l-12.464844-9.058593c-3.765625-2.738281-1.828125-8.699219 2.828125-8.699219h15.40625c2.082032 0 3.929688-1.339844 4.574219-3.324219l4.757813-14.652343c1.445312-4.429688 7.714843-4.429688 9.152343 0zm0 0"/><path d="m245.761719 116.507812c-11.292969 0-20.480469-9.1875-20.480469-20.480468v-20.480469h-13.65625v20.480469c0 11.292968-9.183594 20.480468-20.476562 20.480468-11.292969 0-20.480469-9.1875-20.480469-20.480468v-75.09375c0-11.292969 9.1875-20.480469 20.480469-20.480469 11.292968 0 20.476562 9.1875 20.476562 20.480469v13.652344h13.65625v-13.652344c0-11.292969 9.1875-20.480469 20.480469-20.480469s20.476562 9.1875 20.476562 20.480469v75.09375c0 11.292968-9.183593 20.480468-20.476562 20.480468zm-40.960938-54.613281h27.304688c3.769531 0 6.828125 3.050781 6.828125 6.824219v27.308594c0 3.765625 3.0625 6.824218 6.828125 6.824218 3.761719 0 6.824219-3.058593 6.824219-6.824218v-75.09375c0-3.765625-3.0625-6.828125-6.824219-6.828125-3.765625 0-6.828125 3.0625-6.828125 6.828125v20.480468c0 3.773438-3.058594 6.824219-6.828125 6.824219h-27.304688c-3.769531 0-6.828125-3.050781-6.828125-6.824219v-20.480468c0-3.765625-3.0625-6.828125-6.824218-6.828125-3.765626 0-6.828126 3.0625-6.828126 6.828125v75.09375c0 3.765625 3.0625 6.824218 6.828126 6.824218 3.761718 0 6.824218-3.058593 6.824218-6.824218v-27.308594c0-3.773438 3.058594-6.824219 6.828125-6.824219zm0 0"/><path d="m252.585938 334.960938h-68.265626c-3.769531 0-6.828124-3.054688-6.828124-6.828126 0-3.773437 3.058593-6.824218 6.828124-6.824218h68.265626c3.769531 0 6.828124 3.050781 6.828124 6.824218 0 3.773438-3.058593 6.828126-6.828124 6.828126zm0 0"/><path d="m302.203125 227.441406h-20.207031c23.648437 18.773438 38.855468 47.738282 38.855468 80.210938 0 56.46875-45.933593 102.402344-102.398437 102.402344s-102.398437-45.933594-102.398437-102.402344c0-32.472656 15.207031-61.4375 38.859374-80.210938h-20.210937c-19.984375 20.855469-32.304687 49.113282-32.304687 80.210938 0 63.996094 52.0625 116.054687 116.054687 116.054687s116.054687-52.058593 116.054687-116.054687c0-31.097656-12.320312-59.355469-32.304687-80.210938zm0 0"/></svg>