<svg height="436pt" viewBox="0 -6 436.90667 436" width="436pt" xmlns="http://www.w3.org/2000/svg"><path d="m218.453125 423.707031c-63.992187 0-116.054687-52.058593-116.054687-116.054687 0-32.183594 12.871093-62.105469 36.242187-84.253906 2.734375-2.59375 7.058594-2.476563 9.652344.261718 2.59375 2.734375 2.476562 7.054688-.261719 9.644532-20.621094 19.550781-31.976562 45.949218-31.976562 74.347656 0 56.46875 45.933593 102.402344 102.398437 102.402344s102.398437-45.933594 102.398437-102.402344c0-28.394532-11.351562-54.796875-31.972656-74.339844-2.734375-2.59375-2.851562-6.914062-.253906-9.644531 2.589844-2.746094 6.917969-2.863281 9.648438-.261719 23.367187 22.148438 36.234374 52.066406 36.234374 84.246094 0 63.996094-52.0625 116.054687-116.054687 116.054687zm0 0"/><path d="m218.453125 348.613281c-16.347656 0-31.34375-5.761719-40.117187-15.414062-2.53125-2.792969-2.324219-7.105469.464843-9.644531 2.789063-2.53125 7.101563-2.328126 9.640625.460937 6.136719 6.75 17.636719 10.945313 30.011719 10.945313 12.242187 0 23.671875-4.128907 29.839844-10.769532 2.570312-2.757812 6.886719-2.917968 9.648437-.351562 2.765625 2.566406 2.921875 6.886718.359375 9.644531-8.800781 9.476563-23.695312 15.128906-39.847656 15.128906zm0 0"/><path d="m170.667969 259.867188c0 7.539062-6.113281 13.652343-13.65625 13.652343-7.539063 0-13.652344-6.113281-13.652344-13.652343 0-7.542969 6.113281-13.652344 13.652344-13.652344 7.542969 0 13.65625 6.109375 13.65625 13.652344zm0 0"/><path d="m293.546875 259.867188c0 7.539062-6.113281 13.652343-13.652344 13.652343-7.542969 0-13.65625-6.113281-13.65625-13.652343 0-7.542969 6.113281-13.652344 13.65625-13.652344 7.539063 0 13.652344 6.109375 13.652344 13.652344zm0 0"/><path d="m416.425781 232.558594h-395.945312c-11.292969 0-20.480469-9.1875-20.480469-20.480469v-157.011719c0-11.292968 9.1875-20.480468 20.480469-20.480468h155.230469c3.769531 0 6.824218 3.054687 6.824218 6.828124 0 3.773438-3.054687 6.824219-6.824218 6.824219h-155.230469c-3.761719 0-6.828125 3.0625-6.828125 6.828125v157.011719c0 3.769531 3.066406 6.828125 6.828125 6.828125h395.945312c3.765625 0 6.828125-3.058594 6.828125-6.828125v-157.011719c0-3.765625-3.0625-6.828125-6.828125-6.828125h-153.859375c-3.769531 0-6.824218-3.050781-6.824218-6.824219 0-3.773437 3.054687-6.828124 6.824218-6.828124h153.859375c11.292969 0 20.480469 9.1875 20.480469 20.480468v157.011719c0 11.292969-9.1875 20.480469-20.480469 20.480469zm0 0"/><path d="m402.773438 205.253906h-368.640626c-3.769531 0-6.824218-3.054687-6.824218-6.828125v-129.707031c0-3.773438 3.054687-6.824219 6.824218-6.824219h141.582032c3.769531 0 6.824218 3.050781 6.824218 6.824219s-3.054687 6.828125-6.824218 6.828125h-134.753906v116.054687h354.984374v-116.054687h-133.6875c-3.769531 0-6.828124-3.054687-6.828124-6.828125s3.058593-6.824219 6.828124-6.824219h140.515626c3.769531 0 6.828124 3.050781 6.828124 6.824219v129.707031c0 3.773438-3.058593 6.828125-6.828124 6.828125zm0 0"/><path d="m121.714844 94.253906 5.894531 18.140625c.796875 2.453125 3.082031 4.113281 5.664063 4.113281h19.070312c5.765625 0 8.164062 7.378907 3.5 10.769532l-15.429688 11.210937c-2.089843 1.515625-2.960937 4.203125-2.164062 6.65625l5.894531 18.136719c1.78125 5.484375-4.496093 10.046875-9.164062 6.65625l-15.429688-11.210938c-2.085937-1.515624-4.910156-1.515624-6.996093 0l-15.433594 11.210938c-4.664063 3.390625-10.941406-1.171875-9.160156-6.65625l5.894531-18.136719c.796875-2.453125-.078125-5.140625-2.164063-6.65625l-15.429687-11.210937c-4.664063-3.390625-2.265625-10.769532 3.5-10.769532h19.074219c2.578124 0 4.863281-1.660156 5.660156-4.113281l5.894531-18.140625c1.785156-5.484375 9.542969-5.484375 11.324219 0zm0 0"/><path d="m326.515625 94.253906 5.894531 18.140625c.796875 2.453125 3.082032 4.113281 5.660156 4.113281h19.074219c5.765625 0 8.164063 7.378907 3.496094 10.769532l-15.429687 11.210937c-2.085938 1.515625-2.957032 4.203125-2.160157 6.65625l5.894531 18.136719c1.78125 5.484375-4.496093 10.046875-9.164062 6.65625l-15.429688-11.210938c-2.085937-1.515624-4.910156-1.515624-7 0l-15.429687 11.210938c-4.664063 3.390625-10.945313-1.171875-9.160156-6.65625l5.894531-18.136719c.796875-2.453125-.078125-5.140625-2.164062-6.65625l-15.429688-11.210937c-4.667969-3.390625-2.269531-10.769532 3.5-10.769532h19.070312c2.578126 0 4.867188-1.660156 5.664063-4.113281l5.890625-18.140625c1.785156-5.484375 9.546875-5.484375 11.328125 0zm0 0"/><path d="m223.5 117.757812 4.683594 14.417969c.632812 1.953125 2.449218 3.269531 4.5 3.269531h15.160156c4.585938 0 6.492188 5.871094 2.78125 8.5625l-12.265625 8.914063c-1.660156 1.203125-2.351563 3.339844-1.71875 5.289063l4.683594 14.417968c1.417969 4.359375-3.570313 7.984375-7.28125 5.289063l-12.265625-8.910157c-1.660156-1.203124-3.902344-1.203124-5.5625 0l-12.265625 8.910157c-3.710938 2.695312-8.699219-.929688-7.28125-5.289063l4.683593-14.417968c.632813-1.949219-.058593-4.085938-1.71875-5.289063l-12.265624-8.914063c-3.710938-2.691406-1.804688-8.5625 2.78125-8.5625h15.160156c2.050781 0 3.867187-1.320312 4.5-3.269531l4.683594-14.417969c1.417968-4.359374 7.589843-4.359374 9.007812 0zm0 0"/><path d="m245.761719 116.507812c-11.292969 0-20.480469-9.1875-20.480469-20.480468v-20.480469h-13.65625v20.480469c0 11.292968-9.183594 20.480468-20.476562 20.480468-11.292969 0-20.480469-9.1875-20.480469-20.480468v-75.09375c0-11.292969 9.1875-20.480469 20.480469-20.480469 11.292968 0 20.476562 9.1875 20.476562 20.480469v13.652344h13.65625v-13.652344c0-11.292969 9.1875-20.480469 20.480469-20.480469s20.476562 9.1875 20.476562 20.480469v75.09375c0 11.292968-9.183593 20.480468-20.476562 20.480468zm-40.960938-54.613281h27.304688c3.769531 0 6.828125 3.050781 6.828125 6.824219v27.308594c0 3.765625 3.0625 6.824218 6.828125 6.824218 3.761719 0 6.824219-3.058593 6.824219-6.824218v-75.09375c0-3.765625-3.0625-6.828125-6.824219-6.828125-3.765625 0-6.828125 3.0625-6.828125 6.828125v20.480468c0 3.773438-3.058594 6.824219-6.828125 6.824219h-27.304688c-3.769531 0-6.828125-3.050781-6.828125-6.824219v-20.480468c0-3.765625-3.0625-6.828125-6.824218-6.828125-3.765626 0-6.828126 3.0625-6.828126 6.828125v75.09375c0 3.765625 3.0625 6.824218 6.828126 6.824218 3.761718 0 6.824218-3.058593 6.824218-6.824218v-27.308594c0-3.773438 3.058594-6.824219 6.828125-6.824219zm0 0"/></svg>