<svg height="436pt" viewBox="0 -6 436.90667 436" width="436pt" xmlns="http://www.w3.org/2000/svg"><path d="m218.453125 423.707031c-63.992187 0-116.054687-52.058593-116.054687-116.054687 0-32.324219 13.636718-63.433594 37.414062-85.347656 2.773438-2.550782 7.085938-2.378907 9.648438.394531 2.550781 2.773437 2.378906 7.09375-.394532 9.644531-20.980468 19.335938-33.011718 46.789062-33.011718 75.308594 0 56.46875 45.933593 102.402344 102.398437 102.402344s102.398437-45.933594 102.398437-102.402344c0-28.394532-11.351562-54.796875-31.972656-74.339844-2.734375-2.59375-2.851562-6.914062-.253906-9.644531 2.589844-2.746094 6.917969-2.863281 9.648438-.261719 23.367187 22.148438 36.234374 52.066406 36.234374 84.246094 0 63.996094-52.0625 116.054687-116.054687 116.054687zm0 0"/><path d="m178.179688 316.339844c0 20.679687 18.183593 37.445312 40.617187 37.445312s40.617187-16.765625 40.617187-37.445312c0-20.6875-81.234374-20.6875-81.234374 0zm40.617187 25.445312c-12.269531 0-22.214844-4.585937-22.214844-10.238281s9.945313-10.238281 22.214844-10.238281 22.214844 4.585937 22.214844 10.238281-9.945313 10.238281-22.214844 10.238281zm0 0"/><path d="m170.667969 259.867188c0 7.539062-6.113281 13.652343-13.65625 13.652343-7.539063 0-13.652344-6.113281-13.652344-13.652343 0-7.542969 6.113281-13.652344 13.652344-13.652344 7.542969 0 13.65625 6.109375 13.65625 13.652344zm0 0"/><path d="m293.546875 259.867188c0 7.539062-6.113281 13.652343-13.652344 13.652343-7.542969 0-13.65625-6.113281-13.65625-13.652343 0-7.542969 6.113281-13.652344 13.65625-13.652344 7.539063 0 13.652344 6.109375 13.652344 13.652344zm0 0"/><path d="m416.425781 232.558594h-395.945312c-11.292969 0-20.480469-9.1875-20.480469-20.480469v-157.011719c0-11.292968 9.1875-20.480468 20.480469-20.480468h155.320312c3.769531 0 6.828125 3.054687 6.828125 6.828124 0 3.773438-3.058594 6.824219-6.828125 6.824219h-155.320312c-3.761719 0-6.828125 3.0625-6.828125 6.828125v157.011719c0 3.769531 3.066406 6.828125 6.828125 6.828125h395.945312c3.765625 0 6.828125-3.058594 6.828125-6.828125v-157.011719c0-3.765625-3.0625-6.828125-6.828125-6.828125h-154.25c-3.769531 0-6.824219-3.050781-6.824219-6.824219 0-3.773437 3.054688-6.828124 6.824219-6.828124h154.25c11.292969 0 20.480469 9.1875 20.480469 20.480468v157.011719c0 11.292969-9.1875 20.480469-20.480469 20.480469zm0 0"/><path d="m402.773438 205.253906h-368.640626c-3.769531 0-6.824218-3.054687-6.824218-6.828125v-129.707031c0-3.773438 3.054687-6.824219 6.824218-6.824219h139.300782c3.769531 0 6.828125 3.050781 6.828125 6.824219s-3.058594 6.828125-6.828125 6.828125h-132.472656v116.054687h354.984374v-116.054687h-133.769531c-3.769531 0-6.824219-3.054687-6.824219-6.828125s3.054688-6.824219 6.824219-6.824219h140.597657c3.769531 0 6.828124 3.050781 6.828124 6.824219v129.707031c0 3.773438-3.058593 6.828125-6.828124 6.828125zm0 0"/><path d="m245.761719 116.507812c-11.292969 0-20.480469-9.1875-20.480469-20.480468v-20.480469h-13.65625v20.480469c0 11.292968-9.183594 20.480468-20.476562 20.480468-11.292969 0-20.480469-9.1875-20.480469-20.480468v-75.09375c0-11.292969 9.1875-20.480469 20.480469-20.480469 11.292968 0 20.476562 9.1875 20.476562 20.480469v13.652344h13.65625v-13.652344c0-11.292969 9.1875-20.480469 20.480469-20.480469s20.476562 9.1875 20.476562 20.480469v75.09375c0 11.292968-9.183593 20.480468-20.476562 20.480468zm-40.960938-54.613281h27.304688c3.769531 0 6.828125 3.050781 6.828125 6.824219v27.308594c0 3.765625 3.0625 6.824218 6.828125 6.824218 3.761719 0 6.824219-3.058593 6.824219-6.824218v-75.09375c0-3.765625-3.0625-6.828125-6.824219-6.828125-3.765625 0-6.828125 3.0625-6.828125 6.828125v20.480468c0 3.773438-3.058594 6.824219-6.828125 6.824219h-27.304688c-3.769531 0-6.828125-3.050781-6.828125-6.824219v-20.480468c0-3.765625-3.0625-6.828125-6.824218-6.828125-3.765626 0-6.828126 3.0625-6.828126 6.828125v75.09375c0 3.765625 3.0625 6.824218 6.828126 6.824218 3.761718 0 6.824218-3.058593 6.824218-6.824218v-27.308594c0-3.773438 3.058594-6.824219 6.828125-6.824219zm0 0"/><path d="m89.214844 112.96875 4.714844 14.511719c.636718 1.960937 2.464843 3.289062 4.527343 3.289062h15.253907c4.613281 0 6.53125 5.902344 2.800781 8.613281l-12.34375 8.96875c-1.667969 1.214844-2.367188 3.363282-1.730469 5.324219l4.714844 14.507813c1.425781 4.390625-3.59375 8.035156-7.328125 5.324218l-12.339844-8.964843c-1.667969-1.214844-3.929687-1.214844-5.597656 0l-12.339844 8.964843c-3.734375 2.714844-8.753906-.933593-7.332031-5.324218l4.714844-14.507813c.640624-1.960937-.0625-4.109375-1.730469-5.324219l-12.339844-8.96875c-3.734375-2.710937-1.816406-8.613281 2.796875-8.613281h15.253906c2.066406 0 3.894532-1.328125 4.53125-3.289062l4.714844-14.511719c1.425781-4.386719 7.632812-4.386719 9.058594 0zm0 0"/><path d="m177.316406 121.722656 4.042969 12.441406c.546875 1.683594 2.113281 2.820313 3.882813 2.820313h13.082031c3.957031 0 5.601562 5.0625 2.402343 7.390625l-10.582031 7.6875c-1.433593 1.039062-2.03125 2.882812-1.484375 4.566406l4.042969 12.441406c1.222656 3.761719-3.082031 6.890626-6.285156 4.566407l-10.582031-7.691407c-1.433594-1.039062-3.367188-1.039062-4.800782 0l-10.582031 7.691407c-3.199219 2.324219-7.507813-.804688-6.285156-4.566407l4.042969-12.441406c.546874-1.683594-.050782-3.527344-1.484376-4.566406l-10.582031-7.6875c-3.199219-2.328125-1.554687-7.390625 2.402344-7.390625h13.082031c1.769532 0 3.335938-1.140625 3.882813-2.820313l4.042969-12.441406c1.214843-3.761718 6.539062-3.761718 7.761718 0zm0 0"/><path d="m266.0625 121.722656 4.042969 12.441406c.546875 1.683594 2.113281 2.820313 3.882812 2.820313h13.082031c3.957032 0 5.601563 5.0625 2.402344 7.390625l-10.582031 7.6875c-1.433594 1.039062-2.03125 2.882812-1.484375 4.566406l4.042969 12.441406c1.222656 3.761719-3.082031 6.890626-6.285157 4.566407l-10.582031-7.691407c-1.429687-1.039062-3.367187-1.039062-4.800781 0l-10.582031 7.691407c-3.199219 2.324219-7.507813-.804688-6.285157-4.566407l4.042969-12.441406c.546875-1.683594-.050781-3.527344-1.480469-4.566406l-10.585937-7.6875c-3.199219-2.328125-1.554687-7.390625 2.402344-7.390625h13.082031c1.769531 0 3.335938-1.140625 3.882812-2.820313l4.042969-12.441406c1.214844-3.761718 6.539063-3.761718 7.761719 0zm0 0"/><path d="m355.453125 112.96875 4.714844 14.511719c.636719 1.960937 2.464843 3.289062 4.53125 3.289062h15.253906c4.613281 0 6.53125 5.902344 2.796875 8.613281l-12.339844 8.96875c-1.667968 1.214844-2.367187 3.363282-1.730468 5.324219l4.714843 14.507813c1.421875 4.390625-3.597656 8.035156-7.328125 5.324218l-12.34375-8.964843c-1.667968-1.214844-3.925781-1.214844-5.597656 0l-12.339844 8.964843c-3.734375 2.714844-8.753906-.933593-7.328125-5.324218l4.714844-14.507813c.636719-1.960937-.0625-4.109375-1.730469-5.324219l-12.34375-8.96875c-3.730468-2.710937-1.8125-8.613281 2.800782-8.613281h15.253906c2.0625 0 3.890625-1.328125 4.527344-3.289062l4.714843-14.511719c1.425781-4.386719 7.632813-4.386719 9.058594 0zm0 0"/></svg>