<svg height="430pt" viewBox="0 -20 430.08 430" width="430pt" xmlns="http://www.w3.org/2000/svg"><path d="m179.074219 271.132812c-3.238281 0-6.109375-2.304687-6.710938-5.605468-.675781-3.707032 1.785157-7.261719 5.496094-7.933594 8.324219-1.511719 16.492187-3.953125 24.285156-7.238281 3.46875-1.453125 7.480469.160156 8.945313 3.632812 1.46875 3.472657-.160156 7.472657-3.632813 8.941407-8.710937 3.679687-17.847656 6.40625-27.15625 8.089843-.414062.082031-.824219.113281-1.226562.113281zm0 0"/><path d="m134.925781 271.125c-.40625 0-.816406-.03125-1.230469-.105469-18.269531-3.316406-35.28125-10.386719-50.570312-21.003906-3.097656-2.15625-3.867188-6.410156-1.714844-9.5 2.152344-3.09375 6.410156-3.855469 9.5-1.714844 13.675782 9.5 28.890625 15.820313 45.226563 18.78125 3.710937.679688 6.167969 4.230469 5.496093 7.9375-.597656 3.300781-3.472656 5.605469-6.707031 5.605469zm0 0"/><path d="m64.414062 231c-1.902343 0-3.796874-.792969-5.148437-2.339844-17.488281-20.027344-28.265625-44.539062-31.175781-70.886718-.410156-3.746094 2.292968-7.121094 6.039062-7.53125 3.753906-.375 7.121094 2.292968 7.535156 6.039062 2.597657 23.558594 12.242188 45.484375 27.886719 63.40625 2.480469 2.839844 2.1875 7.144531-.652343 9.625-1.292969 1.132812-2.890626 1.6875-4.484376 1.6875zm0 0"/><path d="m34.472656 141.085938c-.167968 0-.335937-.003907-.507812-.019532-3.757813-.273437-6.585938-3.546875-6.304688-7.304687 1.964844-26.71875 11.996094-51.8125 29.007813-72.554688 2.398437-2.914062 6.703125-3.332031 9.613281-.953125 2.914062 2.390625 3.339844 6.691406.949219 9.605469-15.21875 18.558594-24.195313 41-25.957031 64.898437-.265626 3.59375-3.257813 6.328126-6.800782 6.328126zm0 0"/><path d="m81.527344 53.261719c-2.027344 0-4.039063-.902344-5.386719-2.628907-2.320313-2.972656-1.785156-7.265624 1.1875-9.585937 18.15625-14.160156 39.789063-23.226563 62.550781-26.226563 3.730469-.519531 7.171875 2.140626 7.660156 5.875.492188 3.738282-2.136718 7.164063-5.871093 7.660157-20.359375 2.683593-39.703125 10.796875-55.945313 23.464843-1.25.964844-2.726562 1.441407-4.195312 1.441407zm0 0"/><path d="m230.804688 51.96875c-1.429688 0-2.867188-.449219-4.097657-1.375-15.878906-11.945312-34.664062-19.640625-54.316406-22.238281-3.734375-.496094-6.367187-3.929688-5.871094-7.660157.496094-3.734374 3.96875-6.328124 7.664063-5.875 21.976562 2.90625 42.976562 11.507813 60.730468 24.867188 3.015626 2.265625 3.621094 6.546875 1.351563 9.5625-1.34375 1.777344-3.390625 2.71875-5.460937 2.71875zm0 0"/><path d="m279.550781 141.066406c-3.542969 0-6.535156-2.734375-6.800781-6.324218-1.671875-22.710938-9.929688-44.242188-23.871094-62.273438-2.308594-2.980469-1.761718-7.269531 1.222656-9.574219 2.984376-2.304687 7.273438-1.757812 9.578126 1.226563 15.589843 20.160156 24.816406 44.234375 26.683593 69.621094.28125 3.757812-2.542969 7.03125-6.300781 7.304687-.175781.011719-.347656.019531-.511719.019531zm0 0"/><path d="m276.941406 177.144531c-.492187 0-.992187-.050781-1.492187-.164062-3.679688-.820313-5.996094-4.46875-5.175781-8.148438.796874-3.578125 1.433593-7.21875 1.882812-10.8125.46875-3.738281 3.832031-6.347656 7.625-5.925781 3.738281.464844 6.394531 3.878906 5.921875 7.617188-.503906 4.027343-1.210937 8.09375-2.101563 12.09375-.710937 3.183593-3.53125 5.339843-6.660156 5.339843zm0 0"/><path d="m211.625 327.71875h-163.839844c-3.769531 0-6.824218-3.050781-6.824218-6.824219 0-3.773437 3.054687-6.828125 6.824218-6.828125h163.839844c3.773438 0 6.828125 3.054688 6.828125 6.828125 0 3.773438-3.054687 6.824219-6.828125 6.824219zm0 0"/><path d="m157.011719 259.453125c-3.769531 0-6.824219-3.054687-6.824219-6.828125v-218.453125c0-3.773437 3.054688-6.824219 6.824219-6.824219 3.773437 0 6.828125 3.050782 6.828125 6.824219v218.453125c0 3.773438-3.054688 6.828125-6.828125 6.828125zm0 0"/><path d="m266.238281 150.226562h-218.453125c-3.769531 0-6.824218-3.054687-6.824218-6.828124 0-3.773438 3.054687-6.824219 6.824218-6.824219h218.453125c3.773438 0 6.828125 3.050781 6.828125 6.824219 0 3.773437-3.054687 6.828124-6.828125 6.828124zm0 0"/><path d="m223.171875 216.378906c-1.746094 0-3.496094-.664062-4.828125-2l-141.265625-141.265625c-2.667969-2.667969-2.667969-6.988281 0-9.652343 2.664063-2.667969 6.984375-2.667969 9.652344 0l141.265625 141.265624c2.664062 2.664063 2.664062 6.984376 0 9.652344-1.332032 1.335938-3.078125 2-4.824219 2zm0 0"/><path d="m75.09375 232.148438c-1.746094 0-3.492188-.667969-4.828125-2.003907-2.664063-2.664062-2.664063-6.984375 0-9.652343l159.15625-159.152344c2.664063-2.664063 6.984375-2.664063 9.652344 0 2.664062 2.667968 2.664062 6.988281 0 9.652344l-159.15625 159.152343c-1.332031 1.335938-3.078125 2.003907-4.824219 2.003907zm0 0"/><path d="m314.027344 389.160156c-63.992188 0-116.054688-52.058594-116.054688-116.054687 0-63.992188 52.0625-116.050781 116.054688-116.050781 63.992187 0 116.050781 52.058593 116.050781 116.050781 0 63.996093-52.058594 116.054687-116.050781 116.054687zm0-218.453125c-56.464844 0-102.402344 45.933594-102.402344 102.398438 0 56.46875 45.9375 102.402343 102.402344 102.402343 56.460937 0 102.398437-45.933593 102.398437-102.402343 0-56.464844-45.9375-102.398438-102.398437-102.398438zm0 0"/><path d="m266.238281 225.320312c0 7.539063-6.109375 13.652344-13.652343 13.652344-7.539063 0-13.652344-6.113281-13.652344-13.652344 0-7.539062 6.113281-13.652343 13.652344-13.652343 7.542968 0 13.652343 6.113281 13.652343 13.652343zm0 0"/><path d="m389.121094 225.320312c0 7.539063-6.113282 13.652344-13.65625 13.652344-7.539063 0-13.652344-6.113281-13.652344-13.652344 0-7.539062 6.113281-13.652343 13.652344-13.652343 7.542968 0 13.65625 6.113281 13.65625 13.652343zm0 0"/><path d="m334.507812 293.585938c0-15.082032-9.171874-27.304688-20.480468-27.304688-11.3125 0-20.480469 12.222656-20.480469 27.304688 0 15.082031 9.167969 27.308593 20.480469 27.308593 11.308594 0 20.480468-12.226562 20.480468-27.308593zm0 0"/><path d="m27.308594 163.878906c-15.058594 0-27.308594-12.246094-27.308594-27.304687 0-3.773438 3.054688-6.828125 6.828125-6.828125h40.957031c3.773438 0 6.828125 3.054687 6.828125 6.828125 0 15.058593-12.25 27.304687-27.304687 27.304687zm-11.824219-20.480468c2.367187 4.082031 6.777344 6.828124 11.824219 6.828124 5.042968 0 9.453125-2.746093 11.820312-6.828124zm0 0"/><path d="m157.011719 34.171875c-15.054688 0-27.304688-12.246094-27.304688-27.304687 0-3.773438 3.054688-6.8281255 6.828125-6.8281255h40.957032c3.769531 0 6.828124 3.0546875 6.828124 6.8281255 0 15.058593-12.25 27.304687-27.308593 27.304687zm-11.820313-20.480469c2.367188 4.082032 6.777344 6.828125 11.820313 6.828125s9.457031-2.746093 11.820312-6.828125zm0 0"/><path d="m245.761719 75.132812c-15.058594 0-27.308594-12.246093-27.308594-27.304687 0-3.773437 3.058594-6.828125 6.828125-6.828125h40.957031c3.773438 0 6.828125 3.054688 6.828125 6.828125 0 15.058594-12.25 27.304687-27.304687 27.304687zm-11.820313-20.480468c2.363282 4.082031 6.777344 6.828125 11.820313 6.828125s9.453125-2.746094 11.820312-6.828125zm0 0"/><path d="m75.09375 75.132812c-15.054688 0-27.308594-12.246093-27.308594-27.304687 0-3.773437 3.058594-6.828125 6.828125-6.828125h40.960938c3.769531 0 6.824219 3.054688 6.824219 6.828125 0 15.058594-12.25 27.304687-27.304688 27.304687zm-11.820312-20.480468c2.363281 4.082031 6.777343 6.828125 11.820312 6.828125s9.457031-2.746094 11.820312-6.828125zm0 0"/><path d="m157.011719 286.761719c-15.054688 0-27.304688-12.25-27.304688-27.308594 0-3.773437 3.054688-6.828125 6.828125-6.828125h40.957032c3.769531 0 6.828124 3.054688 6.828124 6.828125 0 15.058594-12.25 27.308594-27.308593 27.308594zm-11.820313-20.480469c2.367188 4.078125 6.777344 6.824219 11.820313 6.824219s9.457031-2.746094 11.820312-6.824219zm0 0"/><path d="m286.71875 163.878906c-15.054688 0-27.304688-12.246094-27.304688-27.304687 0-3.773438 3.054688-6.828125 6.824219-6.828125h40.960938c3.769531 0 6.828125 3.054687 6.828125 6.828125 0 15.058593-12.25 27.304687-27.308594 27.304687zm-11.820312-20.480468c2.363281 4.082031 6.777343 6.828124 11.820312 6.828124s9.457031-2.746093 11.820312-6.828124zm0 0"/><path d="m75.09375 252.625c-15.054688 0-27.308594-12.246094-27.308594-27.304688 0-3.773437 3.058594-6.828124 6.828125-6.828124h40.960938c3.769531 0 6.824219 3.054687 6.824219 6.828124 0 15.058594-12.25 27.304688-27.304688 27.304688zm-11.820312-20.476562c2.363281 4.078124 6.777343 6.824218 11.820312 6.824218s9.457031-2.746094 11.820312-6.824218zm0 0"/><path d="m81.917969 327.71875c-.929688 0-1.867188-.183594-2.769531-.585938-3.445313-1.53125-5-5.566406-3.464844-9.011718l27.308594-61.441406c1.527343-3.441407 5.5625-4.992188 9.007812-3.464844 3.445312 1.53125 4.996094 5.566406 3.460938 9.011718l-27.304688 61.441407c-1.128906 2.539062-3.625 4.050781-6.238281 4.050781zm0 0"/></svg>