<svg height="436pt" viewBox="0 -37 436.9071 436" width="436pt" xmlns="http://www.w3.org/2000/svg"><path d="m375.46875 334.960938h-109.226562c-3.773438 0-6.828126-3.054688-6.828126-6.828126 0-3.773437 3.054688-6.824218 6.828126-6.824218h102.578124c1.210938-22.542969 8.257813-38.667969 14.113282-48.394532-29.667969 2.394532-49.351563 31.367188-49.574219 31.699219-1.132813 1.699219-2.972656 2.808594-5.007813 3.007813-2.066406.1875-4.050781-.519532-5.5-1.964844-12.453124-12.453125-33.953124-15.066406-49.800781-15.066406-3.773437 0-6.824219-3.054688-6.824219-6.828125 0-3.773438 3.050782-6.828125 6.824219-6.828125 22.972657 0 40.953125 4.714844 53.585938 14.027344 9.992187-11.984376 35.421875-36.871094 70.429687-31 2.523438.421874 4.597656 2.214843 5.378906 4.648437.777344 2.441406.132813 5.105469-1.671874 6.914063-.160157.164062-18.480469 19.289062-18.480469 56.609374 0 3.773438-3.050781 6.828126-6.824219 6.828126zm0 0"/><path d="m273.066406 334.960938h-218.453125c-2.191406 0-4.253906-1.054688-5.539062-2.832032-1.207031-1.675781-1.585938-3.800781-1.046875-5.78125.121094-.988281 1.472656-18.105468-44.820313-47.039062-2.199219-1.375-3.433593-3.878906-3.1718748-6.46875.2617188-2.585938 1.9648438-4.796875 4.3906248-5.710938 1.988281-.742187 41.242188-15.128906 71.734375-2.949218l-14.367187-43.113282c-.699219-2.082031-.347657-4.375.933593-6.152344 1.289063-1.78125 3.347657-2.832031 5.539063-2.832031 2.082031 0 45.667969.386719 80.472656 29.804688-2.625-19.960938-9.996093-52.082031-30.683593-72.765625-2.105469-2.105469-2.605469-5.328125-1.234376-7.976563 1.375-2.632812 4.332032-4.070312 7.226563-3.578125 1.632813.285156 162.886719 29.972656 155.839844 170.90625-.1875 3.632813-3.179688 6.488282-6.820313 6.488282zm-211.6875-13.652344h205.066406c.574219-50.773438-22.679687-91.222656-69.179687-120.289063-20.691406-12.929687-41.859375-20.777343-56.503906-25.183593 22.78125 35.605468 23.078125 81.777343 23.078125 84.03125 0 2.875-1.800782 5.441406-4.5 6.421874-2.699219.964844-5.726563.164063-7.574219-2.046874-23.339844-28.015626-57.273437-35.65625-73.765625-37.726563l17.21875 51.671875c1.007812 3.007812-.191406 6.300781-2.886719 7.96875-2.671875 1.671875-6.171875 1.273438-8.414062-.980469-16.085938-16.09375-44.199219-12.960937-60.976563-9.152343 28.820313 20.375 36.746094 35.992187 38.4375 45.285156zm0 0"/><path d="m416.425781 362.265625h-402.773437c-3.773438 0-6.824219-3.050781-6.824219-6.824219v-27.308594c0-3.773437 3.050781-6.824218 6.824219-6.824218h402.773437c3.773438 0 6.828125 3.050781 6.828125 6.824218v27.308594c0 3.773438-3.054687 6.824219-6.828125 6.824219zm-395.945312-13.652344h389.121093v-13.652343h-389.121093zm0 0"/><path d="m273.046875 221.574219c-1 0-2.019531-.222657-2.984375-.695313-40.253906-19.617187-65.261719-59.609375-65.261719-104.371094 0-9.066406 1.050781-18.101562 3.125-26.859374.867188-3.667969 4.554688-5.941407 8.214844-5.066407 3.664063.863281 5.9375 4.539063 5.066406 8.210938-1.828125 7.726562-2.753906 15.707031-2.753906 23.714843 0 39.492188 22.066406 74.785157 57.59375 92.105469 3.386719 1.648438 4.792969 5.734375 3.140625 9.128907-1.179688 2.425781-3.605469 3.832031-6.140625 3.832031zm0 0"/><path d="m383.042969 213.148438c-2.164063 0-4.289063-1.027344-5.613281-2.933594-2.15625-3.101563-1.382813-7.355469 1.710937-9.5 27.621094-19.167969 44.113281-50.640625 44.113281-84.207032 0-56.46875-45.933594-102.402343-102.398437-102.402343-33.234375 0-64.535157 16.234375-83.722657 43.425781-2.179687 3.074219-6.421874 3.808594-9.519531 1.640625-3.082031-2.179687-3.8125-6.433594-1.640625-9.519531 21.75-30.804688 57.222656-49.199219 94.882813-49.199219 63.992187 0 116.050781 52.0625 116.050781 116.054687 0 38.039063-18.683594 73.710938-49.980469 95.417969-1.183593.828125-2.542969 1.222657-3.882812 1.222657zm0 0"/><path d="m320.855469 157.46875c-16.355469 0-31.347657-5.769531-40.113281-15.421875-2.535157-2.785156-2.328126-7.105469.464843-9.640625 2.785157-2.523438 7.097657-2.324219 9.636719.46875 6.128906 6.746094 17.628906 10.9375 30.007812 10.9375 12.242188 0 23.679688-4.125 29.847657-10.765625 2.550781-2.765625 6.886719-2.921875 9.644531-.355469 2.761719 2.566406 2.921875 6.886719.355469 9.648438-8.789063 9.472656-23.691407 15.128906-39.84375 15.128906zm0 0"/><path d="m273.066406 68.71875c0 7.542969-6.113281 13.65625-13.652344 13.65625-7.539062 0-13.652343-6.113281-13.652343-13.65625 0-7.539062 6.113281-13.652344 13.652343-13.652344 7.539063 0 13.652344 6.113282 13.652344 13.652344zm0 0"/><path d="m395.945312 68.71875c0 7.542969-6.109374 13.65625-13.652343 13.65625-7.539063 0-13.652344-6.113281-13.652344-13.65625 0-7.539062 6.113281-13.652344 13.652344-13.652344 7.542969 0 13.652343 6.113282 13.652343 13.652344zm0 0"/><path d="m245.761719 96.027344h-197.433594c-3.394531 0-6.273437-2.492188-6.761719-5.859375-.410156-2.902344-.605468-5.375-.605468-7.792969 0-30.117188 24.5-54.613281 54.613281-54.613281 3.273437 0 6.59375.320312 9.917969.945312 12.316406-13.667969 29.613281-21.425781 48.109374-21.425781 24.058594 0 46.125 13.4375 57.304688 34.574219 23.6875 2.992187 41.679688 23.046875 41.679688 47.34375 0 3.773437-3.050782 6.828125-6.824219 6.828125zm-191.148438-13.652344h183.640625c-3.046875-15.101562-16.035156-26.574219-32.050781-27.226562-2.582031-.105469-4.882813-1.660157-5.941406-4.015626-8.28125-18.347656-26.59375-30.199218-46.660157-30.199218-15.753906 0-30.40625 7.132812-40.214843 19.582031-1.691407 2.144531-4.511719 3.042969-7.140625 2.367187-26.859375-7.269531-51.632813 13.417969-51.632813 39.492188zm0 0"/><path d="m396.566406 239.386719h-125.636718c-3.402344 0-6.289063-2.507813-6.761719-5.871094-.246094-1.734375-.40625-3.496094-.40625-5.300781 0-22.320313 19.980469-40.210938 42.640625-36.820313 8.230468-8.59375 19.496094-13.449219 31.519531-13.449219 15.800781 0 30.332031 8.59375 38.046875 22.203126 15.671875 2.597656 27.425781 16.117187 27.425781 32.410156 0 3.773437-3.054687 6.828125-6.828125 6.828125zm-119.027344-13.652344h110.960938c-2.652344-7-9.273438-12.042969-17.210938-12.367187-2.582031-.105469-4.882812-1.660157-5.941406-4.015626-4.867187-10.785156-15.632812-17.75-27.425781-17.75-9.261719 0-17.875 4.191407-23.640625 11.511719-1.6875 2.140625-4.503906 3.074219-7.128906 2.367188-14.878906-3.988281-28.164063 6.464843-29.613282 20.253906zm0 0"/></svg>