<svg height="430pt" viewBox="0 -10 430.08 430" width="430pt" xmlns="http://www.w3.org/2000/svg"><path d="m102.398438 286.761719h-81.917969c-3.769531 0-6.828125-3.054688-6.828125-6.828125v-232.105469c0-3.773437 3.058594-6.828125 6.828125-6.828125h293.546875c3.769531 0 6.824218 3.054688 6.824218 6.828125v134.179687c0 3.773438-3.054687 6.824219-6.824218 6.824219-3.769532 0-6.828125-3.050781-6.828125-6.824219v-127.355468h-279.890625v218.453125h68.265625v-37.546875c0-39.523438 32.15625-71.679688 71.679687-71.679688 33.902344 0 63.4375 24.074219 70.222656 57.242188.753907 3.691406-1.625 7.296875-5.316406 8.050781-3.722656.761719-7.304687-1.625-8.058594-5.316406-5.492187-26.84375-29.402343-46.320313-56.847656-46.320313-31.996094 0-58.027344 26.03125-58.027344 58.023438v44.375c0 3.773437-3.054687 6.828125-6.828124 6.828125zm0 0"/><path d="m109.226562 252.625h-95.574218c-3.769532 0-6.824219-3.050781-6.824219-6.824219 0-3.773437 3.054687-6.828125 6.824219-6.828125h95.574218c3.769532 0 6.828126 3.054688 6.828126 6.828125 0 3.773438-3.058594 6.824219-6.828126 6.824219zm0 0"/><path d="m102.398438 314.066406h-81.917969c-3.769531 0-6.828125-3.054687-6.828125-6.828125v-27.304687c0-3.773438 3.058594-6.828125 6.828125-6.828125h81.917969c3.773437 0 6.828124 3.054687 6.828124 6.828125v27.304687c0 3.773438-3.054687 6.828125-6.828124 6.828125zm-75.089844-13.652344h68.265625v-13.652343h-68.265625zm0 0"/><path d="m327.679688 54.652344h-320.851563c-3.773437 0-6.828125-3.050782-6.828125-6.824219v-20.480469c0-3.773437 3.054688-6.828125 6.828125-6.828125h320.851563c3.769531 0 6.828124 3.054688 6.828124 6.828125v20.480469c0 3.773437-3.058593 6.824219-6.828124 6.824219zm-314.027344-13.652344h307.199218v-6.828125h-307.199218zm0 0"/><path d="m314.027344 34.171875h-293.546875c-3.769531 0-6.828125-3.050781-6.828125-6.824219v-20.480468c0-3.773438 3.058594-6.8281255 6.828125-6.8281255h293.546875c3.769531 0 6.824218 3.0546875 6.824218 6.8281255v20.480468c0 3.773438-3.054687 6.824219-6.824218 6.824219zm-286.71875-13.652344h279.890625v-6.828125h-279.890625zm0 0"/><path d="m314.027344 129.746094h-293.546875c-3.769531 0-6.828125-3.050782-6.828125-6.824219v-27.308594c0-3.773437 3.058594-6.828125 6.828125-6.828125h293.546875c3.769531 0 6.824218 3.054688 6.824218 6.828125v27.308594c0 3.773437-3.054687 6.824219-6.824218 6.824219zm-286.71875-13.652344h279.890625v-13.652344h-279.890625zm0 0"/><path d="m81.921875 218.492188h-34.136719c-3.769531 0-6.824218-3.050782-6.824218-6.824219v-37.546875c0-13.175782 10.71875-23.894532 23.890624-23.894532 13.175782 0 23.894532 10.71875 23.894532 23.894532v37.546875c0 3.773437-3.054688 6.824219-6.824219 6.824219zm-27.308594-13.652344h20.480469v-30.71875c0-5.648438-4.59375-10.242188-10.242188-10.242188-5.644531 0-10.238281 4.59375-10.238281 10.242188zm0 0"/><path d="m252.585938 207.433594c-3.769532 0-6.824219-3.050782-6.824219-6.824219v-26.488281c0-13.175782 10.71875-23.894532 23.890625-23.894532 13.175781 0 23.894531 10.71875 23.894531 23.894532v10.257812c0 3.773438-3.058594 6.828125-6.828125 6.828125s-6.824219-3.054687-6.824219-6.828125v-10.257812c0-5.648438-4.59375-10.242188-10.242187-10.242188-5.644532 0-10.238282 4.59375-10.238282 10.242188v26.488281c0 3.769531-3.058593 6.824219-6.828124 6.824219zm0 0"/><path d="m314.027344 409.640625c-63.992188 0-116.054688-52.0625-116.054688-116.054687 0-63.992188 52.0625-116.050782 116.054688-116.050782 63.992187 0 116.050781 52.058594 116.050781 116.050782 0 63.992187-52.058594 116.054687-116.050781 116.054687zm0-218.453125c-56.464844 0-102.402344 45.933594-102.402344 102.398438 0 56.46875 45.9375 102.402343 102.402344 102.402343 56.460937 0 102.398437-45.933593 102.398437-102.402343 0-56.464844-45.9375-102.398438-102.398437-102.398438zm0 0"/><path d="m314.027344 334.546875c-16.347656 0-31.34375-5.761719-40.117188-15.414063-2.53125-2.792968-2.328125-7.105468.460938-9.644531 2.789062-2.535156 7.105468-2.328125 9.644531.460938 6.136719 6.75 17.632813 10.945312 30.011719 10.945312 12.238281 0 23.671875-4.128906 29.839844-10.769531 2.570312-2.765625 6.886718-2.917969 9.648437-.351562 2.761719 2.566406 2.921875 6.886718.355469 9.644531-8.796875 9.476562-23.691406 15.128906-39.84375 15.128906zm0 0"/><path d="m266.238281 245.800781c0 7.539063-6.109375 13.652344-13.652343 13.652344-7.539063 0-13.652344-6.113281-13.652344-13.652344 0-7.542969 6.113281-13.652343 13.652344-13.652343 7.542968 0 13.652343 6.109374 13.652343 13.652343zm0 0"/><path d="m389.121094 245.800781c0 7.539063-6.113282 13.652344-13.65625 13.652344-7.539063 0-13.652344-6.113281-13.652344-13.652344 0-7.542969 6.113281-13.652343 13.652344-13.652343 7.542968 0 13.65625 6.109374 13.65625 13.652343zm0 0"/><path d="m307.199219 409.640625h-129.707031c-3.769532 0-6.824219-3.054687-6.824219-6.828125s3.054687-6.824219 6.824219-6.824219h129.707031c3.769531 0 6.828125 3.050781 6.828125 6.824219s-3.058594 6.828125-6.828125 6.828125zm0 0"/><path d="m34.132812 61.480469h13.652344v13.652343h-13.652344zm0 0"/><path d="m75.09375 61.480469h13.652344v13.652343h-13.652344zm0 0"/><path d="m116.054688 61.480469h13.652343v13.652343h-13.652343zm0 0"/><path d="m157.011719 61.480469h20.480469v20.480469h-20.480469zm0 0"/><path d="m204.800781 61.480469h13.652344v13.652343h-13.652344zm0 0"/><path d="m245.761719 61.480469h13.652343v13.652343h-13.652343zm0 0"/><path d="m286.71875 61.480469h13.65625v13.652343h-13.65625zm0 0"/></svg>