<svg height="430pt" viewBox="-3 0 430 430.08" width="430pt" xmlns="http://www.w3.org/2000/svg"><path d="m341.375 293.914062c-3.773438 0-6.828125-3.054687-6.828125-6.828124v-20.851563c0-3.773437 3.054687-6.828125 6.828125-6.828125 3.769531 0 6.824219 3.054688 6.824219 6.828125v20.851563c0 3.773437-3.054688 6.828124-6.824219 6.828124zm0 0"/><path d="m368.679688 430.078125h-27.304688c-3.773438 0-6.828125-3.050781-6.828125-6.824219v-68.289062c0-3.773438 3.054687-6.824219 6.828125-6.824219 3.769531 0 6.824219 3.050781 6.824219 6.824219v61.460937h13.652343v-279.890625h-13.652343v95.585938c0 3.773437-3.054688 6.824218-6.824219 6.824218-3.773438 0-6.828125-3.050781-6.828125-6.824218v-102.414063c0-3.773437 3.054687-6.828125 6.828125-6.828125h27.304688c3.769531 0 6.828124 3.054688 6.828124 6.828125v293.546875c0 3.773438-3.058593 6.824219-6.828124 6.824219zm0 0"/><path d="m289.804688 389.121094h-210.886719c-35.964844 0-65.226563-29.261719-65.226563-65.226563v-15.507812c0-19.472657 15.84375-35.320313 35.316406-35.320313h270.699219c19.476563 0 35.316407 15.847656 35.316407 35.320313v15.507812c.003906 35.964844-29.257813 65.226563-65.21875 65.226563zm-240.796876-102.402344c-11.945312 0-21.660156 9.722656-21.660156 21.667969v15.507812c0 28.4375 23.132813 51.570313 51.570313 51.570313h210.886719c28.433593 0 51.570312-23.132813 51.570312-51.570313v-15.507812c0-11.945313-9.71875-21.667969-21.664062-21.667969zm0 0"/><path d="m232.148438 320.851562h-95.574219c-3.769531 0-6.828125-3.050781-6.828125-6.824218 0-3.773438 3.058594-6.828125 6.828125-6.828125h95.574219c3.769531 0 6.824218 3.054687 6.824218 6.828125 0 3.773437-3.054687 6.824218-6.824218 6.824218zm0 0"/><path d="m232.148438 341.332031h-95.574219c-3.769531 0-6.828125-3.050781-6.828125-6.824219 0-3.773437 3.058594-6.828124 6.828125-6.828124h95.574219c3.769531 0 6.824218 3.054687 6.824218 6.828124 0 3.773438-3.054687 6.824219-6.824218 6.824219zm0 0"/><path d="m232.148438 361.8125h-95.574219c-3.769531 0-6.828125-3.050781-6.828125-6.824219 0-3.773437 3.058594-6.828125 6.828125-6.828125h95.574219c3.769531 0 6.824218 3.054688 6.824218 6.828125 0 3.773438-3.054687 6.824219-6.824218 6.824219zm0 0"/><path d="m75.132812 361.8125c-15.054687 0-27.304687-12.246094-27.304687-27.304688 0-15.0625 12.25-27.308593 27.304687-27.308593 15.058594 0 27.308594 12.246093 27.308594 27.308593 0 15.058594-12.25 27.304688-27.308594 27.304688zm0-40.960938c-7.527343 0-13.652343 6.128907-13.652343 13.65625 0 7.523438 6.125 13.652344 13.652343 13.652344 7.53125 0 13.652344-6.128906 13.652344-13.652344 0-7.527343-6.121094-13.65625-13.652344-13.65625zm0 0"/><path d="m293.585938 361.8125c-15.054688 0-27.304688-12.246094-27.304688-27.304688 0-15.0625 12.25-27.308593 27.304688-27.308593 15.058593 0 27.308593 12.246093 27.308593 27.308593 0 15.058594-12.25 27.304688-27.308593 27.304688zm0-40.960938c-7.527344 0-13.652344 6.128907-13.652344 13.65625 0 7.523438 6.125 13.652344 13.652344 13.652344 7.53125 0 13.652343-6.128906 13.652343-13.652344 0-7.527343-6.121093-13.65625-13.652343-13.65625zm0 0"/><path d="m116.09375 430.078125h-54.613281c-3.769531 0-6.828125-3.050781-6.828125-6.824219v-40.960937c0-3.773438 3.058594-6.828125 6.828125-6.828125h54.613281c3.769531 0 6.828125 3.054687 6.828125 6.828125v40.960937c0 3.773438-3.058594 6.824219-6.828125 6.824219zm-47.785156-13.652344h40.957031v-27.304687h-40.957031zm0 0"/><path d="m307.238281 430.078125h-54.613281c-3.769531 0-6.824219-3.050781-6.824219-6.824219v-40.960937c0-3.773438 3.054688-6.828125 6.824219-6.828125h54.613281c3.773438 0 6.828125 3.054687 6.828125 6.828125v40.960937c0 3.773438-3.054687 6.824219-6.828125 6.824219zm-47.785156-13.652344h40.960937v-27.304687h-40.960937zm0 0"/><path d="m307.238281 286.71875h-245.757812c-2.0625 0-4.015625-.933594-5.308594-2.539062-1.296875-1.601563-1.796875-3.707032-1.363281-5.726563l19.136718-88.878906c1.183594-14.472657 13.351563-25.734375 27.929688-25.734375h164.96875c14.578125 0 26.746094 11.261718 27.933594 25.734375l19.136718 88.878906c.433594 2.019531-.066406 4.125-1.363281 5.726563-1.296875 1.605468-3.246093 2.539062-5.3125 2.539062zm-237.304687-13.652344h228.851562l-17.457031-81.078125c-.070313-.335937-.117187-.675781-.140625-1.015625-.472656-7.5625-6.773438-13.480468-14.34375-13.480468h-164.96875c-7.570312 0-13.871094 5.921874-14.34375 13.480468-.019531.339844-.066406.679688-.140625 1.015625zm0 0"/><path d="m184.359375 259.414062c-16.347656 0-31.34375-5.761718-40.117187-15.414062-2.53125-2.792969-2.324219-7.105469.464843-9.644531 2.789063-2.535157 7.101563-2.320313 9.640625.460937 6.136719 6.75 17.636719 10.945313 30.011719 10.945313 12.242187 0 23.671875-4.128907 29.839844-10.769531 2.570312-2.757813 6.882812-2.914063 9.648437-.351563 2.765625 2.566406 2.921875 6.886719.359375 9.644531-8.800781 9.476563-23.695312 15.128906-39.847656 15.128906zm0 0"/><path d="m129.746094 208.214844c0 5.652344-4.585938 10.238281-10.238282 10.238281-5.65625 0-10.242187-4.585937-10.242187-10.238281 0-5.65625 4.585937-10.242188 10.242187-10.242188 5.652344 0 10.238282 4.585938 10.238282 10.242188zm0 0"/><path d="m259.453125 208.214844c0 5.652344-4.585937 10.238281-10.238281 10.238281-5.65625 0-10.242188-4.585937-10.242188-10.238281 0-5.65625 4.585938-10.242188 10.242188-10.242188 5.652344 0 10.238281 4.585938 10.238281 10.242188zm0 0"/><path d="m361.851562 273.066406h-47.785156c-3.769531 0-6.828125-3.054687-6.828125-6.828125v-34.132812c0-3.773438 3.058594-6.824219 6.828125-6.824219h13.652344c22.585938 0 40.960938 18.371094 40.960938 40.957031 0 3.773438-3.054688 6.828125-6.828126 6.828125zm-40.957031-13.652344h33.269531c-3.039062-11.769531-13.746093-20.480468-26.445312-20.480468h-6.824219zm0 0"/><path d="m314.066406 286.71875c-3.769531 0-6.828125-3.050781-6.828125-6.824219v-13.65625c0-3.773437 3.058594-6.824219 6.828125-6.824219 3.769532 0 6.828125 3.050782 6.828125 6.824219v13.65625c0 3.773438-3.058593 6.824219-6.828125 6.824219zm0 0"/><path d="m54.652344 273.066406h-47.785156c-3.769532 0-6.8281255-3.054687-6.8281255-6.828125 0-22.585937 18.3749995-40.957031 40.9609375-40.957031h13.652344c3.769531 0 6.828125 3.050781 6.828125 6.824219v34.132812c0 3.773438-3.058594 6.828125-6.828125 6.828125zm-40.09375-13.652344h33.269531v-20.480468h-6.828125c-12.699219 0-23.402344 8.710937-26.441406 20.480468zm0 0"/><path d="m54.652344 286.71875c-3.769532 0-6.824219-3.050781-6.824219-6.824219v-13.65625c0-3.773437 3.054687-6.824219 6.824219-6.824219 3.769531 0 6.828125 3.050782 6.828125 6.824219v13.65625c0 3.773438-3.058594 6.824219-6.828125 6.824219zm0 0"/><path d="m416.464844 136.535156h-122.878906c-3.769532 0-6.824219-3.054687-6.824219-6.828125v-122.878906c0-3.773437 3.054687-6.828125 6.824219-6.828125h122.878906c3.773437 0 6.828125 3.054688 6.828125 6.828125v122.878906c0 3.773438-3.054688 6.828125-6.828125 6.828125zm-116.050782-13.65625h109.226563v-109.226562h-109.226563zm0 0"/><path d="m327.71875 116.054688c-3.769531 0-6.824219-3.054688-6.824219-6.828126v-81.917968c0-3.773438 3.054688-6.828125 6.824219-6.828125s6.828125 3.054687 6.828125 6.828125v81.917968c0 3.773438-3.058594 6.828126-6.828125 6.828126zm0 0"/><path d="m382.332031 81.921875h-54.613281c-3.769531 0-6.824219-3.054687-6.824219-6.828125v-47.785156c0-3.773438 3.054688-6.828125 6.824219-6.828125h54.613281c3.769531 0 6.828125 3.054687 6.828125 6.828125v47.785156c0 3.773438-3.058594 6.828125-6.828125 6.828125zm-47.785156-13.65625h40.960937v-34.132813h-40.960937zm0 0"/></svg>