<svg height="430pt" viewBox="0 -11 430.08 430" width="430pt" xmlns="http://www.w3.org/2000/svg"><path d="m314.027344 408.914062c-63.992188 0-116.054688-52.0625-116.054688-116.054687s52.0625-116.054687 116.054688-116.054687c63.992187 0 116.050781 52.0625 116.050781 116.054687s-52.058594 116.054687-116.050781 116.054687zm0-218.453124c-56.464844 0-102.402344 45.933593-102.402344 102.398437 0 56.46875 45.9375 102.402344 102.402344 102.402344 56.460937 0 102.398437-45.933594 102.398437-102.402344 0-56.464844-45.9375-102.398437-102.398437-102.398437zm0 0"/><path d="m266.238281 245.074219c0 7.539062-6.109375 13.652343-13.652343 13.652343-7.539063 0-13.652344-6.113281-13.652344-13.652343 0-7.542969 6.113281-13.65625 13.652344-13.65625 7.542968 0 13.652343 6.113281 13.652343 13.65625zm0 0"/><path d="m389.121094 245.074219c0 7.539062-6.113282 13.652343-13.65625 13.652343-7.539063 0-13.652344-6.113281-13.652344-13.652343 0-7.542969 6.113281-13.65625 13.652344-13.65625 7.542968 0 13.65625 6.113281 13.65625 13.65625zm0 0"/><path d="m334.507812 313.339844c0-15.082032-9.171874-27.308594-20.480468-27.308594-11.3125 0-20.480469 12.226562-20.480469 27.308594 0 15.082031 9.167969 27.308594 20.480469 27.308594 11.308594 0 20.480468-12.226563 20.480468-27.308594zm0 0"/><path d="m157.699219 388.433594h-138.152344c-1.992187 0-3.886719-.875-5.183594-2.386719-1.296875-1.507813-1.867187-3.511719-1.5625-5.480469l48.847657-316.105468c.277343-1.792969 1.253906-3.402344 2.714843-4.46875 1.460938-1.066407 3.304688-1.503907 5.078125-1.238282l134.933594 20.851563c3.726562.574219 6.277344 4.0625 5.703125 7.785156l-45.628906 295.253906c-.515625 3.335938-3.382813 5.789063-6.75 5.789063zm-130.191407-13.652344h124.339844l43.695313-282.722656-121.441407-18.773438zm0 0"/><path d="m189.847656 91.09375c-.351562 0-.703125-.027344-1.054687-.078125l-107.945313-16.679687c-1.792968-.273438-3.394531-1.253907-4.464844-2.714844-1.070312-1.460938-1.515624-3.285156-1.238281-5.074219l9.386719-60.71875c.570312-3.726563 4.085938-6.28125 7.789062-5.707031l107.941407 16.683594c3.726562.574218 6.28125 4.070312 5.703125 7.789062l-9.382813 60.710938c-.519531 3.375-3.429687 5.789062-6.734375 5.789062zm-100.167968-29.214844 94.453124 14.601563 7.296876-47.21875-94.449219-14.609375zm0 0"/><path d="m86.429688 261.703125-26.988282-4.167969 3.128906-20.242187c1.152344-7.449219 8.128907-12.558594 15.578126-11.40625 7.453124 1.152343 12.5625 8.128906 11.410156 15.578125zm0 0"/><path d="m120.164062 266.917969-26.988281-4.171875 3.128907-20.238282c1.152343-7.449218 8.128906-12.558593 15.578124-11.40625 7.453126 1.152344 12.558594 8.125 11.410157 15.578126zm0 0"/><path d="m153.894531 272.128906-26.984375-4.167968 3.128906-20.242188c1.152344-7.449219 8.125-12.558594 15.578126-11.40625 7.449218 1.152344 12.558593 8.128906 11.40625 15.578125zm0 0"/><path d="m93.726562 214.480469-26.984374-4.171875 3.128906-20.238282c1.152344-7.453124 8.128906-12.5625 15.578125-11.410156 7.453125 1.152344 12.558593 8.128906 11.40625 15.578125zm0 0"/><path d="m127.460938 219.691406-26.984376-4.171875 3.125-20.238281c1.152344-7.453125 8.128907-12.558594 15.582032-11.40625 7.449218 1.152344 12.558594 8.125 11.40625 15.578125zm0 0"/><path d="m161.195312 224.90625-26.988281-4.171875 3.128907-20.238281c1.152343-7.453125 8.128906-12.558594 15.578124-11.410156 7.453126 1.152343 12.5625 8.128906 11.410157 15.582031zm0 0"/><path d="m101.027344 167.253906-26.988282-4.171875 3.128907-20.238281c1.152343-7.453125 8.128906-12.5625 15.578125-11.410156 7.453125 1.152344 12.558594 8.128906 11.410156 15.578125zm0 0"/><path d="m134.761719 172.464844-26.988281-4.167969 3.128906-20.242187c1.152344-7.449219 8.128906-12.558594 15.578125-11.40625 7.453125 1.152343 12.558593 8.128906 11.40625 15.578124zm0 0"/><path d="m168.492188 177.679688-26.984376-4.171876 3.128907-20.238281c1.148437-7.453125 8.125-12.5625 15.578125-11.410156 7.449218 1.152344 12.558594 8.128906 11.40625 15.578125zm0 0"/><path d="m108.324219 120.027344-26.984375-4.171875 3.128906-20.238281c1.152344-7.453126 8.125-12.558594 15.578125-11.40625 7.449219 1.152343 12.558594 8.125 11.40625 15.578124zm0 0"/><path d="m142.058594 125.238281-26.988282-4.167969 3.128907-20.242187c1.152343-7.449219 8.128906-12.558594 15.578125-11.40625 7.453125 1.152344 12.5625 8.128906 11.410156 15.578125zm0 0"/><path d="m131.203125 61.394531-26.988281-4.171875 3.128906-20.238281c1.152344-7.453125 8.128906-12.5625 15.578125-11.410156 7.453125 1.152343 12.558594 8.128906 11.40625 15.578125zm0 0"/><path d="m171.683594 67.648438-26.988282-4.171876 3.128907-20.238281c1.152343-7.453125 8.128906-12.558593 15.578125-11.40625 7.453125 1.148438 12.558594 8.125 11.40625 15.578125zm0 0"/><path d="m175.792969 130.453125-26.988281-4.171875 3.128906-20.238281c1.152344-7.453125 8.128906-12.558594 15.578125-11.40625 7.453125 1.152343 12.558593 8.125 11.410156 15.578125zm0 0"/><path d="m177.761719 303.367188c-.347657 0-.699219-.027344-1.050781-.082032l-148.425782-22.9375c-3.726562-.574218-6.28125-4.066406-5.703125-7.785156.578125-3.730469 4.101563-6.226562 7.789063-5.707031l148.425781 22.9375c3.726563.574219 6.277344 4.066406 5.703125 7.785156-.519531 3.375-3.429688 5.789063-6.738281 5.789063zm0 0"/><path d="m130.070312 388.433594h-27.632812c-1.996094 0-3.886719-.875-5.183594-2.386719-1.296875-1.507813-1.867187-3.511719-1.566406-5.480469l8.347656-53.972656c1.722656-11.152344 12.191406-18.800781 23.359375-17.113281 11.160157 1.726562 18.839844 12.207031 17.117188 23.367187l-7.695313 49.800782c-.511718 3.332031-3.378906 5.785156-6.746094 5.785156zm-19.667968-13.652344h13.816406l6.800781-44.015625c.574219-3.71875-1.984375-7.21875-5.707031-7.792969-3.722656-.539062-7.210938 1.988282-7.785156 5.703125zm0 0"/><path d="m74.804688 388.433594h-27.628907c-1.992187 0-3.882812-.875-5.179687-2.386719-1.300782-1.507813-1.867188-3.511719-1.566406-5.480469l9.632812-62.3125c.832031-5.40625 3.722656-10.160156 8.140625-13.394531 4.414063-3.234375 9.839844-4.554687 15.226563-3.71875 11.15625 1.726563 18.835937 12.203125 17.113281 23.363281l-8.988281 58.140625c-.515626 3.335938-3.378907 5.789063-6.75 5.789063zm-19.664063-13.652344h13.8125l8.09375-52.355469c.574219-3.71875-1.984375-7.21875-5.707031-7.792969-1.789063-.246093-3.597656.160157-5.074219 1.242188-1.472656 1.078125-2.4375 2.660156-2.710937 4.457031zm0 0"/><path d="m245.761719 388.433594h-238.933594c-3.773437 0-6.828125-3.054688-6.828125-6.828125 0-3.773438 3.054688-6.824219 6.828125-6.824219h238.933594c3.769531 0 6.824219 3.050781 6.824219 6.824219 0 3.773437-3.054688 6.828125-6.824219 6.828125zm0 0"/></svg>