<svg height="436pt" viewBox="0 -13 436.90667 436" width="436pt" xmlns="http://www.w3.org/2000/svg"><path d="m364.917969 164.292969h-77.433594c-3.773437 0-6.824219-3.054688-6.824219-6.828125 0-3.773438 3.050782-6.824219 6.824219-6.824219h62.28125l-62.425781-70.574219c-2.5-2.820312-2.234375-7.132812.59375-9.632812 2.808594-2.496094 7.132812-2.242188 9.632812.59375l72.46875 81.917968c1.777344 2.007813 2.210938 4.871094 1.113282 7.328126-1.109376 2.445312-3.539063 4.019531-6.230469 4.019531zm0 0"/><path d="m262.527344 116.535156c-.6875 0-1.386719-.105468-2.082032-.328125-3.59375-1.144531-5.574218-4.992187-4.417968-8.578125 2.246094-7.027344 3.386718-14.375 3.386718-21.84375 0-39.523437-32.15625-71.679687-71.679687-71.679687-34.113281 0-63.679687 24.242187-70.3125 57.640625-.730469 3.699218-4.328125 6.121094-8.019531 5.367187-3.703125-.734375-6.109375-4.328125-5.367188-8.019531 7.890625-39.773438 43.089844-68.640625 83.699219-68.640625 47.050781 0 85.332031 38.28125 85.332031 85.332031 0 8.882813-1.359375 17.628906-4.039062 26-.925782 2.902344-3.605469 4.75-6.5 4.75zm0 0"/><path d="m323.960938 164.292969h-75.75c-3.773438 0-6.824219-3.054688-6.824219-6.828125 0-3.773438 3.050781-6.824219 6.824219-6.824219h65.773437l-23.816406-61.414063-50.347657 57.460938c-2.484374 2.839844-6.792968 3.105469-9.632812.632812-2.832031-2.480468-3.121094-6.792968-.632812-9.632812l57.765624-65.933594c1.574219-1.792968 3.980469-2.640625 6.320313-2.222656 2.351563.414062 4.3125 2.027344 5.179687 4.253906l31.507813 81.214844c.8125 2.097656.539063 4.464844-.734375 6.320312-1.273438 1.859376-3.378906 2.972657-5.632812 2.972657zm0 0"/><path d="m142.066406 116.578125c-1.886718 0-3.765625-.777344-5.113281-2.304687l-54.414063-61.515626c-2.5-2.816406-2.234374-7.132812.59375-9.632812 2.808594-2.492188 7.132813-2.234375 9.632813.59375l54.414063 61.515625c2.5 2.816406 2.234374 7.132813-.59375 9.632813-1.292969 1.144531-2.90625 1.710937-4.519532 1.710937zm0 0"/><path d="m124.160156 136.988281h-43.894531c-3.773437 0-6.824219-3.054687-6.824219-6.828125 0-3.773437 3.050782-6.828125 6.824219-6.828125h43.894531c3.773438 0 6.828125 3.054688 6.828125 6.828125 0 3.773438-3.054687 6.828125-6.828125 6.828125zm0 0"/><path d="m119.160156 136.988281h-102.660156c-2.679688 0-5.113281-1.566406-6.222656-4.007812-1.105469-2.441407-.675782-5.308594 1.089844-7.320313l71.152343-81.214844c1.574219-1.792968 3.992188-2.617187 6.320313-2.21875 2.351562.414063 4.3125 2.027344 5.179687 4.253907l31.503907 81.210937c.816406 2.101563.542968 4.46875-.730469 6.320313-1.273438 1.863281-3.378907 2.976562-5.632813 2.976562zm-87.601562-13.65625h77.628906l-23.820312-61.410156zm0 0"/><path d="m50.625 259.867188c-1.3125 0-2.644531-.382813-3.816406-1.175782-3.121094-2.113281-3.941406-6.351562-1.828125-9.480468l120.035156-177.492188c1.179687-1.746094 3.105469-2.847656 5.210937-2.988281 2.109376-.03125 4.164063.714843 5.554688 2.296875l95.578125 108.046875c2.5 2.816406 2.234375 7.132812-.59375 9.632812-2.808594 2.488281-7.132813 2.238281-9.632813-.59375l-89.746093-101.445312-115.101563 170.199219c-1.320312 1.945312-3.464844 3-5.660156 3zm0 0"/><path d="m168.753906 259.867188h-152.253906c-2.679688 0-5.113281-1.566407-6.222656-4.007813-1.105469-2.441406-.675782-5.300781 1.089844-7.320313l154.164062-175.964843c1.574219-1.789063 3.996094-2.628907 6.320312-2.222657 2.355469.414063 4.3125 2.027344 5.179688 4.253907l47.527344 122.515625c1.363281 3.511718-.378906 7.464844-3.898438 8.832031-3.492187 1.347656-7.460937-.378906-8.832031-3.898437l-43.449219-112.007813-136.820312 156.167969h137.195312c3.773438 0 6.828125 3.050781 6.828125 6.824218 0 3.773438-3.054687 6.828126-6.828125 6.828126zm0 0"/><path d="m273.066406 410.054688c-63.992187 0-116.054687-52.0625-116.054687-116.054688s52.0625-116.054688 116.054687-116.054688c63.992188 0 116.054688 52.0625 116.054688 116.054688s-52.0625 116.054688-116.054688 116.054688zm0-218.453126c-56.464844 0-102.398437 45.933594-102.398437 102.398438s45.933593 102.398438 102.398437 102.398438c56.46875 0 102.398438-45.933594 102.398438-102.398438s-45.929688-102.398438-102.398438-102.398438zm0 0"/><path d="m273.066406 334.960938c-16.351562 0-31.347656-5.769532-40.113281-15.421876-2.53125-2.785156-2.324219-7.105468.464844-9.636718 2.789062-2.523438 7.109375-2.328125 9.640625.464844 6.125 6.746093 17.625 10.941406 30.007812 10.941406 12.238282 0 23.679688-4.128906 29.84375-10.769532 2.554688-2.765624 6.886719-2.917968 9.648438-.351562 2.757812 2.566406 2.917968 6.886719.351562 9.644531-8.789062 9.476563-23.691406 15.128907-39.84375 15.128907zm0 0"/><path d="m225.28125 246.214844c0 7.539062-6.113281 13.652344-13.65625 13.652344-7.539062 0-13.652344-6.113282-13.652344-13.652344 0-7.542969 6.113282-13.65625 13.652344-13.65625 7.542969 0 13.65625 6.113281 13.65625 13.65625zm0 0"/><path d="m348.160156 246.214844c0 7.539062-6.113281 13.652344-13.652344 13.652344-7.542968 0-13.65625-6.113282-13.65625-13.652344 0-7.542969 6.113282-13.65625 13.65625-13.65625 7.539063 0 13.652344 6.113281 13.652344 13.65625zm0 0"/><path d="m430.078125 164.292969h-88.746094c-3.773437 0-6.824219-3.054688-6.824219-6.828125 0-3.773438 3.050782-6.824219 6.824219-6.824219h88.746094c3.773437 0 6.828125 3.050781 6.828125 6.824219 0 3.773437-3.054688 6.828125-6.828125 6.828125zm0 0"/><path d="m266.238281 410.054688h-88.746093c-3.773438 0-6.824219-3.054688-6.824219-6.828126 0-3.773437 3.050781-6.828124 6.824219-6.828124h88.746093c3.773438 0 6.828125 3.054687 6.828125 6.828124 0 3.773438-3.054687 6.828126-6.828125 6.828126zm0 0"/><path d="m27.308594 136.988281h-20.480469c-3.773437 0-6.828125-3.054687-6.828125-6.828125 0-3.773437 3.054688-6.828125 6.828125-6.828125h20.480469c3.773437 0 6.824218 3.054688 6.824218 6.828125 0 3.773438-3.050781 6.828125-6.824218 6.828125zm0 0"/><path d="m405.699219 272.058594c0 12.117187-9.824219 21.941406-21.941407 21.941406-12.121093 0-21.945312-9.824219-21.945312-21.941406 0-12.121094 17.554688-39.5 21.945312-39.5 4.386719 0 21.941407 27.378906 21.941407 39.5zm0 0"/><path d="m323.777344 210.617188c0 12.121093-9.824219 21.941406-21.941406 21.941406-12.117188 0-21.941407-9.820313-21.941407-21.941406 0-12.117188 17.554688-39.496094 21.941407-39.496094 4.386718 0 21.941406 27.378906 21.941406 39.496094zm0 0"/></svg>