<svg height="436pt" viewBox="0 -13 436.90623 436" width="436pt" xmlns="http://www.w3.org/2000/svg"><path d="m348.160156 89.199219h-46.832031c-3.769531 0-6.828125-3.050781-6.828125-6.824219s3.058594-6.828125 6.828125-6.828125h41.914063l2.277343-6.828125h-35.746093c-3.773438 0-6.828126-3.050781-6.828126-6.824219 0-3.773437 3.054688-6.828125 6.828126-6.828125h45.210937c2.195313 0 4.257813 1.054688 5.539063 2.832032 1.28125 1.78125 1.632812 4.074218.941406 6.152343l-6.828125 20.480469c-.929688 2.789062-3.535157 4.667969-6.476563 4.667969zm0 0"/><path d="m62.765625 89.199219h-49.113281c-2.941406 0-5.546875-1.878907-6.476563-4.664063l-6.828125-20.480468c-.691406-2.082032-.3398435-4.375.941406-6.152344 1.28125-1.78125 3.34375-2.835938 5.539063-2.835938h46.023437c3.773438 0 6.828126 3.054688 6.828126 6.828125 0 3.773438-3.054688 6.824219-6.828126 6.824219h-36.554687l2.277344 6.828125h44.191406c3.773437 0 6.828125 3.054687 6.828125 6.828125s-3.058594 6.824219-6.828125 6.824219zm0 0"/><path d="m214.179688 334.960938h-70.820313c-3.769531 0-6.828125-3.054688-6.828125-6.828126v-110.59375c0-3.773437 3.058594-6.828124 6.828125-6.828124s6.828125 3.054687 6.828125 6.828124v103.765626h63.992188c3.769531 0 6.828124 3.054687 6.828124 6.828124 0 3.773438-3.058593 6.828126-6.828124 6.828126zm0 0"/><path d="m204.800781 68.71875h-47.789062c-3.769531 0-6.824219-3.050781-6.824219-6.824219v-30.722656c0-16.9375 13.777344-30.71875 30.71875-30.71875s30.71875 13.78125 30.71875 30.71875v30.722656c0 3.773438-3.054688 6.824219-6.824219 6.824219zm-40.960937-13.652344h34.132812v-23.894531c0-9.414063-7.65625-17.066406-17.066406-17.066406s-17.066406 7.652343-17.066406 17.066406zm0 0"/><path d="m220.878906 251.347656c-.816406 0-1.644531-.148437-2.449218-.453125l-84.347657-32.441406c-2.636719-1.011719-4.375-3.546875-4.375-6.375v-102.398437h-54.613281c-2.589844 0-4.949219-1.460938-6.105469-3.773438l-20.480469-40.960938c-1.058593-2.113281-.945312-4.625.300782-6.640624 1.242187-2.011719 3.4375-3.238282 5.804687-3.238282h252.585938c2.367187 0 4.5625 1.226563 5.804687 3.238282 1.246094 2.011718 1.359375 4.527343.300782 6.640624l-20.480469 40.960938c-1.15625 2.3125-3.515625 3.773438-6.105469 3.773438h-54.613281v129.714843c0 2.957031-1.886719 5.484375-4.523438 6.425781-.074219.386719-.183593.773438-.328125 1.152344-1.046875 2.714844-3.636718 4.375-6.375 4.375zm-77.519531-43.953125 75.09375 28.878907v-133.421876c0-3.773437 3.054687-6.824218 6.828125-6.824218h57.21875l13.652344-27.308594h-230.492188l13.652344 27.308594h57.21875c3.773438 0 6.828125 3.050781 6.828125 6.824218zm0 0"/><path d="m163.839844 259.867188h13.652344v68.265624h-13.652344zm0 0"/><path d="m184.320312 259.867188h13.652344v68.265624h-13.652344zm0 0"/><path d="m224.621094 355.441406h-101.742188c-3.769531 0-6.824218-3.054687-6.824218-6.828125v-20.480469c0-3.773437 3.054687-6.828124 6.824218-6.828124h91.300782c3.769531 0 6.828124 3.054687 6.828124 6.828124 0 3.773438-3.058593 6.828126-6.828124 6.828126h-84.472657v6.824218h94.914063c3.769531 0 6.828125 3.054688 6.828125 6.828125 0 3.773438-3.058594 6.828125-6.828125 6.828125zm0 0"/><path d="m259.414062 410.054688h-157.015624c-3.769532 0-6.824219-3.054688-6.824219-6.828126v-54.613281c0-3.773437 3.054687-6.828125 6.824219-6.828125h122.226562c3.769531 0 6.828125 3.054688 6.828125 6.828125 0 3.773438-3.058594 6.828125-6.828125 6.828125h-115.398438v40.957032h143.359376v-9.113282c0-3.773437 3.058593-6.824218 6.828124-6.824218 3.769532 0 6.824219 3.050781 6.824219 6.824218v15.941406c0 3.773438-3.054687 6.828126-6.824219 6.828126zm0 0"/><path d="m320.851562 410.054688c-63.992187 0-116.050781-52.0625-116.050781-116.054688s52.058594-116.054688 116.050781-116.054688c63.996094 0 116.054688 52.0625 116.054688 116.054688s-52.058594 116.054688-116.054688 116.054688zm0-218.453126c-56.460937 0-102.398437 45.929688-102.398437 102.398438 0 56.464844 45.9375 102.398438 102.398437 102.398438 56.464844 0 102.402344-45.933594 102.402344-102.398438 0-56.46875-45.9375-102.398438-102.402344-102.398438zm0 0"/><path d="m320.851562 334.960938c-16.34375 0-31.339843-5.761719-40.117187-15.414063-2.53125-2.792969-2.324219-7.105469.464844-9.644531 2.789062-2.535156 7.101562-2.328125 9.640625.460937 6.136718 6.75 17.636718 10.941407 30.011718 10.941407 12.242188 0 23.675782-4.125 29.839844-10.765626 2.570313-2.757812 6.882813-2.914062 9.648438-.351562 2.765625 2.566406 2.921875 6.882812.359375 9.644531-8.800781 9.476563-23.691407 15.128907-39.847657 15.128907zm0 0"/><path d="m273.066406 246.214844c0 7.539062-6.113281 13.652344-13.652344 13.652344-7.542968 0-13.65625-6.113282-13.65625-13.652344 0-7.542969 6.113282-13.65625 13.65625-13.65625 7.539063 0 13.652344 6.113281 13.652344 13.65625zm0 0"/><path d="m395.945312 246.214844c0 7.539062-6.113281 13.652344-13.652343 13.652344-7.539063 0-13.652344-6.113282-13.652344-13.652344 0-7.542969 6.113281-13.65625 13.652344-13.65625 7.539062 0 13.652343 6.113281 13.652343 13.65625zm0 0"/><path d="m314.027344 410.054688h-266.242188c-3.769531 0-6.824218-3.054688-6.824218-6.828126 0-3.773437 3.054687-6.828124 6.824218-6.828124h266.242188c3.769531 0 6.824218 3.054687 6.824218 6.828124 0 3.773438-3.054687 6.828126-6.824218 6.828126zm0 0"/></svg>