<svg height="436pt" viewBox="0 -71 436.90667 436" width="436pt" xmlns="http://www.w3.org/2000/svg"><path d="m416.425781 253.039062h-395.945312c-3.773438 0-6.828125-3.050781-6.828125-6.824218v-101.214844c0-19.472656 15.847656-35.320312 35.320312-35.320312l169.207032-6.820313 170.027343 6.828125h.011719c19.195312 0 35.035156 15.839844 35.035156 35.3125v101.214844c0 3.773437-3.054687 6.824218-6.828125 6.824218zm-389.117187-13.652343h382.292968v-94.386719c0-11.945312-9.722656-21.667969-21.667968-21.667969l-169.753906-6.832031-168.933594 6.828125c-12.21875.003906-21.9375 9.726563-21.9375 21.671875zm0 0"/><path d="m266.238281 253.039062h-95.570312c-3.773438 0-6.828125-3.050781-6.828125-6.824218 0-3.773438 3.054687-6.828125 6.828125-6.828125h95.570312c3.773438 0 6.828125 3.054687 6.828125 6.828125 0 3.773437-3.054687 6.824218-6.828125 6.824218zm0 0"/><path d="m416.425781 294h-88.746093c-3.773438 0-6.828126-3.054688-6.828126-6.828125v-40.957031c0-3.773438 3.054688-6.828125 6.828126-6.828125h88.746093c3.773438 0 6.828125 3.054687 6.828125 6.828125v40.957031c0 3.773437-3.054687 6.828125-6.828125 6.828125zm-81.917969-13.652344h75.09375v-27.308594h-75.09375zm0 0"/><path d="m109.226562 294h-88.746093c-3.773438 0-6.828125-3.054688-6.828125-6.828125v-40.957031c0-3.773438 3.054687-6.828125 6.828125-6.828125h88.746093c3.773438 0 6.828126 3.054687 6.828126 6.828125v40.957031c0 3.773437-3.054688 6.828125-6.828126 6.828125zm-81.917968-13.652344h75.089844v-27.308594h-75.089844zm0 0"/><path d="m375.460938 123.332031c-3.148438 0-5.980469-2.183593-6.667969-5.386719l-19.238281-89.34375c-.074219-.339843-.121094-.675781-.140626-1.023437-.46875-7.550781-6.765624-13.472656-14.339843-13.472656h-233.242188c-7.574219 0-13.871093 5.921875-14.339843 13.476562-.019532.34375-.066407.679688-.136719 1.019531l-19.242188 89.34375c-.785156 3.679688-4.394531 6.042969-8.113281 5.234376-3.679688-.792969-6.027344-4.425782-5.234375-8.113282l19.140625-88.878906c1.179688-14.472656 13.339844-25.734375 27.925781-25.734375h233.242188c14.585937 0 26.746093 11.261719 27.925781 25.734375l19.140625 88.878906c.792969 3.6875-1.554687 7.320313-5.234375 8.113282-.484375.109374-.972656.152343-1.445312.152343zm0 0"/><path d="m218.453125 82.375c-16.351563 0-31.347656-5.769531-40.113281-15.421875-2.53125-2.785156-2.328125-7.105469.464844-9.640625 2.789062-2.519531 7.109374-2.332031 9.640624.46875 6.125 6.746094 17.625 10.9375 30.007813 10.9375 12.238281 0 23.679687-4.125 29.84375-10.765625 2.554687-2.765625 6.886719-2.921875 9.648437-.355469 2.757813 2.570313 2.917969 6.886719.351563 9.648438-8.789063 9.476562-23.691406 15.128906-39.84375 15.128906zm0 0"/><path d="m157.011719 41.414062c0 7.539063-6.109375 13.652344-13.652344 13.652344-7.539063 0-13.652344-6.113281-13.652344-13.652344 0-7.542968 6.113281-13.652343 13.652344-13.652343 7.542969 0 13.652344 6.109375 13.652344 13.652343zm0 0"/><path d="m307.199219 41.414062c0 7.539063-6.113281 13.652344-13.652344 13.652344s-13.652344-6.113281-13.652344-13.652344c0-7.542968 6.113281-13.652343 13.652344-13.652343s13.652344 6.109375 13.652344 13.652343zm0 0"/><path d="m430.078125 109.679688h-47.785156c-3.773438 0-6.828125-3.054688-6.828125-6.828126v-34.132812c0-3.773438 3.054687-6.824219 6.828125-6.824219h13.652343c22.585938 0 40.960938 18.371094 40.960938 40.957031 0 3.773438-3.054688 6.828126-6.828125 6.828126zm-40.957031-13.652344h33.265625c-3.03125-11.769532-13.742188-20.480469-26.441407-20.480469h-6.824218zm0 0"/><path d="m382.292969 123.332031c-3.773438 0-6.828125-3.050781-6.828125-6.824219v-13.65625c0-3.773437 3.054687-6.824218 6.828125-6.824218 3.773437 0 6.828125 3.050781 6.828125 6.824218v13.65625c0 3.773438-3.054688 6.824219-6.828125 6.824219zm0 0"/><path d="m54.613281 109.679688h-47.785156c-3.773437 0-6.828125-3.054688-6.828125-6.828126 0-22.585937 18.375-40.957031 40.960938-40.957031h13.652343c3.773438 0 6.828125 3.050781 6.828125 6.824219v34.132812c0 3.773438-3.054687 6.828126-6.828125 6.828126zm-40.09375-13.652344h33.265625v-20.480469h-6.824218c-12.699219 0-23.40625 8.710937-26.441407 20.480469zm0 0"/><path d="m54.613281 123.332031c-3.773437 0-6.828125-3.050781-6.828125-6.824219v-13.65625c0-3.773437 3.054688-6.824218 6.828125-6.824218 3.773438 0 6.828125 3.050781 6.828125 6.824218v13.65625c0 3.773438-3.054687 6.824219-6.828125 6.824219zm0 0"/><path d="m409.601562 198.425781h-382.292968c-3.773438 0-6.828125-3.050781-6.828125-6.824219 0-3.773437 3.054687-6.828124 6.828125-6.828124h382.292968c3.773438 0 6.824219 3.054687 6.824219 6.828124 0 3.773438-3.050781 6.824219-6.824219 6.824219zm0 0"/><path d="m416.425781 198.425781h-81.917969c-3.773437 0-6.828124-3.050781-6.828124-6.824219 0-30.117187 24.5-54.613281 54.613281-54.613281h34.132812c3.773438 0 6.828125 3.050781 6.828125 6.824219v47.789062c0 3.773438-3.054687 6.824219-6.828125 6.824219zm-74.527343-13.652343h67.703124v-34.132813h-27.308593c-20.257813 0-37.132813 14.785156-40.394531 34.132813zm0 0"/><path d="m102.398438 198.425781h-81.917969c-3.773438 0-6.828125-3.050781-6.828125-6.824219v-47.789062c0-3.773438 3.054687-6.824219 6.828125-6.824219h34.132812c30.113281 0 54.613281 24.496094 54.613281 54.613281 0 3.773438-3.054687 6.824219-6.828124 6.824219zm-75.089844-13.652343h67.699218c-3.261718-19.347657-20.132812-34.132813-40.394531-34.132813h-27.304687zm0 0"/><path d="m88.746094 225.734375h-40.960938c-3.773437 0-6.824218-3.054687-6.824218-6.828125s3.050781-6.828125 6.824218-6.828125h40.960938c3.773437 0 6.828125 3.054687 6.828125 6.828125s-3.054688 6.828125-6.828125 6.828125zm0 0"/><path d="m389.121094 225.734375h-40.960938c-3.773437 0-6.828125-3.054687-6.828125-6.828125s3.054688-6.828125 6.828125-6.828125h40.960938c3.773437 0 6.824218 3.054687 6.824218 6.828125s-3.050781 6.828125-6.824218 6.828125zm0 0"/></svg>