<svg height="436pt" viewBox="0 -6 436.90901 436" width="436pt" xmlns="http://www.w3.org/2000/svg"><path d="m430.089844 362.269531c-2.070313 0-4.109375-.933593-5.453125-2.707031l-211.628907-279.894531c-2.273437-3.015625-1.679687-7.292969 1.328126-9.566407 3.007812-2.285156 7.28125-1.679687 9.566406 1.328126l211.625 279.890624c2.273437 3.015626 1.679687 7.292969-1.324219 9.566407-1.234375.933593-2.679687 1.382812-4.113281 1.382812zm0 0"/><path d="m6.820312 362.269531c-1.433593 0-2.878906-.449219-4.113281-1.382812-3.007812-2.273438-3.597656-6.554688-1.324219-9.566407l211.625-279.890624c2.273438-3.007813 6.546876-3.613282 9.566407-1.328126 3.007812 2.273438 3.601562 6.554688 1.328125 9.566407l-211.628906 279.894531c-1.347657 1.773438-3.386719 2.707031-5.453126 2.707031zm0 0"/><path d="m416.429688 423.707031h-398.214844c-2.433594 0-4.6875-1.292969-5.90625-3.398437-1.21875-2.105469-1.226563-4.699219-.019532-6.8125l199.105469-348.160156c2.425781-4.253907 9.425781-4.253907 11.851563 0l199.109375 348.160156c1.203125 2.113281 1.199219 4.707031-.023438 6.8125-1.21875 2.105468-3.46875 3.398437-5.902343 3.398437zm-386.449219-13.652343h374.679687l-187.339844-327.578126zm0 0"/><path d="m300.375 423.707031h-163.839844c-3.773437 0-6.828125-3.050781-6.828125-6.824219v-81.921874c0-48.933594 39.8125-88.746094 88.746094-88.746094s88.75 39.8125 88.75 88.746094v81.921874c0 3.773438-3.054687 6.824219-6.828125 6.824219zm-157.011719-13.652343h150.183594v-75.09375c0-41.40625-33.683594-75.09375-75.09375-75.09375-41.40625 0-75.089844 33.6875-75.089844 75.09375zm0 0"/><path d="m218.453125 389.574219c-16.351563 0-31.34375-5.765625-40.113281-15.417969-2.53125-2.789062-2.324219-7.109375.46875-9.640625 2.785156-2.519531 7.105468-2.332031 9.636718.464844 6.128907 6.746093 17.628907 10.941406 30.007813 10.941406 12.238281 0 23.679687-4.128906 29.847656-10.769531 2.550781-2.765625 6.886719-2.917969 9.644531-.351563 2.757813 2.566407 2.921876 6.886719.351563 9.644531-8.789063 9.476563-23.6875 15.128907-39.84375 15.128907zm0 0"/><path d="m170.667969 300.828125c0 7.539063-6.113281 13.652344-13.652344 13.652344-7.542969 0-13.652344-6.113281-13.652344-13.652344s6.109375-13.652344 13.652344-13.652344c7.539063 0 13.652344 6.113281 13.652344 13.652344zm0 0"/><path d="m293.546875 300.828125c0 7.539063-6.113281 13.652344-13.652344 13.652344-7.539062 0-13.652343-6.113281-13.652343-13.652344s6.113281-13.652344 13.652343-13.652344c7.539063 0 13.652344 6.113281 13.652344 13.652344zm0 0"/><path d="m6.828125 423.707031c-3.773437 0-6.828125-3.050781-6.828125-6.824219v-81.921874c0-3.773438 3.054688-6.828126 6.828125-6.828126s6.828125 3.054688 6.828125 6.828126v81.921874c0 3.773438-3.054688 6.824219-6.828125 6.824219zm0 0"/><path d="m430.082031 423.707031c-3.773437 0-6.828125-3.050781-6.828125-6.824219v-81.921874c0-3.773438 3.054688-6.828126 6.828125-6.828126 3.773438 0 6.824219 3.054688 6.824219 6.828126v81.921874c0 3.773438-3.050781 6.824219-6.824219 6.824219zm0 0"/><path d="m218.453125 259.867188c-3.773437 0-6.824219-3.050782-6.824219-6.824219v-81.921875c0-3.773438 3.050782-6.828125 6.824219-6.828125s6.828125 3.054687 6.828125 6.828125v81.921875c0 3.773437-3.054688 6.824219-6.828125 6.824219zm0 0"/><path d="m88.75 143.816406c-30.117188 0-54.617188-24.5-54.617188-54.613281 0-30.117187 24.5-54.617187 54.617188-54.617187 30.113281 0 54.613281 24.5 54.613281 54.617187 0 30.113281-24.5 54.613281-54.613281 54.613281zm0-95.574218c-22.589844 0-40.960938 18.371093-40.960938 40.960937 0 22.585937 18.371094 40.957031 40.960938 40.957031 22.585938 0 40.957031-18.371094 40.957031-40.957031 0-22.589844-18.371093-40.960937-40.957031-40.960937zm0 0"/><path d="m88.75 27.761719c-3.773438 0-6.828125-3.054688-6.828125-6.828125v-13.652344c0-3.773438 3.054687-6.828125 6.828125-6.828125s6.824219 3.054687 6.824219 6.828125v13.652344c0 3.773437-3.050781 6.828125-6.824219 6.828125zm0 0"/><path d="m88.75 177.949219c-3.773438 0-6.828125-3.054688-6.828125-6.828125v-13.652344c0-3.773438 3.054687-6.828125 6.828125-6.828125s6.824219 3.054687 6.824219 6.828125v13.652344c0 3.773437-3.050781 6.828125-6.824219 6.828125zm0 0"/><path d="m20.480469 96.027344h-13.652344c-3.773437 0-6.828125-3.050782-6.828125-6.824219 0-3.777344 3.054688-6.828125 6.828125-6.828125h13.652344c3.773437 0 6.828125 3.050781 6.828125 6.828125 0 3.773437-3.054688 6.824219-6.828125 6.824219zm0 0"/><path d="m170.667969 96.027344h-13.652344c-3.773437 0-6.828125-3.050782-6.828125-6.824219 0-3.777344 3.054688-6.828125 6.828125-6.828125h13.652344c3.773437 0 6.828125 3.050781 6.828125 6.828125 0 3.773437-3.054688 6.824219-6.828125 6.824219zm0 0"/><path d="m40.476562 47.753906c-1.746093 0-3.496093-.667968-4.828124-2l-9.652344-9.652344c-2.667969-2.664062-2.667969-6.988281 0-9.652343 2.664062-2.667969 6.988281-2.667969 9.652344 0l9.652343 9.652343c2.667969 2.664063 2.667969 6.988282 0 9.652344-1.332031 1.332032-3.078125 2-4.824219 2zm0 0"/><path d="m146.675781 153.953125c-1.746093 0-3.496093-.667969-4.828125-2l-9.652344-9.652344c-2.667968-2.664062-2.667968-6.988281 0-9.652343 2.664063-2.667969 6.988282-2.667969 9.652344 0l9.652344 9.652343c2.667969 2.664063 2.667969 6.988281 0 9.652344-1.332031 1.335937-3.078125 2-4.824219 2zm0 0"/><path d="m137.019531 47.753906c-1.746093 0-3.492187-.667968-4.824219-2-2.667968-2.664062-2.667968-6.988281 0-9.652344l9.652344-9.652343c2.664063-2.667969 6.988282-2.667969 9.652344 0 2.667969 2.664062 2.667969 6.988281 0 9.652343l-9.652344 9.652344c-1.332031 1.332032-3.078125 2-4.828125 2zm0 0"/><path d="m30.820312 153.953125c-1.742187 0-3.492187-.667969-4.824218-2-2.667969-2.664063-2.667969-6.988281 0-9.652344l9.652344-9.652343c2.664062-2.667969 6.988281-2.667969 9.652343 0 2.667969 2.664062 2.667969 6.988281 0 9.652343l-9.652343 9.652344c-1.335938 1.335937-3.082032 2-4.828126 2zm0 0"/></svg>