<svg height="436pt" viewBox="0 -12 436.90822 436" width="436pt" xmlns="http://www.w3.org/2000/svg"><path d="m430.085938 351.519531c-2.066407 0-4.109376-.933593-5.453126-2.707031l-211.625-279.890625c-2.273437-3.015625-1.675781-7.292969 1.328126-9.566406 2.996093-2.289063 7.289062-1.679688 9.566406 1.324219l211.625 279.894531c2.273437 3.015625 1.675781 7.292969-1.328125 9.566406-1.234375.933594-2.679688 1.378906-4.113281 1.378906zm0 0"/><path d="m6.820312 351.519531c-1.433593 0-2.882812-.445312-4.109374-1.378906-3.007813-2.273437-3.601563-6.554687-1.328126-9.566406l211.625-279.894531c2.273438-3.003907 6.558594-3.613282 9.5625-1.324219 3.007813 2.273437 3.605469 6.554687 1.332032 9.566406l-211.628906 279.890625c-1.34375 1.773438-3.386719 2.707031-5.453126 2.707031zm0 0"/><path d="m416.425781 412.960938h-398.207031c-2.433594 0-4.683594-1.292969-5.910156-3.398438-1.21875-2.105469-1.226563-4.703125-.019532-6.8125l199.105469-348.160156c2.433594-4.253906 9.417969-4.253906 11.851563 0l199.105468 348.160156c1.207032 2.109375 1.199219 4.707031-.019531 6.8125-1.222656 2.105469-3.472656 3.398438-5.90625 3.398438zm-386.441406-13.652344h374.675781l-187.339844-327.582032zm0 0"/><path d="m300.375 412.960938h-163.839844c-3.773437 0-6.828125-3.054688-6.828125-6.828126v-81.917968c0-48.933594 39.808594-88.746094 88.746094-88.746094s88.746094 39.8125 88.746094 88.746094v81.917968c0 3.773438-3.054688 6.828126-6.824219 6.828126zm-157.015625-13.652344h150.1875v-75.09375c0-41.40625-33.6875-75.09375-75.09375-75.09375s-75.09375 33.6875-75.09375 75.09375zm0 0"/><path d="m218.453125 378.828125c-16.347656 0-31.34375-5.761719-40.117187-15.414063-2.53125-2.792968-2.324219-7.105468.464843-9.644531 2.785157-2.535156 7.101563-2.328125 9.640625.460938 6.132813 6.753906 17.632813 10.945312 30.011719 10.945312 12.238281 0 23.671875-4.125 29.839844-10.765625 2.570312-2.769531 6.882812-2.914062 9.648437-.355468 2.761719 2.566406 2.917969 6.886718.355469 9.648437-8.796875 9.472656-23.691406 15.125-39.84375 15.125zm0 0"/><path d="m170.667969 290.082031c0 7.539063-6.113281 13.652344-13.65625 13.652344-7.539063 0-13.652344-6.113281-13.652344-13.652344 0-7.542969 6.113281-13.65625 13.652344-13.65625 7.542969 0 13.65625 6.113281 13.65625 13.65625zm0 0"/><path d="m293.546875 290.082031c0 7.539063-6.113281 13.652344-13.652344 13.652344-7.542969 0-13.65625-6.113281-13.65625-13.652344 0-7.542969 6.113281-13.65625 13.65625-13.65625 7.539063 0 13.652344 6.113281 13.652344 13.65625zm0 0"/><path d="m6.828125 412.960938c-3.769531 0-6.828125-3.054688-6.828125-6.828126v-81.917968c0-3.773438 3.058594-6.828125 6.828125-6.828125s6.824219 3.054687 6.824219 6.828125v81.917968c0 3.773438-3.054688 6.828126-6.824219 6.828126zm0 0"/><path d="m430.082031 412.960938c-3.773437 0-6.828125-3.054688-6.828125-6.828126v-81.917968c0-3.773438 3.054688-6.828125 6.828125-6.828125 3.769531 0 6.824219 3.054687 6.824219 6.828125v81.917968c0 3.773438-3.054688 6.828126-6.824219 6.828126zm0 0"/><path d="m218.453125 249.121094c-3.769531 0-6.828125-3.054688-6.828125-6.828125v-81.917969c0-3.773438 3.058594-6.828125 6.828125-6.828125s6.828125 3.054687 6.828125 6.828125v81.917969c0 3.773437-3.058594 6.828125-6.828125 6.828125zm0 0"/><path d="m81.921875 167.199219c-31.78125 0-61.328125-17.210938-77.113281-44.910157-1.519532-2.671874-1.066406-6.035156 1.105468-8.207031 2.179688-2.160156 5.542969-2.621093 8.207032-1.105469 11.308594 6.445313 24.132812 9.851563 37.078125 9.851563 41.40625 0 75.09375-33.6875 75.09375-75.09375 0-12.945313-3.40625-25.765625-9.847657-37.082031-1.523437-2.671875-1.066406-6.03125 1.105469-8.207032 2.171875-2.167968 5.539063-2.613281 8.207031-1.105468 27.699219 15.789062 44.910157 45.335937 44.910157 77.113281 0 48.933594-39.8125 88.746094-88.746094 88.746094zm-50.074219-32.878907c13.589844 12.183594 31.375 19.230469 50.074219 19.230469 41.40625 0 75.089844-33.6875 75.089844-75.09375 0-18.695312-7.046875-36.480469-19.222657-50.082031 1.425782 6.347656 2.15625 12.839844 2.15625 19.359375 0 48.933594-39.808593 88.75-88.746093 88.75-6.519531-.003906-13.015625-.734375-19.351563-2.164063zm0 0"/></svg>