<svg height="430pt" viewBox="0 -3 430.08 430" width="430pt" xmlns="http://www.w3.org/2000/svg"><path d="m225.28125 423.292969h-68.269531c-3.773438 0-6.824219-3.054688-6.824219-6.828125v-191.144532c0-3.773437 3.050781-6.828124 6.824219-6.828124h61.441406c3.773437 0 6.828125 3.054687 6.828125 6.828124 0 3.773438-3.054688 6.828126-6.828125 6.828126h-54.613281v177.492187h54.613281v-13.625c0-3.773437 3.054687-6.828125 6.828125-6.828125s6.824219 3.054688 6.824219 6.828125v20.449219c0 3.773437-3.050781 6.828125-6.824219 6.828125zm0 0"/><path d="m218.453125 232.148438h-54.613281c-3.773438 0-6.828125-3.054688-6.828125-6.828126v-54.613281c0-3.773437 3.054687-6.828125 6.828125-6.828125h54.613281c3.773437 0 6.828125 3.054688 6.828125 6.828125v54.613281c0 3.773438-3.054688 6.828126-6.828125 6.828126zm-47.785156-13.65625h40.957031v-40.957032h-40.957031zm0 0"/><path d="m211.625 177.535156h-40.957031c-3.773438 0-6.828125-3.054687-6.828125-6.828125v-54.613281c0-3.773438 3.054687-6.828125 6.828125-6.828125h40.957031c3.773438 0 6.828125 3.054687 6.828125 6.828125v54.613281c0 3.773438-3.054687 6.828125-6.828125 6.828125zm-34.132812-13.65625h27.308593v-40.957031h-27.308593zm0 0"/><path d="m211.625 122.921875h-40.957031c-2.128907 0-4.136719-.996094-5.429688-2.679687-1.292969-1.695313-1.71875-3.894532-1.160156-5.941407l20.480469-75.09375c.8125-2.972656 3.507812-5.035156 6.589844-5.035156 3.078124 0 5.773437 2.0625 6.585937 5.035156l20.476563 75.09375c.5625 2.046875.136718 4.246094-1.160157 5.9375-1.289062 1.6875-3.296875 2.683594-5.425781 2.683594zm-32.019531-13.65625h23.078125l-11.535156-42.320313zm0 0"/><path d="m191.148438 47.828125c-3.773438 0-6.828126-3.054687-6.828126-6.828125v-34.132812c0-3.773438 3.054688-6.8281255 6.828126-6.8281255 3.773437 0 6.824218 3.0546875 6.824218 6.8281255v34.132812c0 3.773438-3.050781 6.828125-6.824218 6.828125zm0 0"/><path d="m293.546875 423.292969c-63.992187 0-116.054687-52.058594-116.054687-116.054688 0-63.992187 52.0625-116.050781 116.054687-116.050781s116.054687 52.058594 116.054687 116.050781c0 63.996094-52.0625 116.054688-116.054687 116.054688zm0-218.453125c-56.46875 0-102.398437 45.933594-102.398437 102.398437 0 56.46875 45.929687 102.402344 102.398437 102.402344 56.464844 0 102.398437-45.933594 102.398437-102.402344 0-56.464843-45.933593-102.398437-102.398437-102.398437zm0 0"/><path d="m293.546875 348.199219c-16.351563 0-31.347656-5.765625-40.113281-15.417969-2.53125-2.789062-2.328125-7.109375.464844-9.640625 2.789062-2.519531 7.105468-2.324219 9.640624.464844 6.125 6.746093 17.625 10.941406 30.007813 10.941406 12.238281 0 23.679687-4.125 29.84375-10.765625 2.554687-2.769531 6.878906-2.921875 9.648437-.355469 2.757813 2.566407 2.917969 6.886719.351563 9.644531-8.792969 9.476563-23.691406 15.128907-39.84375 15.128907zm0 0"/><path d="m245.761719 259.453125c0 7.539063-6.113281 13.652344-13.65625 13.652344-7.539063 0-13.652344-6.113281-13.652344-13.652344s6.113281-13.652344 13.652344-13.652344c7.542969 0 13.65625 6.113281 13.65625 13.652344zm0 0"/><path d="m368.640625 259.453125c0 7.539063-6.113281 13.652344-13.652344 13.652344-7.542969 0-13.65625-6.113281-13.65625-13.652344s6.113281-13.652344 13.65625-13.652344c7.539063 0 13.652344 6.113281 13.652344 13.652344zm0 0"/><path d="m423.253906 423.292969h-416.425781c-3.773437 0-6.828125-3.054688-6.828125-6.828125 0-3.773438 3.054688-6.824219 6.828125-6.824219h416.425781c3.773438 0 6.824219 3.050781 6.824219 6.824219 0 3.773437-3.050781 6.828125-6.824219 6.828125zm0 0"/><path d="m88.746094 423.292969h-68.265625c-3.773438 0-6.828125-3.054688-6.828125-6.828125v-191.144532c0-3.773437 3.054687-6.828124 6.828125-6.828124h68.265625c3.773437 0 6.828125 3.054687 6.828125 6.828124v191.144532c0 3.773437-3.054688 6.828125-6.828125 6.828125zm-61.4375-13.652344h54.613281v-177.492187h-54.613281zm0 0"/><path d="m81.921875 232.148438h-54.613281c-3.773438 0-6.828125-3.054688-6.828125-6.828126v-54.613281c0-3.773437 3.054687-6.828125 6.828125-6.828125h54.613281c3.773437 0 6.824219 3.054688 6.824219 6.828125v54.613281c0 3.773438-3.050782 6.828126-6.824219 6.828126zm-47.789063-13.65625h40.960938v-40.957032h-40.960938zm0 0"/><path d="m75.09375 177.535156h-40.960938c-3.773437 0-6.824218-3.054687-6.824218-6.828125v-54.613281c0-3.773438 3.050781-6.828125 6.824218-6.828125h40.960938c3.773438 0 6.828125 3.054687 6.828125 6.828125v54.613281c0 3.773438-3.054687 6.828125-6.828125 6.828125zm-34.132812-13.65625h27.304687v-40.957031h-27.304687zm0 0"/><path d="m75.09375 122.921875h-40.960938c-2.125 0-4.132812-.996094-5.425781-2.679687-1.292969-1.695313-1.722656-3.894532-1.160156-5.941407l20.480469-75.09375c.8125-2.972656 3.503906-5.035156 6.585937-5.035156s5.773438 2.0625 6.585938 5.035156l20.480469 75.09375c.558593 2.046875.132812 4.246094-1.160157 5.9375-1.292969 1.6875-3.300781 2.683594-5.425781 2.683594zm-32.019531-13.65625h23.078125l-11.539063-42.320313zm0 0"/><path d="m54.613281 47.828125c-3.773437 0-6.828125-3.054687-6.828125-6.828125v-34.132812c0-3.773438 3.054688-6.8281255 6.828125-6.8281255 3.773438 0 6.828125 3.0546875 6.828125 6.8281255v34.132812c0 3.773438-3.054687 6.828125-6.828125 6.828125zm0 0"/><path d="m40.960938 334.546875c-3.773438 0-6.828126-3.054687-6.828126-6.828125v-81.917969c0-3.773437 3.054688-6.828125 6.828126-6.828125 3.773437 0 6.824218 3.054688 6.824218 6.828125v81.917969c0 3.773438-3.050781 6.828125-6.824218 6.828125zm0 0"/><path d="m157.011719 279.933594h-68.265625c-3.773438 0-6.824219-3.054688-6.824219-6.828125v-27.304688c0-3.773437 3.050781-6.828125 6.824219-6.828125h68.265625c3.773437 0 6.828125 3.054688 6.828125 6.828125v27.304688c0 3.773437-3.054688 6.828125-6.828125 6.828125zm-61.4375-13.652344h54.613281v-13.65625h-54.613281zm0 0"/><path d="m157.011719 314.539062c-1.757813 0-3.523438-.679687-4.859375-2.03125l-29.273438-29.683593-29.273437 29.683593c-2.644531 2.683594-6.976563 2.710938-9.652344.066407-2.683594-2.648438-2.710937-6.96875-.066406-9.652344l34.132812-34.609375c2.5625-2.597656 7.160157-2.597656 9.722657 0l34.132812 34.609375c2.644531 2.683594 2.617188 7.003906-.066406 9.652344-1.328125 1.3125-3.0625 1.964843-4.796875 1.964843zm0 0"/></svg>