<svg height="402pt" viewBox="-34 0 402 402.77333" width="402pt" xmlns="http://www.w3.org/2000/svg"><path d="m328.066406 402.773438h-320.851562c-2.652344 0-5.0625-1.53125-6.183594-3.933594-1.125-2.394532-.757812-5.226563.941406-7.265625l68.265625-81.921875c2.410157-2.898438 6.714844-3.28125 9.613281-.875 2.894532 2.414062 3.285157 6.722656.875 9.621094l-58.9375 70.722656h291.703126l-58.933594-70.722656c-2.414063-2.898438-2.023438-7.207032.871094-9.621094 2.894531-2.410156 7.199218-2.027344 9.613281.875l68.269531 81.921875c1.695312 2.039062 2.0625 4.871093.9375 7.265625-1.121094 2.402344-3.53125 3.933594-6.183594 3.933594zm0 0"/><path d="m287.105469 354.988281h-238.933594c-3.769531 0-6.824219-3.054687-6.824219-6.828125 0-3.773437 3.054688-6.828125 6.824219-6.828125h238.933594c3.773437 0 6.828125 3.054688 6.828125 6.828125 0 3.773438-3.054688 6.828125-6.828125 6.828125zm0 0"/><path d="m273.539062 300.375h-218.621093c-26.304688 0-47.703125-21.402344-47.703125-47.703125v-116.136719c0-3.773437 3.054687-6.828125 6.824218-6.828125h300.375c3.769532 0 6.828126 3.054688 6.828126 6.828125v116.136719c0 26.300781-21.402344 47.703125-47.703126 47.703125zm-252.671874-157.015625v109.3125c0 18.773437 15.273437 34.046875 34.050781 34.046875h218.621093c18.773438 0 34.046876-15.273438 34.046876-34.046875v-109.3125zm0 0"/><path d="m164.226562 259.414062c-30.113281 0-54.613281-24.5-54.613281-54.613281s24.5-54.613281 54.613281-54.613281c30.113282 0 54.613282 24.5 54.613282 54.613281s-24.5 54.613281-54.613282 54.613281zm0-95.574218c-22.585937 0-40.960937 18.375-40.960937 40.960937 0 22.585938 18.375 40.960938 40.960937 40.960938 22.585938 0 40.960938-18.375 40.960938-40.960938 0-22.585937-18.375-40.960937-40.960938-40.960937zm0 0"/><path d="m164.226562 232.105469c-15.054687 0-27.304687-12.246094-27.304687-27.304688 0-15.058593 12.25-27.308593 27.304687-27.308593 15.054688 0 27.308594 12.25 27.308594 27.308593 0 15.058594-12.253906 27.304688-27.308594 27.304688zm0-40.957031c-7.53125 0-13.652343 6.125-13.652343 13.652343 0 7.527344 6.121093 13.652344 13.652343 13.652344s13.652344-6.125 13.652344-13.652344c0-7.527343-6.121094-13.652343-13.652344-13.652343zm0 0"/><path d="m314.414062 143.359375h-300.375c-3.769531 0-6.824218-3.050781-6.824218-6.824219v-80.347656c0-30.980469 25.203125-56.1875 56.183594-56.1875h201.660156c30.976562 0 56.183594 25.207031 56.183594 56.1875v80.347656c0 3.773438-3.058594 6.824219-6.828126 6.824219zm-293.546874-13.652344h286.71875v-73.519531c0-23.453125-19.078126-42.535156-42.527344-42.535156h-201.660156c-23.449219 0-42.53125 19.082031-42.53125 42.535156zm0 0"/><path d="m164.226562 143.359375c-3.769531 0-6.828124-3.050781-6.828124-6.824219v-122.882812c0-3.773438 3.058593-6.824219 6.828124-6.824219 3.769532 0 6.828126 3.050781 6.828126 6.824219v122.882812c0 3.773438-3.058594 6.824219-6.828126 6.824219zm0 0"/><path d="m109.613281 75.09375c10.953125 13.820312 31.984375 30.46875 54.671875 30.46875 22.457032 0 43.535156-16.878906 54.554688-30.46875zm0 0"/><path d="m164.285156 112.390625c-24.960937 0-47.933594-17.804687-60.023437-33.058594-1.625-2.050781-1.9375-4.851562-.796875-7.214843 1.140625-2.351563 3.527344-3.851563 6.148437-3.851563h109.226563c2.632812 0 5.03125 1.515625 6.164062 3.886719 1.128906 2.382812.796875 5.195312-.859375 7.238281-12.335937 15.222656-35.421875 33-59.859375 33zm-38.644531-30.46875c10.886719 9.390625 24.953125 16.816406 38.644531 16.816406 14.050782 0 27.867188-7.714843 38.417969-16.816406zm0 0"/><path d="m89.132812 44.375c0 5.652344-4.582031 10.238281-10.238281 10.238281s-10.242187-4.585937-10.242187-10.238281c0-5.65625 4.585937-10.242188 10.242187-10.242188s10.238281 4.585938 10.238281 10.242188zm0 0"/><path d="m252.972656 44.375c0 5.652344-4.582031 10.238281-10.238281 10.238281s-10.242187-4.585937-10.242187-10.238281c0-5.65625 4.585937-10.242188 10.242187-10.242188s10.238281 4.585938 10.238281 10.242188zm0 0"/><path d="m82.308594 245.761719c0 11.308593-9.171875 20.476562-20.480469 20.476562-11.3125 0-20.480469-9.167969-20.480469-20.476562 0-11.3125 9.167969-20.480469 20.480469-20.480469 11.308594 0 20.480469 9.167969 20.480469 20.480469zm0 0"/><path d="m287.105469 245.761719c0 11.308593-9.167969 20.476562-20.480469 20.476562-11.308594 0-20.476562-9.167969-20.476562-20.476562 0-11.3125 9.167968-20.480469 20.476562-20.480469 11.3125 0 20.480469 9.167969 20.480469 20.480469zm0 0"/><path d="m48.171875 293.546875h27.308594v27.304687h-27.308594zm0 0"/><path d="m75.480469 327.679688h-27.308594c-3.769531 0-6.824219-3.054688-6.824219-6.828126v-27.304687c0-3.773437 3.054688-6.828125 6.824219-6.828125h27.308594c3.769531 0 6.828125 3.054688 6.828125 6.828125v27.304687c0 3.773438-3.058594 6.828126-6.828125 6.828126zm-20.480469-13.652344h13.652344v-13.652344h-13.652344zm0 0"/><path d="m252.972656 293.546875h27.308594v27.304687h-27.308594zm0 0"/><path d="m280.28125 327.679688h-27.308594c-3.769531 0-6.824218-3.054688-6.824218-6.828126v-27.304687c0-3.773437 3.054687-6.828125 6.824218-6.828125h27.308594c3.769531 0 6.824219 3.054688 6.824219 6.828125v27.304687c0 3.773438-3.054688 6.828126-6.824219 6.828126zm-20.480469-13.652344h13.652344v-13.652344h-13.652344zm0 0"/></svg>