<svg height="430pt" viewBox="-38 0 430 430.07915" width="430pt" xmlns="http://www.w3.org/2000/svg"><path d="m20.511719 430.078125c-1.539063 0-3.085938-.519531-4.367188-1.578125-2.890625-2.414062-3.285156-6.722656-.871093-9.621094l68.265624-81.921875c2.414063-2.890625 6.707032-3.277343 9.621094-.871093 2.890625 2.410156 3.285156 6.71875.871094 9.617187l-68.265625 81.921875c-1.351563 1.621094-3.292969 2.453125-5.253906 2.453125zm0 0"/><path d="m341.378906 430.078125c-1.957031 0-3.898437-.832031-5.253906-2.453125l-68.265625-81.921875c-2.414063-2.898437-2.019531-7.207031.875-9.617187 2.90625-2.40625 7.199219-2.023438 9.621094.871093l68.265625 81.921875c2.414062 2.898438 2.019531 7.207032-.875 9.621094-1.28125 1.058594-2.828125 1.578125-4.367188 1.578125zm0 0"/><path d="m300.414062 382.292969h-238.933593c-3.773438 0-6.828125-3.054688-6.828125-6.828125 0-3.773438 3.054687-6.824219 6.828125-6.824219h238.933593c3.773438 0 6.824219 3.050781 6.824219 6.824219 0 3.773437-3.050781 6.828125-6.824219 6.828125zm0 0"/><path d="m273.191406 348.160156h-191.320312c-26.296875 0-47.699219-21.402344-47.699219-47.699218v-54.703126c0-3.773437 3.054687-6.824218 6.828125-6.824218h273.066406c3.773438 0 6.828125 3.050781 6.828125 6.824218v54.703126c0 26.296874-21.402343 47.699218-47.703125 47.699218zm-225.363281-95.574218v47.875c0 18.773437 15.269531 34.042968 34.042969 34.042968h191.320312c18.773438 0 34.046875-15.269531 34.046875-34.042968v-47.875zm0 0"/><path d="m314.066406 252.585938h-273.066406c-3.773438 0-6.828125-3.054688-6.828125-6.828126v-150.183593c0-3.773438 3.054687-6.828125 6.828125-6.828125h273.066406c3.773438 0 6.828125 3.054687 6.828125 6.828125v150.183593c0 3.773438-3.054687 6.828126-6.828125 6.828126zm-266.238281-13.652344h259.410156v-136.535156h-259.410156zm0 0"/><path d="m102.441406 146.773438c0 5.65625-4.585937 10.238281-10.242187 10.238281s-10.238281-4.582031-10.238281-10.238281 4.582031-10.242188 10.238281-10.242188 10.242187 4.585938 10.242187 10.242188zm0 0"/><path d="m266.28125 146.773438c0 5.65625-4.585938 10.238281-10.242188 10.238281s-10.238281-4.582031-10.238281-10.238281 4.582031-10.242188 10.238281-10.242188 10.242188 4.585938 10.242188 10.242188zm0 0"/><path d="m81.960938 320.851562c-15.0625 0-27.308594-12.246093-27.308594-27.304687 0-15.0625 12.246094-27.308594 27.308594-27.308594 15.058593 0 27.304687 12.246094 27.304687 27.308594 0 15.058594-12.246094 27.304687-27.304687 27.304687zm0-40.960937c-7.527344 0-13.65625 6.128906-13.65625 13.65625 0 7.523437 6.128906 13.652344 13.65625 13.652344 7.523437 0 13.652343-6.128907 13.652343-13.652344 0-7.527344-6.128906-13.65625-13.652343-13.65625zm0 0"/><path d="m273.105469 320.851562c-15.058594 0-27.304688-12.246093-27.304688-27.304687 0-15.0625 12.246094-27.308594 27.304688-27.308594 15.058593 0 27.308593 12.246094 27.308593 27.308594 0 15.058594-12.25 27.304687-27.308593 27.304687zm0-40.960937c-7.527344 0-13.652344 6.128906-13.652344 13.65625 0 7.523437 6.125 13.652344 13.652344 13.652344 7.527343 0 13.652343-6.128907 13.652343-13.652344 0-7.527344-6.125-13.65625-13.652343-13.65625zm0 0"/><path d="m314.066406 102.398438h-273.066406c-3.773438 0-6.828125-3.050782-6.828125-6.824219 0-22.585938 18.375-40.960938 40.960937-40.960938h204.800782c22.585937 0 40.960937 18.375 40.960937 40.960938 0 3.773437-3.054687 6.824219-6.828125 6.824219zm-265.375-13.652344h257.679688c-3.03125-11.769532-13.738282-20.480469-26.4375-20.480469h-204.800782c-12.699218 0-23.40625 8.710937-26.441406 20.480469zm0 0"/><path d="m177.53125 68.265625c-1.746094 0-3.492188-.667969-4.824219-2l-54.613281-54.613281c-2.667969-2.664063-2.667969-6.988282 0-9.652344 2.664062-2.667969 6.988281-2.667969 9.652344 0l54.613281 54.613281c2.664063 2.664063 2.664063 6.988281 0 9.652344-1.332031 1.332031-3.082031 2-4.828125 2zm0 0"/><path d="m177.53125 68.265625c-1.746094 0-3.492188-.667969-4.824219-2-2.667969-2.664063-2.667969-6.988281 0-9.652344l54.613281-54.613281c2.664063-2.667969 6.988282-2.667969 9.652344 0 2.664063 2.664062 2.664063 6.988281 0 9.652344l-54.613281 54.613281c-1.332031 1.332031-3.082031 2-4.828125 2zm0 0"/><path d="m177.53125 204.800781c-29.902344 0-55.210938-8.78125-64.460938-22.375-2.117187-3.117187-1.3125-7.367187 1.808594-9.488281 3.121094-2.125 7.359375-1.300781 9.488282 1.808594 5.539062 8.144531 25.585937 16.398437 53.164062 16.398437 27.839844 0 47.882812-8.332031 53.289062-16.566406 2.082032-3.140625 6.3125-4.023437 9.453126-1.957031 3.152343 2.066406 4.027343 6.296875 1.960937 9.453125-9.066406 13.804687-34.460937 22.726562-64.703125 22.726562zm0 0"/><path d="m6.867188 177.492188c-3.773438 0-6.8281255-3.054688-6.8281255-6.828126v-55.570312c0-14.527344 11.8203125-26.347656 26.3476565-26.347656h14.613281c3.773438 0 6.828125 3.054687 6.828125 6.828125 0 3.773437-3.054687 6.824219-6.828125 6.824219h-14.613281c-7 0-12.695313 5.695312-12.695313 12.695312v55.570312c0 3.773438-3.050781 6.828126-6.824218 6.828126zm0 0"/><path d="m348.199219 177.492188c-3.773438 0-6.828125-3.054688-6.828125-6.828126v-55.570312c0-7-5.691406-12.695312-12.691406-12.695312h-14.613282c-3.773437 0-6.828125-3.050782-6.828125-6.824219 0-3.773438 3.054688-6.828125 6.828125-6.828125h14.613282c14.527343 0 26.347656 11.820312 26.347656 26.347656v55.570312c0 3.773438-3.054688 6.828126-6.828125 6.828126zm0 0"/><path d="m204.839844 88.746094h-54.613282c-3.773437 0-6.828124-3.054688-6.828124-6.828125 0-3.773438 3.054687-6.824219 6.828124-6.824219h54.613282c3.773437 0 6.828125 3.050781 6.828125 6.824219 0 3.773437-3.054688 6.828125-6.828125 6.828125zm0 0"/></svg>