<svg height="436pt" viewBox="-75 0 436 436.90667" width="436pt" xmlns="http://www.w3.org/2000/svg"><path d="m256.988281 402.773438h-226.351562c-16.644531 0-30.183594-13.539063-30.183594-30.1875v-253.652344c0-16.644532 13.539063-30.1875 30.183594-30.1875h226.355469c16.640624 0 30.179687 13.542968 30.179687 30.1875v253.652344c0 16.648437-13.539063 30.1875-30.183594 30.1875zm-226.351562-300.375c-9.113281 0-16.53125 7.421874-16.53125 16.535156v253.652344c0 9.113281 7.417969 16.535156 16.53125 16.535156h226.355469c9.113281 0 16.53125-7.421875 16.53125-16.535156v-253.652344c0-9.113282-7.417969-16.535156-16.53125-16.535156zm0 0"/><path d="m55.066406 436.90625c-11.292968 0-20.480468-9.1875-20.480468-20.480469v-20.480469c0-3.773437 3.058593-6.824218 6.828124-6.824218h27.304688c3.769531 0 6.828125 3.050781 6.828125 6.824218v20.480469c0 11.292969-9.1875 20.480469-20.480469 20.480469zm-6.828125-34.132812v13.652343c0 3.765625 3.066407 6.828125 6.828125 6.828125 3.761719 0 6.828125-3.0625 6.828125-6.828125v-13.652343zm0 0"/><path d="m232.558594 436.90625c-11.292969 0-20.480469-9.1875-20.480469-20.480469v-20.480469c0-3.773437 3.058594-6.824218 6.828125-6.824218h27.308594c3.769531 0 6.824218 3.050781 6.824218 6.824218v20.480469c0 11.292969-9.1875 20.480469-20.480468 20.480469zm-6.824219-34.132812v13.652343c0 3.765625 3.0625 6.828125 6.824219 6.828125 3.765625 0 6.828125-3.0625 6.828125-6.828125v-13.652343zm0 0"/><path d="m164.292969 170.667969h-40.960938c-41.40625 0-75.09375-33.6875-75.09375-75.09375 0-3.773438 3.058594-6.828125 6.828125-6.828125h177.492188c3.769531 0 6.828125 3.054687 6.828125 6.828125 0 41.40625-33.6875 75.09375-75.09375 75.09375zm-102.023438-68.269531c3.40625 30.683593 29.492188 54.613281 61.0625 54.613281h40.960938c31.570312 0 57.65625-23.929688 61.0625-54.613281zm0 0"/><path d="m171.121094 197.972656h-54.613282c-3.769531 0-6.828124-3.050781-6.828124-6.824218v-27.308594c0-3.773438 3.058593-6.828125 6.828124-6.828125h54.613282c3.769531 0 6.824218 3.054687 6.824218 6.828125v27.308594c0 3.773437-3.054687 6.824218-6.824218 6.824218zm-47.789063-13.652344h40.960938v-13.652343h-40.960938zm0 0"/><path d="m198.425781 102.398438h-102.398437c-3.769532 0-6.828125-3.050782-6.828125-6.824219v-88.746094c0-3.773437 3.058593-6.828125 6.828125-6.828125h102.398437c3.769531 0 6.828125 3.054688 6.828125 6.828125v88.746094c0 3.773437-3.058594 6.824219-6.828125 6.824219zm-95.574219-13.652344h88.75v-75.09375h-88.75zm0 0"/><path d="m225.734375 13.652344h-157.015625c-3.769531 0-6.824219-3.050782-6.824219-6.824219s3.054688-6.828125 6.824219-6.828125h157.015625c3.769531 0 6.824219 3.054688 6.824219 6.828125s-3.054688 6.824219-6.824219 6.824219zm0 0"/><path d="m103.539062 288.582031c0 20.679688 18.183594 37.445313 40.617188 37.445313s40.617188-16.765625 40.617188-37.445313c0-20.6875-81.234376-20.6875-81.234376 0zm40.617188 25.445313c-12.265625 0-22.214844-4.589844-22.214844-10.242188s9.949219-10.238281 22.214844-10.238281c12.269531 0 22.214844 4.585937 22.214844 10.238281s-9.945313 10.242188-22.214844 10.242188zm0 0"/><path d="m96.027344 232.105469c0 7.542969-6.113282 13.65625-13.652344 13.65625-7.542969 0-13.65625-6.113281-13.65625-13.65625 0-7.539063 6.113281-13.652344 13.65625-13.652344 7.539062 0 13.652344 6.113281 13.652344 13.652344zm0 0"/><path d="m218.90625 232.105469c0 7.542969-6.113281 13.65625-13.652344 13.65625-7.542968 0-13.652344-6.113281-13.652344-13.65625 0-7.539063 6.109376-13.652344 13.652344-13.652344 7.539063 0 13.652344 6.113281 13.652344 13.652344zm0 0"/></svg>