<svg height="402pt" viewBox="-10 0 402 402.77333" width="402pt" xmlns="http://www.w3.org/2000/svg"><path d="m328.066406 402.773438h-54.613281c-3.769531 0-6.828125-3.054688-6.828125-6.828126v-34.132812c0-3.773438 3.058594-6.824219 6.828125-6.824219h54.613281c3.769532 0 6.828125 3.050781 6.828125 6.824219v34.132812c0 3.773438-3.058593 6.828126-6.828125 6.828126zm-47.785156-13.652344h40.957031v-20.480469h-40.957031zm0 0"/><path d="m109.613281 402.773438h-54.613281c-3.769531 0-6.828125-3.054688-6.828125-6.828126v-34.132812c0-3.773438 3.058594-6.824219 6.828125-6.824219h54.613281c3.769531 0 6.828125 3.050781 6.828125 6.824219v34.132812c0 3.773438-3.058594 6.828126-6.828125 6.828126zm-47.785156-13.652344h40.957031v-20.480469h-40.957031zm0 0"/><path d="m353.210938 279.894531h-11.488282c-3.769531 0-6.824218-3.054687-6.824218-6.828125 0-3.773437 3.054687-6.828125 6.824218-6.828125h11.488282c8.722656 0 15.816406-7.089843 15.816406-15.8125v-220.957031c0-8.722656-7.09375-15.816406-15.816406-15.816406h-323.355469c-8.722657 0-15.816407 7.09375-15.816407 15.816406v220.957031c0 8.722657 7.09375 15.816407 15.816407 15.816407h8.121093c3.769532 0 6.828126 3.054687 6.828126 6.828124 0 3.773438-3.058594 6.824219-6.828126 6.824219h-8.121093c-16.25 0-29.46875-13.222656-29.46875-29.46875v-220.957031c0-16.25 13.21875-29.46875 29.46875-29.46875h323.359375c16.246094 0 29.464844 13.21875 29.464844 29.46875v220.957031c0 16.246094-13.21875 29.46875-29.46875 29.46875zm0 0"/><path d="m341.71875 314.027344h-300.371094c-3.769531 0-6.828125-3.054688-6.828125-6.828125v-88.238281c0-19.101563 15.539063-34.640626 34.640625-34.640626h244.746094c19.097656 0 34.640625 15.539063 34.640625 34.640626v88.238281c0 3.773437-3.058594 6.828125-6.828125 6.828125zm-293.546875-13.652344h286.722656v-81.414062c0-11.574219-9.414062-20.988282-20.988281-20.988282h-244.746094c-11.574218 0-20.988281 9.414063-20.988281 20.988282zm0 0"/><path d="m321.238281 197.972656h-259.410156c-3.773437 0-6.828125-3.050781-6.828125-6.824218v-116.054688c0-3.773438 3.054688-6.828125 6.828125-6.828125h259.410156c3.773438 0 6.828125 3.054687 6.828125 6.828125v116.054688c0 3.773437-3.054687 6.824218-6.828125 6.824218zm-252.585937-13.652344h245.761718v-102.398437h-245.761718zm0 0"/><path d="m150.574219 129.707031c8.214843 13.820313 23.988281 30.46875 41 30.46875 16.847656 0 32.65625-16.878906 40.917969-30.46875zm0 0"/><path d="m191.574219 167.007812c-19.742188 0-37.152344-17.46875-46.871094-33.8125-1.253906-2.109374-1.277344-4.730468-.0625-6.863281 1.210937-2.132812 3.480469-3.453125 5.933594-3.453125h81.917969c2.46875 0 4.742187 1.335938 5.949218 3.480469 1.210938 2.15625 1.164063 4.789063-.113281 6.894531-9.921875 16.320313-27.414063 33.753906-46.753906 33.753906zm-27.789063-30.472656c7.890625 9.351563 18.070313 16.816406 27.789063 16.816406 9.476562 0 19.613281-7.457031 27.585937-16.816406zm0 0"/><path d="m123.265625 105.8125c0 5.65625-4.582031 10.242188-10.238281 10.242188s-10.242188-4.585938-10.242188-10.242188 4.585938-10.238281 10.242188-10.238281 10.238281 4.582031 10.238281 10.238281zm0 0"/><path d="m280.28125 105.8125c0 5.65625-4.585938 10.242188-10.242188 10.242188s-10.238281-4.585938-10.238281-10.242188 4.582031-10.238281 10.238281-10.238281 10.242188 4.582031 10.242188 10.238281zm0 0"/><path d="m89.132812 286.71875c-15.054687 0-27.304687-12.246094-27.304687-27.304688 0-15.058593 12.25-27.308593 27.304687-27.308593 15.058594 0 27.308594 12.25 27.308594 27.308593 0 15.058594-12.25 27.304688-27.308594 27.304688zm0-40.957031c-7.527343 0-13.652343 6.125-13.652343 13.652343 0 7.527344 6.125 13.652344 13.652343 13.652344 7.53125 0 13.652344-6.125 13.652344-13.652344 0-7.527343-6.121094-13.652343-13.652344-13.652343zm0 0"/><path d="m293.933594 286.71875c-15.054688 0-27.308594-12.246094-27.308594-27.304688 0-15.058593 12.253906-27.308593 27.308594-27.308593 15.054687 0 27.304687 12.25 27.304687 27.308593 0 15.058594-12.25 27.304688-27.304687 27.304688zm0-40.957031c-7.53125 0-13.652344 6.125-13.652344 13.652343 0 7.527344 6.121094 13.652344 13.652344 13.652344s13.652344-6.125 13.652344-13.652344c0-7.527343-6.121094-13.652343-13.652344-13.652343zm0 0"/><path d="m339.28125 368.640625h-295.496094c-12.640625 0-22.917968-10.28125-22.917968-22.914063v-22.441406c0-12.632812 10.277343-22.910156 22.917968-22.910156h295.5c12.636719 0 22.917969 10.277344 22.917969 22.910156v22.441406c-.003906 12.632813-10.28125 22.914063-22.921875 22.914063zm-295.496094-54.613281c-5.109375 0-9.265625 4.152344-9.265625 9.257812v22.441406c0 5.105469 4.15625 9.261719 9.265625 9.261719h295.5c5.105469 0 9.261719-4.15625 9.261719-9.261719v-22.441406c0-5.105468-4.15625-9.257812-9.261719-9.257812zm0 0"/><path d="m239.320312 266.238281h-95.574218c-3.769532 0-6.824219-3.050781-6.824219-6.824219 0-3.773437 3.054687-6.828124 6.824219-6.828124h95.574218c3.769532 0 6.828126 3.054687 6.828126 6.828124 0 3.773438-3.058594 6.824219-6.828126 6.824219zm0 0"/><path d="m321.238281 81.921875h-259.410156c-3.773437 0-6.828125-3.054687-6.828125-6.828125 0-18.820312 15.3125-34.132812 34.132812-34.132812h204.800782c18.820312 0 34.132812 15.3125 34.132812 34.132812 0 3.773438-3.054687 6.828125-6.828125 6.828125zm-251.414062-13.65625h243.421875c-2.816406-7.945313-10.414063-13.652344-19.3125-13.652344h-204.800782c-8.898437 0-16.492187 5.707031-19.308593 13.652344zm0 0"/></svg>