<svg height="416pt" viewBox="-7 0 416 416.42667" width="416pt" xmlns="http://www.w3.org/2000/svg"><path d="m148.648438 400.78125c-1.199219 0-2.417969-.316406-3.519532-.980469-35.171875-21.226562-56.167968-58.394531-56.167968-99.425781 0-36.722656 17.671874-71.667969 47.273437-93.480469 3.035156-2.246093 7.300781-1.59375 9.546875 1.445313 2.234375 3.035156 1.589844 7.308594-1.449219 9.542968-26.121093 19.25-41.71875 50.089844-41.71875 82.492188 0 36.207031 18.53125 69.003906 49.566407 87.730469 3.230468 1.949219 4.265624 6.148437 2.316406 9.375-1.28125 2.128906-3.535156 3.300781-5.847656 3.300781zm0 0"/><path d="m205.011719 416.425781c-4.523438 0-9.0625-.257812-13.488281-.777343-3.742188-.441407-6.421876-3.828126-5.988282-7.574219.4375-3.742188 3.839844-6.460938 7.574219-5.988281 3.902344.453124 7.910156.6875 11.90625.6875 56.460937 0 102.398437-45.933594 102.398437-102.402344 0-32.390625-15.585937-63.21875-41.691406-82.472656-3.035156-2.234376-3.679687-6.511719-1.441406-9.546876 2.230469-3.03125 6.503906-3.691406 9.542969-1.441406 29.582031 21.816406 47.242187 56.75 47.242187 93.464844 0 63.992188-52.058594 116.050781-116.054687 116.050781zm0 0"/><path d="m157.226562 252.585938c0 7.542968-6.113281 13.652343-13.652343 13.652343-7.542969 0-13.652344-6.109375-13.652344-13.652343 0-7.539063 6.109375-13.652344 13.652344-13.652344 7.539062 0 13.652343 6.113281 13.652343 13.652344zm0 0"/><path d="m280.105469 252.585938c0 7.542968-6.113281 13.652343-13.652344 13.652343s-13.652344-6.109375-13.652344-13.652343c0-7.539063 6.113281-13.652344 13.652344-13.652344s13.652344 6.113281 13.652344 13.652344zm0 0"/><path d="m181.121094 416.425781c-24.46875 0-44.375-19.90625-44.375-44.371093v-10.242188c0-11.292969 9.1875-20.480469 20.480468-20.480469 11.292969 0 20.480469 9.1875 20.480469 20.480469v10.242188c0 1.878906 1.527344 3.410156 3.414063 3.410156 1.882812 0 3.414062-1.53125 3.414062-3.410156v-146.703126c0-3.773437 3.054688-6.824218 6.824219-6.824218s6.828125 3.050781 6.828125 6.824218v146.703126c0 9.414062-7.65625 17.066406-17.066406 17.066406s-17.066406-7.652344-17.066406-17.066406v-10.242188c0-3.765625-3.066407-6.824219-6.828126-6.824219-3.761718 0-6.828124 3.058594-6.828124 6.824219v10.242188c0 16.9375 13.78125 30.71875 30.722656 30.71875 16.9375 0 30.71875-13.78125 30.71875-30.71875v-146.703126c0-3.773437 3.058594-6.824218 6.828125-6.824218s6.824219 3.050781 6.824219 6.824218v146.703126c0 24.464843-19.90625 44.371093-44.371094 44.371093zm0 0"/><path d="m205.011719 245.878906c-2.148438 0-4.171875-1.011718-5.460938-2.734375-11.757812-15.691406-29.671875-24.691406-49.152343-24.691406-17.582032 0-34.375 7.621094-46.074219 20.898437-2.59375 2.949219-7.652344 2.949219-10.246094 0-11.699219-13.277343-28.496094-20.898437-46.078125-20.898437-10.710938 0-21.3125 2.855469-30.65625 8.261719-2.101562 1.207031-4.683594 1.210937-6.792969.019531-2.105469-1.199219-3.421875-3.421875-3.449219-5.847656l-.0625-2.433594c0-109.160156 88.8125-197.972656 197.972657-197.972656 109.164062 0 197.976562 88.8125 197.976562 197.972656l-.0625 2.433594c-.03125 2.425781-1.34375 4.648437-3.453125 5.847656-2.109375 1.191406-4.691406 1.1875-6.789062-.019531-9.34375-5.40625-19.949219-8.261719-30.65625-8.261719-17.585938 0-34.378906 7.621094-46.078125 20.898437-2.59375 2.949219-7.652344 2.949219-10.246094 0-11.699219-13.277343-28.492187-20.898437-46.078125-20.898437-19.476562 0-37.390625 9-49.148438 24.695313-1.289062 1.71875-3.3125 2.730468-5.464843 2.730468zm-54.613281-41.078125c20.976562 0 40.457031 8.519531 54.613281 23.640625 14.160156-15.121094 33.640625-23.640625 54.613281-23.640625 19.050781 0 37.339844 7.304688 51.203125 20.253907 13.863281-12.949219 32.148437-20.253907 51.199219-20.253907 9.273437 0 18.476562 1.746094 27.109375 5.105469-4.480469-97.679688-85.351563-175.773438-184.125-175.773438-98.769531 0-179.640625 78.09375-184.121094 175.773438 8.632813-3.359375 17.835937-5.105469 27.109375-5.105469 19.050781 0 37.335938 7.304688 51.199219 20.253907 13.863281-12.949219 32.152343-20.253907 51.199219-20.253907zm0 0"/><path d="m205.011719 34.132812c-3.769531 0-6.824219-3.050781-6.824219-6.824218v-13.65625c0-3.773438 3.054688-6.824219 6.824219-6.824219 3.773437 0 6.828125 3.050781 6.828125 6.824219v13.65625c0 3.773437-3.054688 6.824218-6.828125 6.824218zm0 0"/><path d="m310.707031 241.613281c-.765625 0-1.546875-.125-2.3125-.398437-3.542969-1.28125-5.386719-5.1875-4.109375-8.742188 6.605469-18.367187 9.953125-38.011718 9.953125-58.394531 0-77.164063-49-139.945313-109.226562-139.945313-60.226563 0-109.226563 62.78125-109.226563 139.945313 0 20.382813 3.351563 40.027344 9.957032 58.394531 1.277343 3.554688-.566407 7.460938-4.113282 8.742188-3.542968 1.257812-7.457031-.566406-8.730468-4.113282-7.144532-19.863281-10.765626-41.0625-10.765626-63.023437 0-84.691406 55.125-153.597656 122.878907-153.597656 67.757812 0 122.882812 68.90625 122.882812 153.597656 0 21.960937-3.621093 43.160156-10.765625 63.023437-1 2.777344-3.625 4.511719-6.421875 4.511719zm0 0"/><path d="m205.011719 204.800781c-3.769531 0-6.824219-3.054687-6.824219-6.828125v-143.359375c0-3.773437 3.054688-6.828125 6.824219-6.828125 3.773437 0 6.828125 3.054688 6.828125 6.828125v143.359375c0 3.773438-3.054688 6.828125-6.828125 6.828125zm0 0"/><path d="m44.097656 39.496094c0 12.121094-9.824218 21.945312-21.941406 21.945312-12.121094 0-21.941406-9.824218-21.941406-21.945312 0-12.117188 17.554687-39.496094 21.941406-39.496094 4.390625 0 21.941406 27.378906 21.941406 39.496094zm0 0"/><path d="m276.207031 121.417969c0 12.117187-9.824219 21.941406-21.945312 21.941406-12.117188 0-21.941407-9.824219-21.941407-21.941406 0-12.121094 17.554688-39.496094 21.941407-39.496094 4.390625 0 21.945312 27.375 21.945312 39.496094zm0 0"/><path d="m385.433594 107.765625c0 12.117187-9.824219 21.941406-21.945313 21.941406-12.117187 0-21.941406-9.824219-21.941406-21.941406 0-12.121094 17.554687-39.5 21.941406-39.5 4.390625 0 21.945313 27.378906 21.945313 39.5zm0 0"/></svg>