<svg height="436pt" viewBox="0 -6 436.90667 436" width="436pt" xmlns="http://www.w3.org/2000/svg"><path d="m358.03125 382.746094h-279.152344c-35.964844 0-65.226562-29.261719-65.226562-65.226563v-42.8125c0-19.472656 15.84375-35.320312 35.316406-35.320312h338.96875c19.472656 0 35.3125 15.847656 35.3125 35.320312v42.8125c.003906 35.964844-29.257812 65.226563-65.21875 65.226563zm-309.0625-129.707032c-11.945312 0-21.660156 9.71875-21.660156 21.667969v42.8125c0 28.441407 23.132812 51.574219 51.570312 51.574219h279.152344c28.433594 0 51.570312-23.132812 51.570312-51.574219v-42.8125c0-11.949219-9.71875-21.667969-21.664062-21.667969zm0 0"/><path d="m266.238281 287.171875h-95.570312c-3.769531 0-6.828125-3.050781-6.828125-6.824219 0-3.773437 3.058594-6.828125 6.828125-6.828125h95.570312c3.773438 0 6.828125 3.054688 6.828125 6.828125 0 3.773438-3.054687 6.824219-6.828125 6.824219zm0 0"/><path d="m266.238281 307.652344h-95.570312c-3.769531 0-6.828125-3.050782-6.828125-6.824219s3.058594-6.828125 6.828125-6.828125h95.570312c3.773438 0 6.828125 3.054688 6.828125 6.828125s-3.054687 6.824219-6.828125 6.824219zm0 0"/><path d="m266.238281 328.132812h-95.570312c-3.769531 0-6.828125-3.050781-6.828125-6.824218 0-3.773438 3.058594-6.828125 6.828125-6.828125h95.570312c3.773438 0 6.828125 3.054687 6.828125 6.828125 0 3.773437-3.054687 6.824218-6.828125 6.824218zm0 0"/><path d="m266.238281 382.746094h-95.570312c-3.769531 0-6.828125-3.050782-6.828125-6.824219s3.058594-6.828125 6.828125-6.828125h95.570312c3.773438 0 6.828125 3.054688 6.828125 6.828125s-3.054687 6.824219-6.828125 6.824219zm0 0"/><path d="m75.09375 334.960938c-18.820312 0-34.132812-15.316407-34.132812-34.132813 0-18.820313 15.3125-34.136719 34.132812-34.136719s34.132812 15.316406 34.132812 34.136719c0 18.816406-15.3125 34.132813-34.132812 34.132813zm0-54.613282c-11.292969 0-20.480469 9.1875-20.480469 20.480469s9.1875 20.480469 20.480469 20.480469 20.480469-9.1875 20.480469-20.480469-9.1875-20.480469-20.480469-20.480469zm0 0"/><path d="m361.8125 334.960938c-18.820312 0-34.132812-15.316407-34.132812-34.132813 0-18.820313 15.3125-34.136719 34.132812-34.136719s34.132812 15.316406 34.132812 34.136719c0 18.816406-15.3125 34.132813-34.132812 34.132813zm0-54.613282c-11.292969 0-20.480469 9.1875-20.480469 20.480469s9.1875 20.480469 20.480469 20.480469 20.480469-9.1875 20.480469-20.480469-9.1875-20.480469-20.480469-20.480469zm0 0"/><path d="m116.054688 423.707031h-54.613282c-3.769531 0-6.828125-3.054687-6.828125-6.828125v-40.957031c0-3.773437 3.058594-6.828125 6.828125-6.828125h54.613282c3.769531 0 6.824218 3.054688 6.824218 6.828125v40.957031c0 3.773438-3.054687 6.828125-6.824218 6.828125zm-47.789063-13.652343h40.960937v-27.308594h-40.960937zm0 0"/><path d="m375.464844 423.707031h-54.613282c-3.769531 0-6.824218-3.054687-6.824218-6.828125v-40.957031c0-3.773437 3.054687-6.828125 6.824218-6.828125h54.613282c3.773437 0 6.828125 3.054688 6.828125 6.828125v40.957031c0 3.773438-3.054688 6.828125-6.828125 6.828125zm-47.785156-13.652343h40.960937v-27.308594h-40.960937zm0 0"/><path d="m375.464844 253.039062h-314.023438c-2.066406 0-4.015625-.933593-5.3125-2.539062-1.296875-1.601562-1.796875-3.707031-1.363281-5.726562l19.136719-88.878907c1.1875-14.472656 13.355468-25.734375 27.933594-25.734375h233.234374c14.578126 0 26.746094 11.261719 27.933594 25.734375l19.136719 88.878907c.433594 2.019531-.066406 4.125-1.363281 5.726562-1.296875 1.605469-3.246094 2.539062-5.3125 2.539062zm-305.570313-13.652343h297.117188l-17.457031-81.082031c-.070313-.332032-.117188-.671876-.136719-1.011719-.472657-7.5625-6.777344-13.480469-14.347657-13.480469h-233.234374c-7.570313 0-13.871094 5.921875-14.34375 13.480469-.023438.339843-.066407.679687-.140626 1.011719zm0 0"/><path d="m170.667969 171.121094c0 7.539062-6.113281 13.652344-13.65625 13.652344-7.539063 0-13.652344-6.113282-13.652344-13.652344 0-7.542969 6.113281-13.65625 13.652344-13.65625 7.542969 0 13.65625 6.113281 13.65625 13.65625zm0 0"/><path d="m293.546875 171.121094c0 7.539062-6.113281 13.652344-13.652344 13.652344-7.542969 0-13.65625-6.113282-13.65625-13.652344 0-7.542969 6.113281-13.65625 13.65625-13.65625 7.539063 0 13.652344 6.113281 13.652344 13.65625zm0 0"/><path d="m430.078125 239.386719h-47.785156c-3.769531 0-6.828125-3.054688-6.828125-6.828125v-34.132813c0-3.773437 3.058594-6.824219 6.828125-6.824219h13.652343c22.585938 0 40.960938 18.371094 40.960938 40.957032 0 3.773437-3.054688 6.828125-6.828125 6.828125zm-40.957031-13.652344h33.269531c-3.039063-11.769531-13.746094-20.480469-26.445313-20.480469h-6.824218zm0 0"/><path d="m382.292969 253.039062c-3.769531 0-6.828125-3.050781-6.828125-6.824218v-13.65625c0-3.773438 3.058594-6.824219 6.828125-6.824219s6.828125 3.050781 6.828125 6.824219v13.65625c0 3.773437-3.058594 6.824218-6.828125 6.824218zm0 0"/><path d="m54.613281 239.386719h-47.785156c-3.773437 0-6.828125-3.054688-6.828125-6.828125 0-22.585938 18.375-40.957032 40.960938-40.957032h13.652343c3.769531 0 6.828125 3.050782 6.828125 6.824219v34.132813c0 3.773437-3.058594 6.828125-6.828125 6.828125zm-40.097656-13.652344h33.269531v-20.480469h-6.824218c-12.699219 0-23.40625 8.710938-26.445313 20.480469zm0 0"/><path d="m54.613281 253.039062c-3.769531 0-6.828125-3.050781-6.828125-6.824218v-13.65625c0-3.773438 3.058594-6.824219 6.828125-6.824219s6.828125 3.050781 6.828125 6.824219v13.65625c0 3.773437-3.058594 6.824218-6.828125 6.824218zm0 0"/><path d="m402.773438 355.441406h-368.640626c-3.769531 0-6.824218-3.054687-6.824218-6.828125 0-3.773437 3.054687-6.828125 6.824218-6.828125h368.640626c3.769531 0 6.828124 3.054688 6.828124 6.828125 0 3.773438-3.058593 6.828125-6.828124 6.828125zm0 0"/><path d="m232.105469 102.851562c0 7.542969-6.113281 13.65625-13.652344 13.65625s-13.652344-6.113281-13.652344-13.65625c0-7.539062 6.113281-13.652343 13.652344-13.652343s13.652344 6.113281 13.652344 13.652343zm0 0"/><path d="m279.082031 38.179688c-16.550781-15.527344-38.082031-24.074219-60.628906-24.074219-21.425781 0-42.15625 7.820312-58.375 22.019531l-8.996094-10.265625c18.707031-16.386719 42.636719-25.40625 67.371094-25.40625 26.03125 0 50.878906 9.859375 69.96875 27.769531zm0 0"/><path d="m260.425781 58.082031c-11.460937-10.75-26.367187-16.667969-41.972656-16.667969-14.832031 0-29.1875 5.414063-40.414063 15.246094l-8.992187-10.265625c13.714844-12.015625 31.261719-18.632812 49.40625-18.632812 19.085937 0 37.304687 7.230469 51.3125 20.359375zm0 0"/><path d="m241.773438 77.980469c-6.371094-5.972657-14.65625-9.261719-23.320313-9.261719-8.234375 0-16.210937 3.007812-22.445313 8.476562l-9-10.269531c8.726563-7.644531 19.894532-11.859375 31.445313-11.859375 12.148437 0 23.742187 4.601563 32.652344 12.953125zm0 0"/><path d="m218.453125 198.425781c-15.082031 0-27.304687 12.226563-27.304687 27.308594 0 15.078125 12.222656 27.304687 27.304687 27.304687s27.308594-12.226562 27.308594-27.304687c0-15.082031-12.226563-27.308594-27.308594-27.308594zm0 40.960938c-7.539063 0-13.652344-4.585938-13.652344-10.238281 0-5.652344 6.113281-10.242188 13.652344-10.242188s13.652344 4.589844 13.652344 10.242188c0 5.652343-6.113281 10.238281-13.652344 10.238281zm0 0"/></svg>